<svg xmlns="http://www.w3.org/2000/svg" viewBox="0 245.3 841.9 109">
    <linearGradient id="SVGID_1_" gradientUnits="userSpaceOnUse" x1="6.8" y1="587.28" x2="6.8" y2="575.28" gradientTransform="matrix(3.8797 0 0 3.8797 -4.3195 -1960.3451)">
        <stop  offset="0"             style="stop-color:#6C8896"/>
        <stop  offset="1.926647e-003" style="stop-color:#6D8997"/>
        <stop  offset="7.733236e-002" style="stop-color:#97ADB9"/>
        <stop  offset="0.1451"        style="stop-color:#B9CAD3"/>
        <stop  offset="0.2022"        style="stop-color:#D0DBE2"/>
        <stop  offset="0.2418"        style="stop-color:#D8E2E7"/>
        <stop  offset="0.3224"        style="stop-color:#C9D6DD"/>
        <stop  offset="0.4704"        style="stop-color:#A3B8C3"/>
        <stop  offset="0.6692"        style="stop-color:#6E8997"/>
        <stop  offset="0.9089"        style="stop-color:#2F4F5E"/>
        <stop  offset="1"             style="stop-color:#113442"/>
    </linearGradient>
    <path fill="url(#SVGID_1_)" d="M20.9,272.3c-8.5,0-15.1,10.5-15.1,23.7c0,13.2,7,24.1,15.1,24.1h3.5c3.5,0,8.5-0.8,6.6-2.7 c-4.7-3.9-7.8-11.3-7.8-19.8c0-12.4,6.6-22.5,15.1-22.5l-15.5-2.7H20.9z"/>
    <linearGradient id="SVGID_2_" gradientUnits="userSpaceOnUse" x1="10.8" y1="582.28" x2="10.8" y2="587.28" gradientTransform="matrix(3.8797 0 0 3.8797 -4.3195 -1960.3451)">
        <stop  offset="0"      style="stop-color:#ED1C24"/>
        <stop  offset="0.3736" style="stop-color:#ED1C24"/>
        <stop  offset="0.4467" style="stop-color:#E51C23"/>
        <stop  offset="0.5449" style="stop-color:#D61A21"/>
        <stop  offset="0.6573" style="stop-color:#BE171D"/>
        <stop  offset="0.7804" style="stop-color:#9F0F13"/>
        <stop  offset="0.9106" style="stop-color:#7A0101"/>
        <stop  offset="1"      style="stop-color:#5E0000"/>
    </linearGradient>
    <path fill="url(#SVGID_2_)" d="M20.9,319.7c7.8,0,14.7-8.1,14.4-20.6h19c0,12.4-8.5,20.6-17.1,20.6H20.9z"/>
    <linearGradient id="SVGID_3_" gradientUnits="userSpaceOnUse" x1="13.6589" y1="575.28" x2="13.6589" y2="587.28" gradientTransform="matrix(3.8797 0 0 3.8797 -4.3195 -1960.3451)">
        <stop  offset="0"             style="stop-color:#B5191E"/>
        <stop  offset="2.278189e-002" style="stop-color:#C91B21"/>
        <stop  offset="4.952808e-002" style="stop-color:#DB1C23"/>
        <stop  offset="7.885586e-002" style="stop-color:#E71C24"/>
        <stop  offset="0.1154"        style="stop-color:#ED1C24"/>
        <stop  offset="0.1871"        style="stop-color:#F05139"/>
        <stop  offset="0.2455"        style="stop-color:#F2684B"/>
        <stop  offset="0.2802"        style="stop-color:#F37053"/>
        <stop  offset="0.3389"        style="stop-color:#F15F43"/>
        <stop  offset="0.4588"        style="stop-color:#EE2325"/>
        <stop  offset="0.467"         style="stop-color:#ED1C24"/>
        <stop  offset="0.5282"        style="stop-color:#E01B23"/>
        <stop  offset="0.6371"        style="stop-color:#C6181E"/>
        <stop  offset="0.7811"        style="stop-color:#9E0F13"/>
        <stop  offset="0.9528"        style="stop-color:#6C0000"/>
        <stop  offset="1"             style="stop-color:#5E0000"/>
    </linearGradient>
    <path fill="url(#SVGID_3_)" d="M62.8,319.7l9.7-0.8c3.5,0,5-0.4,3.1-2.3c-5-4.3-9.3-12.4-12.8-21c-5-12-10.1-24.1-20.2-24.1H20.9 c9.3,0,14.4,11.3,19,24.1c4.7,11.6,10.5,24.1,19,24.1C58.9,319.7,62.8,319.7,62.8,319.7z"/>
    <linearGradient id="SVGID_4_" gradientUnits="userSpaceOnUse" x1="25" y1="587.28" x2="25" y2="571.28" gradientTransform="matrix(3.8797 0 0 3.8797 -4.3195 -1960.3451)">
        <stop  offset="0"             style="stop-color:#6C8896"/>
        <stop  offset="8.691043e-004" style="stop-color:#6D8897"/>
        <stop  offset="4.922779e-002" style="stop-color:#8FA7B3"/>
        <stop  offset="9.784003e-002" style="stop-color:#AEC0CA"/>
        <stop  offset="0.1462"        style="stop-color:#C5D3DA"/>
        <stop  offset="0.1943"        style="stop-color:#D3DEE4"/>
        <stop  offset="0.2418"        style="stop-color:#D8E2E7"/>
        <stop  offset="0.3224"        style="stop-color:#C9D6DD"/>
        <stop  offset="0.4704"        style="stop-color:#A3B8C3"/>
        <stop  offset="0.6692"        style="stop-color:#6E8997"/>
        <stop  offset="0.9089"        style="stop-color:#2F4F5E"/>
        <stop  offset="1"             style="stop-color:#113442"/>
    </linearGradient>
    <path fill="url(#SVGID_4_)" d="M80.3,319.7c10.9,0,18.2-19.8,23.3-31.8c7.4-17.1,14.4-31.8,23.3-31.8h-21.7 c-8.9,0-15.9,15.1-23.3,31.8c-5,12-12.4,31.8-23.3,31.8H80.3z"/>

    <path fill="#D71920" d="M186.2,320.4h-15.9c0-1.9-1.6-7.8-4.7-17.1h-22.9c-3.1,9.3-4.7,15.1-4.7,17.1h-12.8c-1.2,0-1.9-1.2-1.6-1.9 c1.2-3.9,5-13.2,10.9-27.5c7.8-18.6,11.6-28.7,11.6-30.6h18.6c0,1.9,3.5,11.6,10.5,30.3C182.7,308.8,186.2,318.9,186.2,320.4z M163.3,294.4c-5.8-15.9-8.5-24.4-8.5-25.6H154c0,1.2-3.1,9.7-8.9,25.6H163.3z"/>
    <path fill="#D71920" d="M238.2,302.6c0,12.4-10.9,18.2-32.2,18.2c-3.9,0-9.7,0-17.5-0.4c0.4-9.3,0.8-19.8,0.8-31.4 c0-11.3-0.4-20.6-0.8-28.7h8.1c1.6,0,3.9,0,7.8,0c3.5,0,6.2,0,8.5,0c14.7,0,22.1,4.3,22.1,13.2c0,7-3.9,11.3-11.3,13.6v0.8 c3.9,0.8,7.4,1.9,10.5,4.3C236.6,294.4,238.2,297.9,238.2,302.6z M221.1,277c0-5.4-3.9-8.1-11.3-8.1c-3.5,0-6.6,0.4-8.9,0.8 c0.4,3.1,0.4,8.5,0.4,15.9c1.2,0,2.7,0,3.9,0C216,285.5,221.1,282.8,221.1,277z M225,303c0-6.2-5.8-9.3-17.5-9.3 c-2.3,0-4.3,0-5.8,0.4c0,6.6,0,12.4,0.4,17.8c1.2,0.4,2.7,0.4,5,0.4c6.2,0,10.5-0.8,13.6-1.9C223.4,308.8,225,306.5,225,303z"/>
    <path fill="#3E484F" d="M320,320.4h-9.3c-0.8,0-1.6-0.8-1.6-1.6c0-7.4-0.4-31.8-0.4-33.4H308c-0.8,2.3-8.9,25.2-12,34.9h-9.3 c0,0-3.1-9.3-5.8-16.7s-5-12.8-6.6-18.2h-0.8c0,1.9,0,7.8-0.4,16.7c-0.4,8.9-0.4,15.1-0.4,18.2h-11.3c0-0.8,3.1-43.8,3.1-43.8H282 c0,3.5,10.5,33.8,10.5,33.8h0.4c0.8-1.6,9.7-29.9,10.5-33.8h17.8l1.6,42.3C322,319.7,321.2,320.4,320,320.4z"/>
    <path fill="#3E484F" d="M373.2,294.1c0,1.6,0,3.5-0.4,6.2l-31.8,0.4c0.4,3.5,1.9,6.2,4.7,8.5c2.7,2.3,6.2,3.5,10.9,3.5 c5,0,10.1-0.8,15.9-1.9l-1.2,8.9c-4.7,1.6-10.1,2.3-17.1,2.3c-8.5,0-15.1-2.3-19.8-6.6c-4.7-4.7-7-9.7-7-16.3s2.3-12.4,6.6-17.1 s10.5-7.4,17.8-7.4c7,0,12,1.9,15.5,5.4C371.2,283.6,373.2,288.2,373.2,294.1z M361.5,293.3c0-7-3.1-10.5-9.7-10.5 c-6.2,0-9.7,3.5-10.9,10.9L361.5,293.3z"/>
    <path fill="#3E484F" d="M419.7,276.6l-0.4,9.3c-4.7-0.4-9.7-0.8-14.4-0.8c0,3.9,0,25.2,0.4,33.8c0,0.8-0.8,1.6-1.6,1.6h-9.7 c-0.8,0-1.6-0.8-1.6-1.6c0.4-8.1,0.4-29.5,0.4-33.8c-4.7,0-9.7,0.4-15.1,0.8l0.4-9.3C378.2,276.6,419.7,276.6,419.7,276.6z"/>
    <path fill="#3E484F" d="M467.1,320.4l-11.6,0.4c-0.4-1.2-0.8-2.3-0.8-3.5h-0.8c-3.5,2.7-8.5,4.3-14.7,4.3c-4.3,0-7.4-1.2-10.5-3.1 c-2.7-2.3-4.3-5-4.3-8.5c0-4.7,1.9-8.5,6.2-11.6c4.3-3.1,11.6-4.7,22.5-4.7c0-0.4,0-1.2,0-1.6c0-3.5-0.8-5.4-2.7-6.6 c-1.6-1.2-5-1.6-9.3-1.6c-5,0-9.7,0.8-14.7,1.9l1.2-8.5c4.7-1.6,10.9-2.3,19-2.3c5.8,0,10.5,1.2,14,3.5c3.1,2.3,5,6.6,5,12.4 c0,1.2,0,3.5,0,7c0,3.5,0,5.8,0,7C465.5,311.1,465.9,316.6,467.1,320.4z M453.9,310.7c0-4.3-0.4-7.8-0.4-10.9 c-11.3,0-17.1,2.7-17.1,8.1c0,3.5,2.3,5.4,7.4,5.4C448.1,313.5,451.2,312.7,453.9,310.7z"/>
    <path fill="#3E484F" d="M471.3,320.4c1.2-2.7,3.5-9.3,8.9-22.1c5.4-12.8,8.9-20.2,9.7-22.1h12.8c0.4,1.9,3.1,9.3,7.8,22.5 c3.9,10.1,6.2,16.3,7,19.4c0.4,1.2-0.4,1.9-1.6,1.9h-12c-0.4-1.6-1.9-6.2-5-15.9c-3.1-9.3-4.3-14.4-5-16.3h-0.8 c-0.4,1.6-2.3,6.6-5,15.5c-2.7,8.9-4.3,14.4-4.7,17.1H471.3z"/>
    <path fill="#3E484F" d="M522.2,320.4c1.2-2.7,3.5-9.3,8.9-22.1c5.4-12.8,8.9-20.2,9.7-22.1h12.8c0.4,1.9,3.1,9.3,7.8,22.5 c3.9,10.1,6.2,16.3,7,19.4c0.4,1.2-0.4,1.9-1.6,1.9h-12c-0.4-1.6-1.9-6.2-5-15.9c-3.1-9.3-4.3-14.4-5-16.3h-0.8 c-0.4,1.6-2.3,6.6-5,15.5s-4.3,14.4-4.7,17.1H522.2z"/>
    <path fill="#3E484F" d="M630,276.6l-0.4,9.7c-2.3-0.4-9.7-0.4-22.1-0.8c0,5.4,0.4,25.2,0.8,33.4c0,0.8-0.8,1.6-1.6,1.6H597 c-0.8,0-1.6-0.8-1.6-1.6c0.4-8.9,0.4-36.1,0-42.3H630z"/>
    <path fill="#3E484F" d="M785.6,276.6h-44.2c0.4,5.8,0.4,33.4,0,42.3c0,0.8,0.8,1.6,1.6,1.6h9.7c0.8,0,1.6-0.8,1.6-1.6 c-0.4-7.8-0.8-27.5-0.8-33.4c9.7,0.4,16.3,0.4,19.8,0.8c0.4,10.9,0,26.4-0.4,32.6c0,0.8,0.8,1.6,1.6,1.6h8.9c0.8,0,1.6-0.8,1.6-1.6 C785.2,312.3,786,291.7,785.6,276.6z"/>
    <path fill="#3E484F" d="M841.5,276.6h-44.2c0.4,5.8,0.4,33.4,0,42.3c0,0.8,0.8,1.6,1.6,1.6h9.7c0.8,0,1.6-0.8,1.6-1.6 c-0.4-7.8-0.8-27.5-0.8-33.4c9.7,0.4,16.3,0.4,19.8,0.8c0.4,10.9,0,26.4-0.4,32.6c0,0.8,0.8,1.6,1.6,1.6h8.9c0.8,0,1.6-0.8,1.6-1.6 C841.1,312.3,841.8,291.7,841.5,276.6z"/>
    <path fill="#3E484F" d="M687,296.8c0,6.6-1.9,12.4-6.2,17.5c-4.3,5-9.7,7.8-16.7,7.8c-5.4,0-8.9-1.2-10.9-3.1l-0.8-0.4l0.4,23.3 h-13.6c0,0,0-19.4,0-30.6c0-15.1-0.4-26.8-1.9-33.8l12.8-1.2l0.8,4.3l1.2-0.8c3.5-3.1,8.1-4.3,14-4.3c6.2,0,11.3,1.9,15.1,6.2 C685.1,285.9,687,291,687,296.8z M673.8,297.9c0-5.8-2.3-10.5-7-14c-6.6-1.2-11.3,0-14.4,2.7c-0.4,0.4-0.4,0.8-0.4,1.2 c0.4,7.4,0.4,16.3,0.8,23.3c1.9,1.6,4.7,2.3,8.1,2.3c4.3,0,7.8-1.6,9.7-4.7C672.7,305.7,673.8,302.2,673.8,297.9z"/>
    <path fill="#3E484F" d="M734,276.6c0,0-14.4,38.8-16.3,44.2c-2.7,7.4-5.8,12.8-9.3,15.9c-3.5,2.7-8.9,4.3-15.9,4.3l-1.2-8.9 c4.3,0,7.4-1.2,10.1-3.1c2.7-2.3,3.9-5,3.9-8.5c0-3.5-2.3-11.6-8.5-24.1c-5.8-12.4-8.9-19-8.9-19.4h12.8l11.3,33 c0,0,8.5-30.6,8.5-33C721.2,276.6,734,276.6,734,276.6z"/>
</svg>