<svg xmlns="http://www.w3.org/2000/svg" viewBox="0 0 512 512">
	<path fill="#B6BDC3" d="M217,411.8c-27.6,0-50.1,22.5-50.1,50.1c0,27.6,22.5,50.1,50.1,50.1s50.1-22.5,50.1-50.1 C267.1,434.3,244.7,411.8,217,411.8z M217,478.6c-9.2,0-16.7-7.5-16.7-16.7s7.5-16.7,16.7-16.7s16.7,7.5,16.7,16.7 S226.3,478.6,217,478.6z"/>
	<path fill="#B6BDC3" d="M406.3,411.8c-27.6,0-50.1,22.5-50.1,50.1c0,27.6,22.5,50.1,50.1,50.1c27.6,0,50.1-22.5,50.1-50.1 C456.3,434.3,433.9,411.8,406.3,411.8z M406.3,478.6c-9.2,0-16.7-7.5-16.7-16.7s7.5-16.7,16.7-16.7c9.2,0,16.7,7.5,16.7,16.7 S415.5,478.6,406.3,478.6z"/>
	<path fill="#B6BDC3" d="M478.4,297.7l33.4-200.3c0.8-4.8-0.6-9.8-3.7-13.5c-3.2-3.7-7.8-5.9-12.7-5.9H123.5L111,13.5 C109.5,5.7,102.6,0,94.6,0H16.7C7.5,0,0,7.5,0,16.7s7.5,16.7,16.7,16.7h64.1l12.4,64.3c0,0,0,0.1,0,0.1l31.9,164.8L145,364.9 c1.5,7.8,8.4,13.5,16.4,13.5h300.5c9.2,0,16.7-7.5,16.7-16.7s-7.5-16.7-16.7-16.7H175.2l-6.5-33.4h293.2 C470.1,311.7,477,305.7,478.4,297.7z M222.6,228.2c0,9.2-7.5,16.7-16.7,16.7s-16.7-7.5-16.7-16.7v-66.8c0-9.2,7.5-16.7,16.7-16.7 s16.7,7.5,16.7,16.7V228.2z M322.8,228.2c0,9.2-7.5,16.7-16.7,16.7s-16.7-7.5-16.7-16.7v-66.8c0-9.2,7.5-16.7,16.7-16.7 s16.7,7.5,16.7,16.7L322.8,228.2L322.8,228.2z M423,228.2c0,9.2-7.5,16.7-16.7,16.7s-16.7-7.5-16.7-16.7v-66.8 c0-9.2,7.5-16.7,16.7-16.7c9.2,0,16.7,7.5,16.7,16.7L423,228.2L423,228.2z"/>
</svg>