<svg xmlns="http://www.w3.org/2000/svg" viewBox="0 0 841.9 595.3">
    <linearGradient id="SVGID_1_" gradientUnits="userSpaceOnUse" x1="37.55" y1="545.28" x2="37.55" y2="582.28" gradientTransform="matrix(6.7351 0 0 -6.7351 0 4057.7231)">
        <stop  offset="0"             style="stop-color:#6C8896"/>
        <stop  offset="1.926647e-003" style="stop-color:#6D8997"/>
        <stop  offset="7.733236e-002" style="stop-color:#97ADB9"/>
        <stop  offset="0.1451"        style="stop-color:#B9CAD3"/>
        <stop  offset="0.2022"        style="stop-color:#D0DBE2"/>
        <stop  offset="0.2418"        style="stop-color:#D8E2E7"/>
        <stop  offset="0.3224"        style="stop-color:#C9D6DD"/>
        <stop  offset="0.4704"        style="stop-color:#A3B8C3"/>
        <stop  offset="0.6692"        style="stop-color:#6E8997"/>
        <stop  offset="0.9089"        style="stop-color:#2F4F5E"/>
        <stop  offset="1"             style="stop-color:#113442"/>
    </linearGradient>
    <path fill="url(#SVGID_1_)" d="M247.9,137.3c-45.1,0-81.5,55.9-81.5,125.3s36.4,125.3,81.5,125.3l17.5-0.7c18.9,0,46.5-4.7,35-14.1 c-24.9-20.2-41.1-59.3-41.1-103.7c0-65.3,35.7-118.5,80.1-118.5L258.6,138L247.9,137.3z"/>
    <linearGradient id="SVGID_2_" gradientUnits="userSpaceOnUse" x1="50.05" y1="561.28" x2="50.05" y2="545.28" gradientTransform="matrix(6.7351 0 0 -6.7351 0 4057.7231)">
        <stop  offset="0"      style="stop-color:#ED1C24"/>
        <stop  offset="0.3736" style="stop-color:#ED1C24"/>
        <stop  offset="0.4467" style="stop-color:#E51C23"/>
        <stop  offset="0.5449" style="stop-color:#D61A21"/>
        <stop  offset="0.6573" style="stop-color:#BE171D"/>
        <stop  offset="0.7804" style="stop-color:#9F0F13"/>
        <stop  offset="0.9106" style="stop-color:#7A0101"/>
        <stop  offset="1"      style="stop-color:#5E0000"/>
    </linearGradient>
    <path fill="url(#SVGID_2_)" d="M247.9,387.9c41.1,0,79.5-44.5,76.8-107.8h101.7c0,66-46.5,107.8-90.3,107.8H247.9z"/>
    <linearGradient id="SVGID_3_" gradientUnits="userSpaceOnUse" x1="58.8745" y1="582.28" x2="58.8745" y2="545.28" gradientTransform="matrix(6.7351 0 0 -6.7351 0 4057.7231)">
        <stop  offset="0"             style="stop-color:#B5191E"/>
        <stop  offset="2.278189e-002" style="stop-color:#C91B21"/>
        <stop  offset="4.952808e-002" style="stop-color:#DB1C23"/>
        <stop  offset="7.885586e-002" style="stop-color:#E71C24"/>
        <stop  offset="0.1154"        style="stop-color:#ED1C24"/>
        <stop  offset="0.1871"        style="stop-color:#F05139"/>
        <stop  offset="0.2455"        style="stop-color:#F2684B"/>
        <stop  offset="0.2802"        style="stop-color:#F37053"/>
        <stop  offset="0.3389"        style="stop-color:#F15F43"/>
        <stop  offset="0.4588"        style="stop-color:#EE2325"/>
        <stop  offset="0.467"         style="stop-color:#ED1C24"/>
        <stop  offset="0.5282"        style="stop-color:#E01B23"/>
        <stop  offset="0.6371"        style="stop-color:#C6181E"/>
        <stop  offset="0.7811"        style="stop-color:#9E0F13"/>
        <stop  offset="0.9528"        style="stop-color:#6C0000"/>
        <stop  offset="1"            style="stop-color:#5E0000"/>
    </linearGradient>
    <path fill="url(#SVGID_3_)" d="M472.1,387.9l51.9-4c19.5,0,27.6-2,15.5-11.4c-27.6-22.2-49.2-66.7-67.4-109.8 c-26.9-64.7-53.9-125.3-107.8-125.3H247.9c50.5,0,76.1,60.6,101.7,125.3c24.9,62,56.6,125.3,101,125.3H472.1z"/>
    <linearGradient id="SVGID_4_" gradientUnits="userSpaceOnUse" x1="93.7" y1="545.28" x2="93.7" y2="594.8618" gradientTransform="matrix(6.7351 0 0 -6.7351 0 4057.7231)">
        <stop  offset="0"             style="stop-color:#6C8896"/>
        <stop  offset="8.691043e-004" style="stop-color:#6D8897"/>
        <stop  offset="4.922779e-002" style="stop-color:#8FA7B3"/>
        <stop  offset="9.784003e-002" style="stop-color:#AEC0CA"/>
        <stop  offset="0.1462"        style="stop-color:#C5D3DA"/>
        <stop  offset="0.1943"        style="stop-color:#D3DEE4"/>
        <stop  offset="0.2418"        style="stop-color:#D8E2E7"/>
        <stop  offset="0.3224"        style="stop-color:#C9D6DD"/>
        <stop  offset="0.4704"        style="stop-color:#A3B8C3"/>
        <stop  offset="0.6692"        style="stop-color:#6E8997"/>
        <stop  offset="0.9089"        style="stop-color:#2F4F5E"/>
        <stop  offset="1"             style="stop-color:#113442"/>
    </linearGradient>
    <path fill="url(#SVGID_4_)" d="M563.1,387.9c57.9,0,97-104.4,124.6-168.4c39.1-88.9,76.1-168.4,124.6-168.4H696.4 c-48.5,0-84.9,78.8-123.3,168.4c-27.6,64-66.7,168.4-123.3,168.4H563.1z"/>

    <path fill="#D71920" d="M137.1,520.6h-18.2c0-2.7-2-9.4-5.4-20.9H86.6c-3.4,10.8-5.4,18.2-5.4,20.9H63.7c0-1.3,4.7-13.5,13.5-35.7 s13.5-35,13.5-37h21.6c0,2,4,14.1,12.1,36.4C133.1,506.4,137.1,518.6,137.1,520.6z M110.2,488.9c-6.7-19.5-10.1-29.6-10.1-31h-0.7 c0,1.3-3.4,12.1-10.1,31H110.2z"/>
    <path fill="#D71920" d="M197.7,498.3c0,14.8-12.8,22.2-37.7,22.2c-4,0-11.4,0-20.2-0.7c0.7-11.4,0.7-24.2,0.7-38.4 c0-13.5,0-24.9-0.7-35h9.4c2,0,4.7,0,8.8,0s7.4,0,10.1,0c16.8,0,25.6,5.4,25.6,16.2c0,8.1-4,13.5-12.8,16.2v0.7 c4.7,0.7,8.8,2.7,12.1,5.4C196.4,488.9,197.7,493,197.7,498.3z M178.2,468c0-6.7-4-10.1-12.8-10.1c-4,0-7.4,0-10.8,0.7 c0.7,4,0.7,10.1,0.7,19.5c1.3,0,2.7,0,4.7,0C172.1,478.1,178.2,474.8,178.2,468z M182.2,499c0-7.4-6.7-11.4-20.2-11.4 c-2.7,0-4.7,0-6.7,0c0,8.1,0,14.8,0.7,21.6c1.3,0,3.4,0.7,6.1,0.7c7.4,0,12.1-0.7,15.5-2.7C180.9,505.8,182.2,503.1,182.2,499z"/>
    <path fill="#3E484F" d="M295.4,520.6h-14.8c0-6.1,0-39.7,0-42.4h-1.3c-0.7,2.7-10.8,31-14.1,42.4h-10.8c0,0-4-11.4-6.7-20.2 c-3.4-8.8-6.1-15.5-7.4-22.2h-0.7c0,2.7,0,9.4-0.7,20.2c-0.7,10.8-0.7,18.2-0.7,22.2h-13.5c0-1.3,3.4-53.2,3.4-53.2h20.2 c0,4,12.1,41.1,12.1,41.1h0.7c0.7-2,11.4-36.4,12.1-41.1H294L295.4,520.6z"/>
    <path fill="#3E484F" d="M354.7,488.2c0,2,0,4.7-0.7,7.4l-37,0.7c0.7,4,2.7,7.4,5.4,10.8c3.4,2.7,7.4,4,12.8,4 c6.1,0,12.1-0.7,18.2-2.7l-1.3,10.8c-5.4,2-12.1,2.7-19.5,2.7c-10.1,0-17.5-2.7-22.9-8.1c-5.4-5.4-8.1-12.1-8.1-19.5 c0-8.1,2.7-14.8,7.4-20.9c4.7-6.1,12.1-8.8,20.9-8.8c8.1,0,14.1,2,18.2,6.7C352.6,475.4,354.7,481.5,354.7,488.2z M341.2,487.6 c0-8.8-4-12.8-11.4-12.8s-11.4,4.7-12.8,13.5L341.2,487.6z"/>
    <path fill="#3E484F" d="M408.5,467.4l-0.7,11.4c-5.4-0.7-11.4-0.7-16.8-0.7c0,5.4,0,35,0.7,42.4h-15.5c1.3-7.4,1.3-37,1.3-43.1 c-5.4,0-11.4,0-17.5,0.7l0.7-11.4h47.8V467.4z"/>
    <path fill="#3E484F" d="M464.4,520.6l-13.5,0.7c-0.7-1.3-0.7-2.7-0.7-4h-0.7c-4.7,2.7-10.8,4.7-18.2,4.7c-4.7,0-8.8-1.3-12.1-4 c-3.4-2.7-4.7-6.1-4.7-10.1c0-5.4,2.7-10.1,7.4-14.1c4.7-3.4,13.5-5.4,26.3-6.1c0-0.7,0-1.3,0-2c0-4-0.7-6.7-2.7-8.1 c-2-1.3-5.4-2-10.8-2c-6.1,0-11.4,0.7-16.8,2l1.3-10.1c5.4-2,12.8-2.7,22.2-2.7c6.7,0,12.1,1.3,16.2,4c4,2.7,5.4,8.1,5.4,14.8 c0,1.3,0,4.7,0,8.8c0,4,0,6.7,0,8.1C462.4,509.1,463.1,515.2,464.4,520.6z M448.9,508.4c0-4.7-0.7-9.4-0.7-12.8 c-12.8,0-19.5,3.4-19.5,9.4c0,4.7,2.7,6.7,8.8,6.7C442.2,511.8,445.6,511.1,448.9,508.4z"/>
    <path fill="#3E484F" d="M469.1,520.6c1.3-3.4,4-11.4,10.1-26.3c6.7-15.5,10.1-24.2,11.4-26.3h14.8c0.7,2,3.4,11.4,9.4,26.9 c6.1,16.2,8.8,24.2,9.4,26.3h-16.8c-0.7-2-2-7.4-5.4-19.5c-3.4-11.4-5.4-17.5-5.4-20.2h-0.7c-0.7,2-2.7,8.1-6.1,18.9 c-3.4,10.8-4.7,17.5-5.4,20.2H469.1z"/>
    <path fill="#3E484F" d="M610.7,467.4v12.1c-2.7,0-11.4-0.7-25.6-0.7c0,7.4,0.7,34.3,1.3,42.4h-16.2c0.7-7.4,0.7-45.1,0-53.2h40.4 V467.4z"/>
    <path fill="#3E484F" d="M791.9,467.4h-51.2c0.7,8.1,0.7,45.1,0,53.2h15.5c-0.7-7.4-1.3-35-1.3-42.4c11.4,0,18.9,0.7,22.9,0.7 c0,14.8,0,35.7-0.7,41.8h14.1C791.2,515.2,792.5,486.9,791.9,467.4z"/>
    <path fill="#3E484F" d="M676.7,491.6c0,8.1-2.7,15.5-7.4,21.6c-4.7,6.1-11.4,9.4-19.5,9.4c-6.1,0-10.1-1.3-12.8-4l-0.7-0.7l0.7,28.3 h-15.5c0,0,0-23.6,0-37c0-18.2-0.7-33-2-41.1l14.8-1.3l0.7,5.4l1.3-0.7c4-3.4,9.4-5.4,16.2-5.4c7.4,0,13.5,2.7,17.5,8.1 C674.7,478.1,676.7,484.2,676.7,491.6z M661.9,493c0-4.7-1.3-8.8-3.4-12.1c-2.7-3.4-6.1-5.4-10.1-5.4c-5.4,0-9.4,1.3-11.4,4.7 c0,9.4,0,20.2,0.7,29c2.7,2,5.4,2.7,9.4,2.7c5.4,0,8.8-2,11.4-5.4C660.5,502.4,661.9,498.3,661.9,493z"/>
    <path fill="#3E484F" d="M731.9,467.4c0,0-16.8,47.1-18.9,53.2c-3.4,8.8-6.7,15.5-10.8,19.5c-4,3.4-10.1,5.4-18.2,5.4l-1.3-10.8 c4.7,0,8.8-1.3,11.4-4c3.4-2.7,4.7-6.1,4.7-10.8c0-4.7-2.7-14.1-10.1-29c-6.7-14.8-10.1-22.9-10.1-23.6h14.8l13.5,39.7 c0,0,10.1-37,10.1-39.7L731.9,467.4L731.9,467.4z"/>
</svg>