<?xml version="1.0" encoding="utf-8"?>
<!-- Generator: Adobe Illustrator 17.1.0, SVG Export Plug-In . SVG Version: 6.00 Build 0)  -->
<!DOCTYPE svg PUBLIC "-//W3C//DTD SVG 1.1//EN" "http://www.w3.org/Graphics/SVG/1.1/DTD/svg11.dtd">
<svg version="1.1" id="Layer_1" xmlns="http://www.w3.org/2000/svg" xmlns:xlink="http://www.w3.org/1999/xlink" x="0px" y="0px"
	 viewBox="0 0 33 33" enable-background="new 0 0 33 33" xml:space="preserve">
<g id="Close">
	<path fill="#D81F2A" d="M20.4,16.6L32,4.9C33,3.9,33,2.1,32,1.1c-1.1-1.1-2.8-1.1-3.8,0L16.6,12.7L5,1.1C4,0,2.2,0,1.2,1.1
		c-1.1,1.1-1.1,2.8,0,3.9l11.5,11.6L1.2,28.2c-1.1,1.1-1.1,2.8,0,3.9c1.1,1.1,2.8,1.1,3.8,0l11.5-11.6l11.5,11.6
		c1.1,1.1,2.8,1.1,3.8,0c1.1-1.1,1.1-2.8,0-3.9L20.4,16.6z"/>
</g>
</svg>
