<?xml version="1.0" encoding="utf-8"?>
<!-- Generator: Adobe Illustrator 17.1.0, SVG Export Plug-In . SVG Version: 6.00 Build 0)  -->
<!DOCTYPE svg PUBLIC "-//W3C//DTD SVG 1.1//EN" "http://www.w3.org/Graphics/SVG/1.1/DTD/svg11.dtd">
<svg version="1.1" id="Layer_1" xmlns="http://www.w3.org/2000/svg" xmlns:xlink="http://www.w3.org/1999/xlink" x="0px" y="0px"
	 viewBox="0 0 50 50" enable-background="new 0 0 50 50" xml:space="preserve">
<path fill="#858585" d="M25.4,0.3c0.4,0.1,0.7,0.4,1,0.7c2.9,2.9,5.9,5.9,8.8,8.8c0.1,0.1,0.2,0.2,0.3,0.3c0.2,0.3,0.1,0.5-0.3,0.6
	c-0.1,0-0.3,0-0.4,0c-1.2,0-2.4,0-3.5,0c-0.7,0-1.4,0.4-1.4,1.4c0,2.2,0,4.3,0,6.5c0,0.8-0.6,1.4-1.4,1.4c-2.1,0-4.3,0-6.4,0
	c-0.9,0-1.4-0.5-1.4-1.4c0-2.2,0-4.4,0-6.5c0-0.7-0.3-1.2-0.9-1.3c-0.1,0-0.3,0-0.4,0c-1.3,0-2.5,0-3.8,0c-0.2,0-0.3,0-0.5-0.1
	c-0.2-0.1-0.3-0.3-0.2-0.5c0.1-0.1,0.1-0.2,0.2-0.3c3.1-3.1,6.1-6.1,9.2-9.2c0.2-0.2,0.5-0.3,0.7-0.4C25.2,0.3,25.3,0.3,25.4,0.3z"
	/>
<path fill="#858585" d="M25.1,50c-0.5-0.1-0.8-0.4-1.2-0.8c-2.3-2.3-4.6-4.6-6.9-6.9c-0.6-0.6-1.1-1.1-1.7-1.7
	c-0.2-0.2-0.4-0.3-0.2-0.6c0.1-0.3,0.4-0.3,0.6-0.3c1.2,0,2.4,0,3.6,0c0.9,0,1.4-0.5,1.4-1.4c0-2.3,0-4.6,0-6.9
	c0-0.9,0.5-1.3,1.3-1.3c2.2,0,4.4,0,6.5,0c0.7,0,1.3,0.6,1.3,1.3c0,2.3,0,4.7,0,7c0,0.4,0.1,0.8,0.4,1.1c0.2,0.2,0.5,0.4,0.9,0.4
	c1.2,0,2.3,0,3.5,0c0.1,0,0.3,0,0.4,0c0.3,0.1,0.3,0.3,0.2,0.5c-0.1,0.1-0.1,0.2-0.2,0.3c-3,3-6,6-9,9c-0.2,0.2-0.5,0.3-0.8,0.4
	C25.2,50,25.2,50,25.1,50z"/>
<path fill="#858585" d="M0.4,25c0.1-0.4,0.4-0.7,0.7-1c2.9-2.9,5.8-5.8,8.7-8.7c0.1-0.1,0.2-0.2,0.3-0.3c0.3-0.1,0.5-0.1,0.5,0.2
	c0,0.1,0,0.3,0,0.4c0,6.4,0,12.8,0,19.2c0,0.1,0,0.3-0.1,0.4c-0.1,0.2-0.2,0.3-0.4,0.2c-0.1-0.1-0.3-0.2-0.4-0.3c-3-3-6-6-9-9
	c-0.2-0.2-0.3-0.5-0.4-0.7C0.4,25.2,0.4,25.1,0.4,25z"/>
<path fill="#858585" d="M39.9,25.2c0-3.1,0-6.1,0-9.2c0-0.2,0-0.4,0.1-0.5c0.1-0.2,0.3-0.3,0.5-0.2c0.1,0.1,0.2,0.1,0.3,0.2
	c3,3,5.9,5.9,8.9,8.9c0.5,0.5,0.5,1.2,0.1,1.7c-0.1,0.1-0.1,0.1-0.2,0.2c-1.9,1.9-3.8,3.8-5.7,5.8c-1,1-2,2-3,3
	c-0.2,0.2-0.4,0.4-0.6,0.3c-0.3-0.1-0.2-0.4-0.2-0.6c0-1,0-2,0-3C39.9,29.4,39.9,27.3,39.9,25.2z"/>
</svg>
