<svg xmlns="http://www.w3.org/2000/svg" viewBox="0 0 841.9 595.3">
    <linearGradient id="SVGID_1_" gradientUnits="userSpaceOnUse" x1="37.55" y1="545.28" x2="37.55" y2="582.28" gradientTransform="matrix(6.7351 0 0 -6.7351 0 4057.7231)">
        <stop  offset="0"             style="stop-color:#6C8896"/>
        <stop  offset="1.926647e-003" style="stop-color:#6D8997"/>
        <stop  offset="7.733236e-002" style="stop-color:#97ADB9"/>
        <stop  offset="0.1451"        style="stop-color:#B9CAD3"/>
        <stop  offset="0.2022"        style="stop-color:#D0DBE2"/>
        <stop  offset="0.2418"        style="stop-color:#D8E2E7"/>
        <stop  offset="0.3224"        style="stop-color:#C9D6DD"/>
        <stop  offset="0.4704"        style="stop-color:#A3B8C3"/>
        <stop  offset="0.6692"        style="stop-color:#6E8997"/>
        <stop  offset="0.9089"        style="stop-color:#2F4F5E"/>
        <stop  offset="1"             style="stop-color:#113442"/>
    </linearGradient>
    <path fill="url(#SVGID_1_)" d="M247.9,137.3c-45.1,0-81.5,55.9-81.5,125.3s36.4,125.3,81.5,125.3l17.5-0.7c18.9,0,46.5-4.7,35-14.1 c-24.9-20.2-41.1-59.3-41.1-103.7c0-65.3,35.7-118.5,80.1-118.5L258.6,138L247.9,137.3z"/>
    <linearGradient id="SVGID_2_" gradientUnits="userSpaceOnUse" x1="50.05" y1="561.28" x2="50.05" y2="545.28" gradientTransform="matrix(6.7351 0 0 -6.7351 0 4057.7231)">
        <stop  offset="0"      style="stop-color:#ED1C24"/>
        <stop  offset="0.3736" style="stop-color:#ED1C24"/>
        <stop  offset="0.4467" style="stop-color:#E51C23"/>
        <stop  offset="0.5449" style="stop-color:#D61A21"/>
        <stop  offset="0.6573" style="stop-color:#BE171D"/>
        <stop  offset="0.7804" style="stop-color:#9F0F13"/>
        <stop  offset="0.9106" style="stop-color:#7A0101"/>
        <stop  offset="1"      style="stop-color:#5E0000"/>
    </linearGradient>
    <path fill="url(#SVGID_2_)" d="M247.9,387.9c41.1,0,79.5-44.5,76.8-107.8h101.7c0,66-46.5,107.8-90.3,107.8H247.9z"/>
    <linearGradient id="SVGID_3_" gradientUnits="userSpaceOnUse" x1="58.8745" y1="582.28" x2="58.8745" y2="545.28" gradientTransform="matrix(6.7351 0 0 -6.7351 0 4057.7231)">
        <stop  offset="0"             style="stop-color:#B5191E"/>
        <stop  offset="2.278189e-002" style="stop-color:#C91B21"/>
        <stop  offset="4.952808e-002" style="stop-color:#DB1C23"/>
        <stop  offset="7.885586e-002" style="stop-color:#E71C24"/>
        <stop  offset="0.1154"        style="stop-color:#ED1C24"/>
        <stop  offset="0.1871"        style="stop-color:#F05139"/>
        <stop  offset="0.2455"        style="stop-color:#F2684B"/>
        <stop  offset="0.2802"        style="stop-color:#F37053"/>
        <stop  offset="0.3389"        style="stop-color:#F15F43"/>
        <stop  offset="0.4588"        style="stop-color:#EE2325"/>
        <stop  offset="0.467"         style="stop-color:#ED1C24"/>
        <stop  offset="0.5282"        style="stop-color:#E01B23"/>
        <stop  offset="0.6371"        style="stop-color:#C6181E"/>
        <stop  offset="0.7811"        style="stop-color:#9E0F13"/>
        <stop  offset="0.9528"        style="stop-color:#6C0000"/>
        <stop  offset="1"             style="stop-color:#5E0000"/>
    </linearGradient>
    <path fill="url(#SVGID_3_)" d="M472.1,387.9l51.9-4c19.5,0,27.6-2,15.5-11.4c-27.6-22.2-49.2-66.7-67.4-109.8 c-26.9-64.7-53.9-125.3-107.8-125.3H247.9c50.5,0,76.1,60.6,101.7,125.3c24.9,62,56.6,125.3,101,125.3H472.1z"/>
    <linearGradient id="SVGID_4_" gradientUnits="userSpaceOnUse" x1="93.7" y1="545.28" x2="93.7" y2="594.8618" gradientTransform="matrix(6.7351 0 0 -6.7351 0 4057.7231)">
        <stop  offset="0"             style="stop-color:#6C8896"/>
        <stop  offset="8.691043e-004" style="stop-color:#6D8897"/>
        <stop  offset="4.922779e-002" style="stop-color:#8FA7B3"/>
        <stop  offset="9.784003e-002" style="stop-color:#AEC0CA"/>
        <stop  offset="0.1462"        style="stop-color:#C5D3DA"/>
        <stop  offset="0.1943"        style="stop-color:#D3DEE4"/>
        <stop  offset="0.2418"        style="stop-color:#D8E2E7"/>
        <stop  offset="0.3224"        style="stop-color:#C9D6DD"/>
        <stop  offset="0.4704"        style="stop-color:#A3B8C3"/>
        <stop  offset="0.6692"        style="stop-color:#6E8997"/>
        <stop  offset="0.9089"        style="stop-color:#2F4F5E"/>
        <stop  offset="1"             style="stop-color:#113442"/>
    </linearGradient>
    <path fill="url(#SVGID_4_)" d="M563.1,387.9c57.9,0,97-104.4,124.6-168.4c39.1-88.9,76.1-168.4,124.6-168.4H696.4 c-48.5,0-84.9,78.8-123.3,168.4c-27.6,64-66.7,168.4-123.3,168.4H563.1z"/>

    <path fill="#D71920" d="M101.8,520.6H84.9l-6.7-17.4H47.5l-6.3,17.4H24.8l29.9-76.7H71L101.8,520.6z M73.2,490.2l-10.6-28.5 l-10.4,28.5H73.2z"/>
    <path fill="#D71920" d="M121.6,520.6l-27.4-76.7H111l19.4,56.8l18.8-56.8h16.4l-27.5,76.7H121.6z"/>
    <path fill="#3E484F" d="M202.1,465h13.6v7.6c4.9-5.9,10.6-8.8,17.3-8.8c3.6,0,6.6,0.7,9.3,2.2c2.6,1.5,4.8,3.7,6.4,6.6 c2.4-3,5.1-5.2,7.9-6.6c2.8-1.5,5.8-2.2,9.1-2.2c4.1,0,7.5,0.8,10.4,2.5c2.8,1.7,4.9,4.1,6.3,7.3c1,2.4,1.5,6.2,1.5,11.5v35.5 h-14.7v-31.8c0-5.5-0.5-9.1-1.5-10.7c-1.4-2.1-3.5-3.1-6.3-3.1c-2.1,0-4,0.6-5.8,1.9c-1.8,1.3-3.1,3.1-3.9,5.5 c-0.8,2.4-1.2,6.3-1.2,11.5v26.7h-14.7v-30.5c0-5.4-0.3-8.9-0.8-10.5s-1.3-2.7-2.4-3.5c-1.1-0.8-2.6-1.2-4.5-1.2 c-2.3,0-4.3,0.6-6.1,1.8c-1.8,1.2-3.1,3-3.9,5.3c-0.8,2.3-1.2,6.1-1.2,11.5v27h-14.7V465z"/>
    <path fill="#3E484F" d="M330.7,502.9l14.7,2.5c-1.9,5.4-4.9,9.5-8.9,12.3c-4.1,2.8-9.2,4.2-15.3,4.2c-9.7,0-16.8-3.2-21.5-9.5 c-3.7-5.1-5.5-11.4-5.5-19.2c0-9.2,2.4-16.4,7.2-21.6c4.8-5.2,10.9-7.8,18.3-7.8c8.3,0,14.8,2.7,19.6,8.2 c4.8,5.5,7.1,13.8,6.9,25.1h-36.9c0.1,4.4,1.3,7.8,3.6,10.2c2.3,2.4,5.1,3.6,8.5,3.6c2.3,0,4.2-0.6,5.8-1.9 C328.8,507.7,329.9,505.7,330.7,502.9z M331.6,488c-0.1-4.3-1.2-7.5-3.3-9.7c-2.1-2.2-4.6-3.3-7.6-3.3c-3.2,0-5.9,1.2-8,3.5 c-2.1,2.3-3.1,5.5-3.1,9.5H331.6z"/>
    <path fill="#3E484F" d="M383.7,465v11.7h-10.1v22.4c0,4.5,0.1,7.2,0.3,7.9c0.2,0.8,0.6,1.4,1.3,1.9c0.7,0.5,1.5,0.7,2.5,0.7 c1.4,0,3.3-0.5,5.9-1.4l1.3,11.4c-3.4,1.5-7.3,2.2-11.6,2.2c-2.7,0-5-0.4-7.2-1.3c-2.1-0.9-3.7-2-4.7-3.5c-1-1.4-1.7-3.3-2.1-5.7 c-0.3-1.7-0.5-5.2-0.5-10.4v-24.2h-6.8V465h6.8v-11l14.8-8.6V465H383.7z"/>
    <path fill="#3E484F" d="M404.9,481.9l-13.3-2.4c1.5-5.4,4.1-9.4,7.7-11.9s9.1-3.9,16.3-3.9c6.6,0,11.4,0.8,14.7,2.3 c3.2,1.6,5.5,3.5,6.8,5.9s2,6.8,2,13.2l-0.2,17.2c0,4.9,0.2,8.5,0.7,10.8c0.5,2.3,1.4,4.8,2.6,7.5h-14.6c-0.4-1-0.9-2.4-1.4-4.3 c-0.2-0.9-0.4-1.4-0.5-1.7c-2.5,2.4-5.2,4.3-8.1,5.5c-2.9,1.2-5.9,1.8-9.2,1.8c-5.7,0-10.2-1.6-13.5-4.7s-4.9-7-4.9-11.8 c0-3.1,0.8-5.9,2.3-8.4c1.5-2.5,3.6-4.3,6.3-5.7c2.7-1.3,6.6-2.5,11.7-3.4c6.9-1.3,11.6-2.5,14.3-3.6v-1.5c0-2.8-0.7-4.8-2.1-6 c-1.4-1.2-4-1.8-7.9-1.8c-2.6,0-4.7,0.5-6.1,1.5S405.8,479.4,404.9,481.9z M424.6,493.9c-1.9,0.6-4.9,1.4-9,2.3 c-4.1,0.9-6.8,1.7-8,2.6c-1.9,1.4-2.9,3.1-2.9,5.2c0,2.1,0.8,3.8,2.3,5.3c1.5,1.5,3.5,2.3,5.9,2.3c2.7,0,5.2-0.9,7.6-2.6 c1.8-1.3,2.9-2.9,3.5-4.9c0.4-1.3,0.6-3.6,0.6-7.2V493.9z"/>
    <path fill="#3E484F" d="M453.5,520.6v-76.7h14.7v76.7H453.5z"/>
    <path fill="#3E484F" d="M511.7,524.2l16.8,2c0.3,2,0.9,3.3,1.9,4c1.4,1,3.6,1.6,6.6,1.6c3.8,0,6.7-0.6,8.6-1.7 c1.3-0.8,2.3-2,2.9-3.7c0.5-1.2,0.7-3.5,0.7-6.8v-8.1c-4.4,6-9.9,9-16.6,9c-7.5,0-13.4-3.2-17.7-9.5c-3.4-5-5.1-11.2-5.1-18.6 c0-9.3,2.2-16.4,6.7-21.4s10.1-7.4,16.7-7.4c6.9,0,12.5,3,17,9.1V465H564v49.9c0,6.6-0.5,11.5-1.6,14.7c-1.1,3.2-2.6,5.8-4.6,7.6 c-2,1.8-4.6,3.3-7.8,4.3c-3.3,1-7.4,1.6-12.4,1.6c-9.4,0-16.1-1.6-20-4.8c-3.9-3.2-5.9-7.3-5.9-12.3 C511.7,525.5,511.7,524.9,511.7,524.2z M524.9,491.6c0,5.9,1.1,10.2,3.4,13c2.3,2.7,5.1,4.1,8.5,4.1c3.6,0,6.6-1.4,9.1-4.2 c2.5-2.8,3.7-7,3.7-12.5c0-5.8-1.2-10-3.6-12.8s-5.4-4.2-9-4.2c-3.5,0-6.4,1.4-8.7,4.1C526,481.8,524.9,486,524.9,491.6z"/>
    <path fill="#3E484F" d="M592.7,520.6h-14.7V465h13.7v7.9c2.3-3.7,4.4-6.2,6.3-7.4c1.9-1.2,4-1.8,6.4-1.8c3.3,0,6.6,0.9,9.7,2.8 l-4.6,12.8c-2.5-1.6-4.8-2.4-6.9-2.4c-2.1,0-3.8,0.6-5.2,1.7c-1.4,1.1-2.6,3.2-3.4,6.2c-0.8,3-1.2,9.2-1.2,18.6V520.6z"/>
    <path fill="#3E484F" d="M616.9,492c0-4.9,1.2-9.6,3.6-14.2c2.4-4.6,5.8-8.1,10.2-10.5s9.3-3.6,14.8-3.6c8.4,0,15.3,2.7,20.7,8.2 c5.4,5.5,8.1,12.4,8.1,20.7c0,8.4-2.7,15.4-8.1,20.9c-5.4,5.5-12.3,8.3-20.5,8.3c-5.1,0-10-1.2-14.6-3.5 c-4.6-2.3-8.1-5.7-10.5-10.1C618.1,503.8,616.9,498.4,616.9,492z M632,492.8c0,5.5,1.3,9.7,3.9,12.7c2.6,2.9,5.8,4.4,9.7,4.4 c3.8,0,7.1-1.5,9.7-4.4c2.6-2.9,3.9-7.2,3.9-12.8c0-5.4-1.3-9.6-3.9-12.6c-2.6-2.9-5.8-4.4-9.7-4.4c-3.8,0-7.1,1.5-9.7,4.4 C633.3,483,632,487.3,632,492.8z"/>
    <path fill="#3E484F" d="M722.4,520.6v-8.3c-2,3-4.7,5.3-8,7c-3.3,1.7-6.8,2.6-10.4,2.6c-3.7,0-7.1-0.8-10.1-2.5 c-3-1.6-5.1-3.9-6.4-6.9c-1.3-3-2-7.1-2-12.3V465h14.7v25.5c0,7.8,0.3,12.6,0.8,14.4c0.5,1.8,1.5,3.2,3,4.2c1.4,1,3.2,1.5,5.4,1.5 c2.5,0,4.8-0.7,6.8-2.1c2-1.4,3.3-3.1,4.1-5.1c0.7-2,1.1-7,1.1-15V465H736v55.6H722.4z"/>
    <path fill="#3E484F" d="M750.9,465h13.7v8.2c1.8-2.8,4.2-5.1,7.2-6.8c3-1.7,6.4-2.6,10.1-2.6c6.5,0,11.9,2.5,16.4,7.6 s6.8,12.1,6.8,21.1c0,9.3-2.3,16.5-6.8,21.6s-10,7.7-16.5,7.7c-3.1,0-5.9-0.6-8.3-1.8c-2.5-1.2-5.1-3.3-7.9-6.3v28h-14.7V465z M765.4,491.8c0,6.2,1.2,10.9,3.7,13.8c2.5,3,5.5,4.5,9.1,4.5c3.4,0,6.3-1.4,8.5-4.1c2.3-2.7,3.4-7.2,3.4-13.5 c0-5.8-1.2-10.2-3.5-13c-2.3-2.8-5.2-4.2-8.7-4.2c-3.6,0-6.6,1.4-9,4.2C766.6,482.3,765.4,486.4,765.4,491.8z"/>
</svg>