<svg xmlns="http://www.w3.org/2000/svg" viewBox="0 245.3 841.9 109">
    <linearGradient id="SVGID_1_" gradientUnits="userSpaceOnUse" x1="6.8" y1="587.28" x2="6.8" y2="575.28" gradientTransform="matrix(3.8797 0 0 3.8797 -4.3195 -1960.3451)">
        <stop  offset="0"             style="stop-color:#6C8896"/>
        <stop  offset="1.926647e-003" style="stop-color:#6D8997"/>
        <stop  offset="7.733236e-002" style="stop-color:#97ADB9"/>
        <stop  offset="0.1451"        style="stop-color:#B9CAD3"/>
        <stop  offset="0.2022"        style="stop-color:#D0DBE2"/>
        <stop  offset="0.2418"        style="stop-color:#D8E2E7"/>
        <stop  offset="0.3224"        style="stop-color:#C9D6DD"/>
        <stop  offset="0.4704"        style="stop-color:#A3B8C3"/>
        <stop  offset="0.6692"        style="stop-color:#6E8997"/>
        <stop  offset="0.9089"        style="stop-color:#2F4F5E"/>
        <stop  offset="1"             style="stop-color:#113442"/>
    </linearGradient>
    <path fill="url(#SVGID_1_)" d="M20.9,272.3c-8.5,0-15.1,10.5-15.1,23.7c0,13.2,7,24.1,15.1,24.1h3.5c3.5,0,8.5-0.8,6.6-2.7 c-4.7-3.9-7.8-11.3-7.8-19.8c0-12.4,6.6-22.5,15.1-22.5l-15.5-2.7H20.9z"/>
    <linearGradient id="SVGID_2_" gradientUnits="userSpaceOnUse" x1="10.8" y1="582.28" x2="10.8" y2="587.28" gradientTransform="matrix(3.8797 0 0 3.8797 -4.3195 -1960.3451)">
        <stop  offset="0"      style="stop-color:#ED1C24"/>
        <stop  offset="0.3736" style="stop-color:#ED1C24"/>
        <stop  offset="0.4467" style="stop-color:#E51C23"/>
        <stop  offset="0.5449" style="stop-color:#D61A21"/>
        <stop  offset="0.6573" style="stop-color:#BE171D"/>
        <stop  offset="0.7804" style="stop-color:#9F0F13"/>
        <stop  offset="0.9106" style="stop-color:#7A0101"/>
        <stop  offset="1"      style="stop-color:#5E0000"/>
    </linearGradient>
    <path fill="url(#SVGID_2_)" d="M20.9,319.7c7.8,0,14.7-8.1,14.4-20.6h19c0,12.4-8.5,20.6-17.1,20.6H20.9z"/>
    <linearGradient id="SVGID_3_" gradientUnits="userSpaceOnUse" x1="13.6589" y1="575.28" x2="13.6589" y2="587.28" gradientTransform="matrix(3.8797 0 0 3.8797 -4.3195 -1960.3451)">
        <stop  offset="0"             style="stop-color:#B5191E"/>
        <stop  offset="2.278189e-002" style="stop-color:#C91B21"/>
        <stop  offset="4.952808e-002" style="stop-color:#DB1C23"/>
        <stop  offset="7.885586e-002" style="stop-color:#E71C24"/>
        <stop  offset="0.1154"        style="stop-color:#ED1C24"/>
        <stop  offset="0.1871"        style="stop-color:#F05139"/>
        <stop  offset="0.2455"        style="stop-color:#F2684B"/>
        <stop  offset="0.2802"        style="stop-color:#F37053"/>
        <stop  offset="0.3389"        style="stop-color:#F15F43"/>
        <stop  offset="0.4588"        style="stop-color:#EE2325"/>
        <stop  offset="0.467"         style="stop-color:#ED1C24"/>
        <stop  offset="0.5282"        style="stop-color:#E01B23"/>
        <stop  offset="0.6371"        style="stop-color:#C6181E"/>
        <stop  offset="0.7811"        style="stop-color:#9E0F13"/>
        <stop  offset="0.9528"        style="stop-color:#6C0000"/>
        <stop  offset="1"             style="stop-color:#5E0000"/>
    </linearGradient>
    <path fill="url(#SVGID_3_)" d="M62.8,319.7l9.7-0.8c3.5,0,5-0.4,3.1-2.3c-5-4.3-9.3-12.4-12.8-21c-5-12-10.1-24.1-20.2-24.1H20.9 c9.3,0,14.4,11.3,19,24.1c4.7,11.6,10.5,24.1,19,24.1C58.9,319.7,62.8,319.7,62.8,319.7z"/>
    <linearGradient id="SVGID_4_" gradientUnits="userSpaceOnUse" x1="25" y1="587.28" x2="25" y2="571.28" gradientTransform="matrix(3.8797 0 0 3.8797 -4.3195 -1960.3451)">
        <stop  offset="0"             style="stop-color:#6C8896"/>
        <stop  offset="8.691043e-004" style="stop-color:#6D8897"/>
        <stop  offset="4.922779e-002" style="stop-color:#8FA7B3"/>
        <stop  offset="9.784003e-002" style="stop-color:#AEC0CA"/>
        <stop  offset="0.1462"        style="stop-color:#C5D3DA"/>
        <stop  offset="0.1943"        style="stop-color:#D3DEE4"/>
        <stop  offset="0.2418"        style="stop-color:#D8E2E7"/>
        <stop  offset="0.3224"        style="stop-color:#C9D6DD"/>
        <stop  offset="0.4704"        style="stop-color:#A3B8C3"/>
        <stop  offset="0.6692"        style="stop-color:#6E8997"/>
        <stop  offset="0.9089"        style="stop-color:#2F4F5E"/>
        <stop  offset="1"             style="stop-color:#113442"/>
    </linearGradient>
    <path fill="url(#SVGID_4_)" d="M80.3,319.7c10.9,0,18.2-19.8,23.3-31.8c7.4-17.1,14.4-31.8,23.3-31.8h-21.7 c-8.9,0-15.9,15.1-23.3,31.8c-5,12-12.4,31.8-23.3,31.8H80.3z"/>

    <path fill="#D71920" d="M184.2,319.2h-12.9l-5.1-13.3h-23.5l-4.8,13.3h-12.6l22.9-58.7h12.5L184.2,319.2z M162.4,296l-8.1-21.8 l-7.9,21.8H162.4z"/>
    <path fill="#D71920" d="M199.4,319.2l-21-58.7h12.9l14.9,43.4l14.4-43.4H233l-21,58.7H199.4z"/>
    <path fill="#3E484F" d="M261,276.7h10.4v5.8c3.7-4.5,8.1-6.8,13.3-6.8c2.7,0,5.1,0.6,7.1,1.7c2,1.1,3.6,2.8,4.9,5.1 c1.9-2.3,3.9-4,6-5.1c2.2-1.1,4.5-1.7,6.9-1.7c3.1,0,5.8,0.6,7.9,1.9c2.2,1.3,3.8,3.1,4.8,5.6c0.8,1.8,1.2,4.8,1.2,8.8v27.2h-11.3 v-24.3c0-4.2-0.4-6.9-1.2-8.2c-1-1.6-2.6-2.4-4.8-2.4c-1.6,0-3.1,0.5-4.4,1.4c-1.4,1-2.4,2.4-3,4.2c-0.6,1.9-0.9,4.8-0.9,8.8v20.4 h-11.3v-23.3c0-4.1-0.2-6.8-0.6-8c-0.4-1.2-1-2.1-1.9-2.7c-0.8-0.6-2-0.9-3.4-0.9c-1.7,0-3.3,0.5-4.7,1.4c-1.4,0.9-2.4,2.3-3,4 c-0.6,1.8-0.9,4.7-0.9,8.8v20.7H261V276.7z"/>
    <path fill="#3E484F" d="M359.3,305.7l11.2,1.9c-1.4,4.1-3.7,7.2-6.8,9.4c-3.1,2.1-7,3.2-11.7,3.2c-7.4,0-12.9-2.4-16.4-7.2 c-2.8-3.9-4.2-8.8-4.2-14.7c0-7,1.8-12.6,5.5-16.6c3.7-4,8.3-6,14-6c6.3,0,11.3,2.1,15,6.3c3.7,4.2,5.4,10.6,5.2,19.2H343 c0.1,3.3,1,5.9,2.7,7.8c1.7,1.9,3.9,2.8,6.5,2.8c1.8,0,3.2-0.5,4.4-1.4C357.8,309.4,358.7,307.8,359.3,305.7z M360,294.3 c-0.1-3.3-0.9-5.7-2.5-7.4c-1.6-1.7-3.6-2.5-5.8-2.5c-2.5,0-4.5,0.9-6.1,2.7c-1.6,1.8-2.4,4.2-2.4,7.3H360z"/>
    <path fill="#3E484F" d="M399.8,276.7v9h-7.7v17.1c0,3.5,0.1,5.5,0.2,6.1c0.1,0.6,0.5,1,1,1.4c0.5,0.4,1.2,0.6,1.9,0.6 c1,0,2.5-0.4,4.5-1.1l1,8.7c-2.6,1.1-5.6,1.7-8.9,1.7c-2,0-3.9-0.3-5.5-1c-1.6-0.7-2.8-1.6-3.6-2.6c-0.8-1.1-1.3-2.5-1.6-4.4 c-0.2-1.3-0.4-4-0.4-7.9v-18.5h-5.2v-9h5.2v-8.4l11.3-6.6v15H399.8z"/>
    <path fill="#3E484F" d="M416,289.7l-10.2-1.8c1.1-4.1,3.1-7.2,5.9-9.1c2.8-2,7-3,12.5-3c5,0,8.8,0.6,11.2,1.8 c2.5,1.2,4.2,2.7,5.2,4.5s1.5,5.2,1.5,10.1l-0.1,13.1c0,3.7,0.2,6.5,0.5,8.3c0.4,1.8,1,3.7,2,5.7h-11.1c-0.3-0.7-0.7-1.9-1.1-3.3 c-0.2-0.7-0.3-1.1-0.4-1.3c-1.9,1.9-4,3.3-6.2,4.2c-2.2,0.9-4.5,1.4-7,1.4c-4.4,0-7.8-1.2-10.4-3.6s-3.8-5.4-3.8-9 c0-2.4,0.6-4.5,1.7-6.4c1.1-1.9,2.8-3.3,4.8-4.3c2.1-1,5.1-1.9,9-2.6c5.3-1,8.9-1.9,10.9-2.8v-1.1c0-2.2-0.5-3.7-1.6-4.6 c-1.1-0.9-3.1-1.4-6-1.4c-2,0-3.6,0.4-4.7,1.2C417.7,286.3,416.7,287.7,416,289.7z M431.1,298.8c-1.4,0.5-3.7,1.1-6.8,1.7 c-3.1,0.7-5.2,1.3-6.1,2c-1.5,1-2.2,2.4-2.2,4c0,1.6,0.6,2.9,1.8,4.1c1.2,1.1,2.7,1.7,4.5,1.7c2,0,4-0.7,5.8-2 c1.4-1,2.3-2.3,2.7-3.7c0.3-1,0.4-2.8,0.4-5.5V298.8z"/>
    <path fill="#3E484F" d="M453.3,319.2v-58.7h11.3v58.7H453.3z"/>
    <path fill="#3E484F" d="M497.8,322l12.9,1.6c0.2,1.5,0.7,2.5,1.5,3.1c1.1,0.8,2.7,1.2,5,1.2c2.9,0,5.1-0.4,6.6-1.3 c1-0.6,1.7-1.5,2.2-2.8c0.3-0.9,0.5-2.7,0.5-5.2v-6.2c-3.4,4.6-7.6,6.9-12.7,6.9c-5.7,0-10.2-2.4-13.6-7.2 c-2.6-3.8-3.9-8.6-3.9-14.3c0-7.1,1.7-12.6,5.1-16.3s7.7-5.6,12.8-5.6c5.3,0,9.6,2.3,13,6.9v-6h10.5v38.2c0,5-0.4,8.8-1.2,11.3 c-0.8,2.5-2,4.4-3.5,5.8c-1.5,1.4-3.5,2.5-6,3.3c-2.5,0.8-5.7,1.2-9.5,1.2c-7.2,0-12.3-1.2-15.3-3.7c-3-2.5-4.5-5.6-4.5-9.4 C497.7,323,497.8,322.6,497.8,322z M507.8,297.1c0,4.5,0.9,7.8,2.6,9.9c1.7,2.1,3.9,3.1,6.5,3.1c2.7,0,5.1-1.1,7-3.2 c1.9-2.1,2.8-5.3,2.8-9.6c0-4.4-0.9-7.7-2.7-9.8c-1.8-2.1-4.1-3.2-6.9-3.2c-2.7,0-4.9,1-6.7,3.1 C508.7,289.6,507.8,292.8,507.8,297.1z"/>
    <path fill="#3E484F" d="M559.7,319.2h-11.3v-42.5h10.5v6c1.8-2.9,3.4-4.7,4.8-5.6c1.4-0.9,3-1.4,4.9-1.4c2.6,0,5,0.7,7.4,2.1 l-3.5,9.8c-1.9-1.2-3.7-1.8-5.3-1.8c-1.6,0-2.9,0.4-4,1.3c-1.1,0.9-2,2.4-2.6,4.7c-0.6,2.3-0.9,7-0.9,14.3V319.2z"/>
    <path fill="#3E484F" d="M578.2,297.4c0-3.7,0.9-7.4,2.8-10.9c1.8-3.5,4.5-6.2,7.8-8c3.4-1.8,7.1-2.8,11.3-2.8 c6.4,0,11.7,2.1,15.8,6.3c4.1,4.2,6.2,9.5,6.2,15.8c0,6.4-2.1,11.8-6.2,16c-4.2,4.2-9.4,6.3-15.7,6.3c-3.9,0-7.6-0.9-11.2-2.6 c-3.5-1.8-6.2-4.3-8.1-7.7C579.2,306.4,578.2,302.3,578.2,297.4z M589.8,298c0,4.2,1,7.4,3,9.7c2,2.2,4.5,3.4,7.4,3.4 c2.9,0,5.4-1.1,7.4-3.4c2-2.2,3-5.5,3-9.8c0-4.2-1-7.4-3-9.6c-2-2.2-4.5-3.4-7.4-3.4c-2.9,0-5.4,1.1-7.4,3.4 C590.8,290.5,589.8,293.8,589.8,298z"/>
    <path fill="#3E484F" d="M658.9,319.2v-6.4c-1.5,2.3-3.6,4.1-6.1,5.4c-2.5,1.3-5.2,2-8,2c-2.9,0-5.4-0.6-7.7-1.9 c-2.3-1.3-3.9-3-4.9-5.3c-1-2.3-1.5-5.4-1.5-9.4v-26.9h11.3v19.5c0,6,0.2,9.6,0.6,11c0.4,1.3,1.2,2.4,2.3,3.2 c1.1,0.8,2.5,1.2,4.2,1.2c1.9,0,3.6-0.5,5.2-1.6c1.5-1.1,2.6-2.4,3.1-3.9c0.6-1.6,0.8-5.4,0.8-11.5v-17.9h11.3v42.5H658.9z"/>
    <path fill="#3E484F" d="M680.7,276.7h10.5v6.2c1.4-2.1,3.2-3.9,5.5-5.2c2.3-1.3,4.9-2,7.7-2c4.9,0,9.1,1.9,12.6,5.8 c3.4,3.9,5.2,9.3,5.2,16.2c0,7.1-1.7,12.6-5.2,16.6c-3.5,3.9-7.7,5.9-12.6,5.9c-2.3,0-4.5-0.5-6.4-1.4c-1.9-0.9-3.9-2.5-6-4.8v21.4 h-11.3V276.7z M691.8,297.3c0,4.8,0.9,8.3,2.8,10.6c1.9,2.3,4.2,3.4,6.9,3.4c2.6,0,4.8-1,6.5-3.1c1.7-2.1,2.6-5.5,2.6-10.3 c0-4.5-0.9-7.8-2.7-9.9c-1.8-2.2-4-3.2-6.6-3.2c-2.8,0-5,1.1-6.8,3.2C692.8,289.9,691.8,293.1,691.8,297.3z"/>
</svg>