<?xml version="1.0" encoding="utf-8"?>
<!-- Generator: Adobe Illustrator 17.1.0, SVG Export Plug-In . SVG Version: 6.00 Build 0)  -->
<!DOCTYPE svg PUBLIC "-//W3C//DTD SVG 1.1//EN" "http://www.w3.org/Graphics/SVG/1.1/DTD/svg11.dtd">
<svg version="1.1" id="Layer_1" xmlns="http://www.w3.org/2000/svg" xmlns:xlink="http://www.w3.org/1999/xlink" x="0px" y="0px"
	 viewBox="0 0 70.8 39.5" enable-background="new 0 0 70.8 39.5" xml:space="preserve">
<g>
	<g>
		<defs>
			<path id="SVGID_1_" d="M9.7,10.3C4.9,10.3,1,16.5,1,24.1c0,7.6,3.9,13.8,8.7,13.8l1.9-0.1c2,0,4.9-0.5,3.7-1.6
				c-2.6-2.2-4.4-6.5-4.4-11.4c0-7.2,3.8-13,8.6-13l-8.6-1.4L9.7,10.3L9.7,10.3z"/>
		</defs>
		<use xlink:href="#SVGID_1_"  overflow="visible" fill="#EA252E"/>
		<clipPath id="SVGID_2_">
			<use xlink:href="#SVGID_1_"  overflow="visible"/>
		</clipPath>
		<g display="none" clip-path="url(#SVGID_2_)">
			<defs>
				<rect id="SVGID_3_" x="1" y="10.3" width="18.5" height="27.5"/>
			</defs>
			<clipPath id="SVGID_4_" display="inline">
				<use xlink:href="#SVGID_3_"  overflow="visible"/>
			</clipPath>
			<g display="inline" clip-path="url(#SVGID_4_)">
				
					<image overflow="visible" width="44" height="62" xlink:href="4F03A0E4.png"  transform="matrix(0.48 0 0 -0.48 2.395630e-003 39.1951)">
				</image>
			</g>
		</g>
		<use xlink:href="#SVGID_1_"  overflow="visible" fill="none" stroke="#27434F" stroke-miterlimit="10"/>
	</g>
	<g>
		<defs>
			<path id="SVGID_5_" d="M9.7,37.8c4.4,0,8.5-4.9,8.2-11.9h10.8c0,7.3-5,11.9-9.7,11.9H9.7L9.7,37.8z"/>
		</defs>
		<use xlink:href="#SVGID_5_"  overflow="visible" fill="#EA252E"/>
		<clipPath id="SVGID_6_">
			<use xlink:href="#SVGID_5_"  overflow="visible"/>
		</clipPath>
		<g display="none" clip-path="url(#SVGID_6_)">
			<defs>
				<rect id="SVGID_7_" x="9.7" y="25.9" width="19" height="11.9"/>
			</defs>
			<clipPath id="SVGID_8_" display="inline">
				<use xlink:href="#SVGID_7_"  overflow="visible"/>
			</clipPath>
			<g display="inline" clip-path="url(#SVGID_8_)">
				
					<image overflow="visible" width="48" height="29" xlink:href="4F03A0E5.png"  transform="matrix(0.48 0 0 -0.48 8.5013 38.9408)">
				</image>
			</g>
		</g>
		<use xlink:href="#SVGID_5_"  overflow="visible" fill="none" stroke="#27434F" stroke-miterlimit="10"/>
	</g>
	<g>
		<defs>
			<path id="SVGID_9_" d="M33.7,37.8l5.5-0.4c2.1,0,2.9-0.2,1.7-1.3c-2.9-2.5-5.2-7.3-7.2-12.1c-2.9-7.1-5.8-13.8-11.5-13.8H9.7
				c5.4,0,8.1,6.7,10.9,13.8c2.6,6.8,6,13.8,10.7,13.8H33.7L33.7,37.8z"/>
		</defs>
		<use xlink:href="#SVGID_9_"  overflow="visible" fill="#EA252E"/>
		<clipPath id="SVGID_10_">
			<use xlink:href="#SVGID_9_"  overflow="visible"/>
		</clipPath>
		<g display="none" clip-path="url(#SVGID_10_)">
			<defs>
				<rect id="SVGID_11_" x="9.7" y="10.3" width="32.4" height="27.5"/>
			</defs>
			<clipPath id="SVGID_12_" display="inline">
				<use xlink:href="#SVGID_11_"  overflow="visible"/>
			</clipPath>
			<g display="inline" clip-path="url(#SVGID_12_)">
				
					<image overflow="visible" width="72" height="62" xlink:href="4F03A0E3.png"  transform="matrix(0.48 0 0 -0.48 8.6309 39.1951)">
				</image>
			</g>
		</g>
		<use xlink:href="#SVGID_9_"  overflow="visible" fill="none" stroke="#27434F" stroke-miterlimit="10"/>
	</g>
	<g>
		<defs>
			<path id="SVGID_13_" d="M43.4,37.8c6.1,0,10.3-11.5,13.3-18.5C60.9,9.5,64.8,0.8,70,0.8H57.7c-5.1,0-9,8.7-13.2,18.5
				c-3,7-7.1,18.5-13.2,18.5H43.4L43.4,37.8z"/>
		</defs>
		<use xlink:href="#SVGID_13_"  overflow="visible" fill="#EA252E"/>
		<clipPath id="SVGID_14_">
			<use xlink:href="#SVGID_13_"  overflow="visible"/>
		</clipPath>
		<g display="none" clip-path="url(#SVGID_14_)">
			<defs>
				<rect id="SVGID_15_" x="31.3" y="0.8" width="38.7" height="37"/>
			</defs>
			<clipPath id="SVGID_16_" display="inline">
				<use xlink:href="#SVGID_15_"  overflow="visible"/>
			</clipPath>
			<g display="inline" clip-path="url(#SVGID_16_)">
				
					<image overflow="visible" width="88" height="81" xlink:href="4F03A0EC.png"  transform="matrix(0.48 0 0 -0.48 30.1355 39.133)">
				</image>
			</g>
		</g>
		<use xlink:href="#SVGID_13_"  overflow="visible" fill="none" stroke="#27434F" stroke-miterlimit="10"/>
	</g>
</g>
</svg>
