<?xml version="1.0" encoding="utf-8"?>
<!-- Generator: Adobe Illustrator 17.1.0, SVG Export Plug-In . SVG Version: 6.00 Build 0)  -->
<!DOCTYPE svg PUBLIC "-//W3C//DTD SVG 1.1//EN" "http://www.w3.org/Graphics/SVG/1.1/DTD/svg11.dtd">
<svg version="1.1" id="Layer_1" xmlns="http://www.w3.org/2000/svg" xmlns:xlink="http://www.w3.org/1999/xlink" x="0px" y="0px"
	 viewBox="0 0 200 200" enable-background="new 0 0 200 200" xml:space="preserve">
<ellipse fill="none" stroke="#FF202A" stroke-width="3" stroke-miterlimit="10" cx="100.2" cy="100" rx="98.3" ry="98.2"/>
<g id="Shape_1">
	<g>
		<path fill="#FF202A" d="M123,107.9c0,2,1.9,3.6,4.2,3.6c2.3,0,4.2-1.6,4.2-3.6c0-2-1.9-3.6-4.2-3.6C124.8,104.4,123,106,123,107.9
			z M143.1,97.5V78.9c0-4.4-4.2-8.1-9.4-8.1h-6.4l-6.5-10.1c-1-1.5-2.9-2.5-4.9-2.5c-1,0-1.9,0.2-2.8,0.6l-25.1,12H59.8
			c-5.2,0-9.4,3.7-9.4,8.1v55.6c0,4.4,4.2,8.1,9.4,8.1h73.8c5.2,0,9.4-3.7,9.4-8.1v-16.3h4.7V97.5C147.8,97.5,143.1,97.5,143.1,97.5
			z M133.7,74c2.9,0,5.3,1.9,5.6,4.3h-7.1l-2.8-4.3H133.7z M114.8,61.6c0.9-0.4,2.1-0.2,2.5,0.6l10.4,16.1h-48L114.8,61.6z
			 M139.4,134.5c0,2.7-2.5,4.8-5.6,4.8H59.9c-3.1,0-5.6-2.1-5.6-4.8V78.9c0-2.7,2.5-4.8,5.6-4.8h21.3l-9,4.3H61
			c-1,0-1.9,0.7-1.9,1.6s0.9,1.6,1.9,1.6h78.3v16h-13.8c-6.4,0-11.7,4.4-11.7,10v0.7c0,5.5,5.2,10,11.7,10h13.8V134.5z M144,114.9
			h-18.6c-4.4,0-7.9-3-7.9-6.7v-0.7c0-3.7,3.5-6.7,7.9-6.7H144V114.9z"/>
	</g>
</g>
</svg>
