<?xml version="1.0" encoding="utf-8"?>
<!-- Generator: Adobe Illustrator 17.1.0, SVG Export Plug-In . SVG Version: 6.00 Build 0)  -->
<!DOCTYPE svg PUBLIC "-//W3C//DTD SVG 1.1//EN" "http://www.w3.org/Graphics/SVG/1.1/DTD/svg11.dtd">
<svg version="1.1" id="Layer_1" xmlns="http://www.w3.org/2000/svg" xmlns:xlink="http://www.w3.org/1999/xlink" x="0px" y="0px"
	 viewBox="0 0 196 196" enable-background="new 0 0 196 196" xml:space="preserve">
<ellipse fill="#ED1C24" stroke="#EFEFEF" stroke-width="2" stroke-miterlimit="10" cx="97.9" cy="98.1" rx="96.5" ry="96.7"/>
<g>
	<g>
		<path id="XMLID_2038_" fill="#FFFEFE" d="M99.2,64.1C99.2,64.1,99.2,64.1,99.2,64.1L99.2,64.1c10.5-0.1,9-12.7,9-12.7
			c-0.4-8.4-8.2-8.3-9-8.3c-0.8,0-8.5-0.1-9,8.3C90.2,51.3,88.7,63.9,99.2,64.1L99.2,64.1C99.1,64.1,99.1,64.1,99.2,64.1z"/>
		<path id="XMLID_2039_" fill="#FFFEFE" d="M99.2,79.7l6.7-8.4c0,0,4.7,1.7,8.6,4.3c1,0.7,1.5,1.1,2.4,1.9c2.1,1.9,1.2,13.1,0,17.3
			c-1.2,4.1-4.9,10-4.9,10c-0.7,1.5-1.2,3.1-1.4,4.7l-4.6,41.1c-0.2,1.3-1.4,2.3-2.8,2.3h-4h-4c-1.4,0-2.7-1-2.8-2.3l-4.6-41.1
			c-0.2-1.6-0.6-3.2-1.4-4.7c0,0-3.6-5.9-4.9-10c-1.2-4.1-2.1-15.3,0-17.3c0.9-0.8,1.4-1.2,2.4-1.9c3.9-2.6,8.6-4.3,8.6-4.3
			L99.2,79.7z"/>
		<path fill="#FFFEFE" d="M46.8,98.9c1.2,3.8,4.3,9,4.7,9.8c0.6,1.2,0.9,2.4,1.1,3.7l4.4,38.6c0.3,2.3,2.4,4.1,5,4.1h7.5
			c2.6,0,4.7-1.7,5-4.1l4.4-38.6c0.2-1.3,0.5-2.6,1.1-3.8c0.5-1.1,0-2.3-1.2-2.8c-1.2-0.5-2.6,0-3.1,1.1c-0.8,1.6-1.3,3.3-1.5,5.1
			l-4.4,38.6c0,0.1-0.2,0.3-0.3,0.3h-7.5c-0.2,0-0.3-0.1-0.3-0.3L57.2,112c-0.2-1.7-0.7-3.5-1.5-5.1c0-0.1-0.1-0.1-0.1-0.2
			c0,0-3.3-5.3-4.4-8.9c-1.2-4-1.5-12.7-0.5-14.2c0.8-0.7,1.1-1,1.9-1.5c2-1.4,4.4-2.4,5.9-3.1l5.2,6.5c0.4,0.5,1.1,0.9,1.9,0.9
			c0.7,0,1.4-0.3,1.9-0.9l6.3-7.9c0.7-0.9,0.5-2.3-0.5-3c-1-0.7-2.5-0.5-3.3,0.5l-4.4,5.5l-4.4-5.5c-0.6-0.8-1.8-1.1-2.8-0.7
			c-0.2,0.1-4.8,1.7-8.6,4.3c-1.1,0.7-1.6,1.2-2.5,2C44.1,83.7,45.9,96.1,46.8,98.9z"/>
		<path fill="#FFFEFE" d="M65.5,71.7c0.1,0,0.1,0,0.2,0c0,0,0.1,0,0.1,0c0.1,0,0.1,0,0.2,0c3-0.1,5.5-1,7.3-2.9
			c3.8-3.9,3.3-10.4,3.2-11.3c-0.4-7.2-5.9-9.7-10.6-9.7c-0.1,0-0.2,0-0.2,0c-0.1,0-0.1,0-0.2,0c-4.6,0-10.1,2.6-10.6,9.7
			c-0.1,0.8-0.6,7.3,3.2,11.3C59.9,70.6,62.5,71.6,65.5,71.7z M59.6,57.9c0,0,0-0.1,0-0.1c0.3-5,3.8-5.8,5.9-5.8h0.1
			c0.1,0,0.1,0,0.2,0h0.1c2.1,0,5.6,0.7,5.9,5.8c0,0,0,0.1,0,0.1c0.2,1.5,0.1,5.9-2.1,8.1c-1,1-2.3,1.5-4,1.5c0,0,0,0-0.1,0l0,0
			c-1.7,0-3-0.5-4-1.5C59.4,63.8,59.4,59.4,59.6,57.9z"/>
		<path fill="#FFFEFE" d="M119.7,105.8c-1.2,0.5-1.7,1.7-1.2,2.8c0.6,1.2,1,2.5,1.1,3.8L124,151c0.3,2.3,2.4,4.1,5,4.1h7.5
			c2.6,0,4.7-1.7,5-4.1l4.4-38.6c0.2-1.3,0.5-2.5,1.1-3.7c0.5-0.8,3.6-5.9,4.7-9.8c0.9-2.8,2.7-15.2-0.6-18.2
			c-0.9-0.8-1.4-1.3-2.5-2c-3.8-2.5-8.4-4.2-8.6-4.3c-1-0.4-2.1-0.1-2.8,0.7l-4.4,5.5l-4.5-5.5c-0.7-1-2.2-1.1-3.3-0.5
			c-1,0.7-1.3,2-0.5,3l6.3,7.9c0.4,0.5,1.1,0.9,1.9,0.9c0.7,0,1.4-0.3,1.9-0.9l5.2-6.5c1.5,0.7,3.9,1.7,5.9,3.1
			c0.8,0.5,1.1,0.8,1.9,1.5c1,1.5,0.6,10.2-0.5,14.2c-1.1,3.6-4.3,8.9-4.4,8.9c0,0-0.1,0.1-0.1,0.2c-0.8,1.6-1.3,3.3-1.5,5.1
			l-4.4,38.6c0,0.1-0.2,0.3-0.3,0.3h-7.5c-0.2,0-0.3-0.1-0.3-0.3l-4.4-38.6c-0.2-1.7-0.7-3.5-1.5-5.1
			C122.2,105.8,120.9,105.4,119.7,105.8z"/>
		<path fill="#FFFEFE" d="M132.4,71.7c0.1,0,0.1,0,0.2,0c0,0,0.1,0,0.1,0c0.1,0,0.1,0,0.2,0c3,0,5.5-1,7.4-2.9
			c3.8-3.9,3.3-10.4,3.2-11.3c-0.4-7.2-5.9-9.7-10.6-9.7c-0.1,0-0.2,0-0.2,0c-0.1,0-0.1,0-0.2,0c-4.6,0-10.1,2.6-10.6,9.7
			c-0.1,0.8-0.6,7.3,3.2,11.3C126.9,70.6,129.4,71.6,132.4,71.7z M126.6,57.9c0,0,0-0.1,0-0.1c0.3-5,3.8-5.8,5.9-5.8h0.1
			c0.1,0,0.1,0,0.2,0h0.1c2.1,0,5.6,0.7,5.9,5.8c0,0,0,0.1,0,0.1c0.2,1.5,0.1,5.9-2.1,8.1c-1,1-2.3,1.4-4,1.5l0,0c0,0,0,0-0.1,0
			c-1.7,0-3-0.5-4-1.5C126.4,63.8,126.4,59.4,126.6,57.9z"/>
		<path fill="#FFFEFE" d="M79.8,76c-3.5,3.1-1.5,16.3-0.6,19.3c1.2,4.1,4.5,9.6,5,10.4c0.6,1.3,1,2.6,1.2,4l4.6,41.1
			c0.3,2.4,2.5,4.2,5.2,4.2h8c2.7,0,4.9-1.8,5.2-4.2l4.6-41.1c0.2-1.4,0.5-2.7,1.2-4c0.5-0.8,3.8-6.3,5-10.4
			c0.9-3,2.9-16.2-0.6-19.3c-1-0.9-1.5-1.3-2.6-2.1c-4.1-2.7-8.9-4.5-9.1-4.6c-1-0.4-2.1-0.1-2.8,0.7l-4.9,6l-4.9-6
			c-0.6-0.8-1.8-1.1-2.8-0.7c-0.2,0.1-5.1,1.9-9.1,4.6C81.3,74.7,80.7,75.2,79.8,76z M83.1,79c0.9-0.8,1.2-1.1,2.1-1.6
			c2.2-1.5,4.8-2.7,6.5-3.4l5.6,7c0.4,0.5,1.1,0.9,1.9,0.9s1.4-0.3,1.9-0.9l5.6-7c1.6,0.7,4.2,1.9,6.5,3.4c0.9,0.6,1.2,0.9,2.1,1.6
			c1.1,1.6,0.7,10.9-0.6,15.2c-1.2,3.8-4.6,9.5-4.7,9.5c0,0-0.1,0.1-0.1,0.2c-0.8,1.7-1.4,3.5-1.6,5.4l-4.6,41.1
			c0,0.2-0.2,0.4-0.5,0.4h-8c-0.3,0-0.5-0.2-0.5-0.4L90,109.3c-0.2-1.8-0.7-3.7-1.6-5.4c0-0.1-0.1-0.1-0.1-0.2c0,0-3.5-5.7-4.7-9.5
			C82.4,89.9,82.1,80.5,83.1,79z"/>
		<path fill="#FFFEFE" d="M98.9,66.2c0.1,0,0.1,0,0.2,0c0,0,0.1,0,0.1,0c0.1,0,0.1,0,0.2,0c3.2,0,5.8-1.1,7.7-3.1
			c4.1-4.1,3.5-11.1,3.4-11.9c-0.4-7.6-6.2-10.3-11.1-10.3c-0.1,0-0.2,0-0.2,0c-0.1,0-0.1,0-0.2,0c-4.9,0-10.7,2.7-11.1,10.3
			c-0.1,0.8-0.7,7.8,3.4,11.9C93.2,65.1,95.8,66.1,98.9,66.2z M92.5,51.6c0,0,0-0.1,0-0.1c0.3-5.7,4.6-6.3,6.4-6.3h0.1
			c0.1,0,0.1,0,0.2,0h0.1c1.8,0,6.1,0.6,6.4,6.3c0,0,0,0.1,0,0.1c0.2,1.6,0.2,6.3-2.2,8.7c-1.1,1.1-2.5,1.6-4.4,1.6c0,0-0.1,0-0.1,0
			c-1.9,0-3.3-0.5-4.4-1.6C92.4,57.9,92.3,53.2,92.5,51.6z"/>
	</g>
</g>
</svg>
