<?xml version="1.0" encoding="utf-8"?>
<!-- Generator: Adobe Illustrator 17.1.0, SVG Export Plug-In . SVG Version: 6.00 Build 0)  -->
<!DOCTYPE svg PUBLIC "-//W3C//DTD SVG 1.1//EN" "http://www.w3.org/Graphics/SVG/1.1/DTD/svg11.dtd">
<svg version="1.1" id="Layer_1" xmlns="http://www.w3.org/2000/svg" xmlns:xlink="http://www.w3.org/1999/xlink" x="0px" y="0px"
	 viewBox="0 0 200 200" enable-background="new 0 0 200 200" xml:space="preserve">
<ellipse fill="none" stroke="#FF202A" stroke-width="3" stroke-miterlimit="10" cx="100.2" cy="100" rx="98.3" ry="98.2"/>
<g id="Shape_1" display="none">
	<g display="inline">
		<path fill="#ED2224" d="M127.1,104.4c-2.3,0-4.2,1.6-4.2,3.6c0,2,1.9,3.6,4.2,3.6c2.3,0,4.2-1.6,4.2-3.6
			C131.3,106,129.4,104.4,127.1,104.4z M143.1,97.5V78.9c0-4.4-4.2-8.1-9.4-8.1h-6.4l-6.5-10.1c-1-1.5-2.9-2.5-4.9-2.5
			c-1,0-1.9,0.2-2.8,0.6l-25.1,12H59.8c-5.2,0-9.4,3.7-9.4,8.1v55.6c0,4.4,4.2,8.1,9.4,8.1h73.8c5.2,0,9.4-3.7,9.4-8.1v-16.3h4.7
			V97.5C147.8,97.5,143.1,97.5,143.1,97.5z M133.7,74c2.9,0,5.3,1.9,5.6,4.3h-7.1l-2.8-4.3H133.7z M114.8,61.6
			c0.9-0.4,2.1-0.2,2.5,0.6l10.4,16.1h-48L114.8,61.6z M139.4,134.5c0,2.7-2.5,4.8-5.6,4.8H59.9c-3.1,0-5.6-2.1-5.6-4.8V78.9
			c0-2.7,2.5-4.8,5.6-4.8h21.3l-9,4.3H61c-1,0-1.9,0.7-1.9,1.6s0.9,1.6,1.9,1.6h4.2h69h5.1v16h-13.8c-6.4,0-11.7,4.4-11.7,10v0.7
			c0,5.5,5.2,10,11.7,10h13.8V134.5z M144,114.9h-1h-17.6c-4.4,0-7.9-3-7.9-6.7v-0.7c0-3.7,3.5-6.7,7.9-6.7h17.6h1V114.9z"/>
	</g>
</g>
<g>
	<path fill="#FF202A" d="M147.3,81.7V61.4h-37.5c-0.9,0-1.7,0.6-1.7,1.4s0.7,1.4,1.7,1.4h28.7l-7,6.2c-0.1,0.1-0.1,0.1-0.2,0.2
		c-0.1,0.1-0.2,0.2-0.2,0.2l-0.1,0.1c0,0.1,0,0.2-0.1,0.2c0,0.1-0.1,0.2-0.1,0.2v0.1v10.1H69v-10v-0.1c0-0.1,0-0.2-0.1-0.2
		c0-0.1,0-0.2-0.1-0.2L68.8,71c-0.1-0.1-0.1-0.2-0.2-0.2c-0.1-0.1-0.1-0.1-0.2-0.2l-6.9-6.3h28.7c0.9,0,1.7-0.6,1.7-1.4
		c0-0.8-0.7-1.4-1.7-1.4H52.7v20.2H51v53.7c0,3.8,3.5,6.8,7.7,6.8H141c4.3,0,7.7-3.1,7.7-6.8V81.6L147.3,81.7L147.3,81.7z M144,64.3
		v17.3h-0.8l-8.4-10l8.3-7.4L144,64.3L144,64.3z M134.2,75.9l4.9,5.8h-4.9V75.9z M60.9,81.7l4.9-5.8v5.8H60.9z M56,64.3h1l8.3,7.4
		l-8.4,10h-0.8L56,64.3L56,64.3z M145.6,135.4c0,2.1-2,4-4.4,4H58.8c-2.5,0-4.4-1.7-4.4-4V84.5h91.3V135.4z"/>
	<path fill="#FF202A" d="M119.5,93.2c-0.9,0-1.7,0.6-1.7,1.4v8.7c0,8.7-8,15.9-17.9,15.9S82,112,82,103.3v-8.7
		c0-0.8-0.7-1.4-1.7-1.4s-1.7,0.6-1.7,1.4v8.7c0,10.3,9.5,18.7,21.2,18.7s21.2-8.4,21.2-18.7v-8.7C121.2,93.8,120.5,93.2,119.5,93.2
		z"/>
	<path fill="#FF202A" d="M83.7,94.6c0,0.8,0.7,1.4,1.7,1.4c0.9,0,1.7-0.6,1.7-1.4c0-3.2-2.9-5.8-6.5-5.8S74,91.4,74,94.6
		c0,0.8,0.7,1.4,1.7,1.4s1.7-0.6,1.7-1.4c0-1.6,1.4-2.9,3.3-2.9C82.2,91.7,83.7,93,83.7,94.6z"/>
	<path fill="#FF202A" d="M119.5,88.8c-3.6,0-6.5,2.6-6.5,5.8c0,0.8,0.7,1.4,1.7,1.4c0.9,0,1.7-0.6,1.7-1.4c0-1.6,1.4-2.9,3.3-2.9
		c1.8,0,3.3,1.3,3.3,2.9c0,0.8,0.7,1.4,1.7,1.4c0.9,0,1.7-0.6,1.7-1.4C126.1,91.4,123.2,88.8,119.5,88.8z"/>
	<path fill="#FF202A" d="M89.8,67.6c-0.6-0.6-1.7-0.6-2.3,0c-0.6,0.6-0.6,1.5,0,2.1l11.4,10.1c0.2,0.2,0.3,0.2,0.6,0.3
		c0.2,0.1,0.4,0.1,0.6,0.1s0.4,0,0.6-0.1s0.4-0.2,0.6-0.3l11.4-10.1c0.6-0.6,0.6-1.5,0-2.1c-0.6-0.6-1.7-0.6-2.3,0l-8.7,7.6V57.1
		c0-0.8-0.7-1.4-1.7-1.4s-1.7,0.6-1.7,1.4v18.2L89.8,67.6z"/>
</g>
</svg>
