<?xml version="1.0" encoding="utf-8"?>
<!-- Generator: Adobe Illustrator 17.1.0, SVG Export Plug-In . SVG Version: 6.00 Build 0)  -->
<!DOCTYPE svg PUBLIC "-//W3C//DTD SVG 1.1//EN" "http://www.w3.org/Graphics/SVG/1.1/DTD/svg11.dtd">
<svg version="1.1" id="Layer_1" xmlns="http://www.w3.org/2000/svg" xmlns:xlink="http://www.w3.org/1999/xlink" x="0px" y="0px"
	 viewBox="0 0 252 252" enable-background="new 0 0 252 252" xml:space="preserve">
<ellipse fill="none" stroke="#FF202A" stroke-width="3" stroke-miterlimit="10" cx="126.3" cy="126" rx="123.9" ry="123.7"/>
<g id="Shape_1" display="none">
	<g display="inline">
		<path fill="#ED2224" d="M160.1,131.5c-2.9,0-5.3,2-5.3,4.5s2.4,4.5,5.3,4.5s5.3-2,5.3-4.5S163,131.5,160.1,131.5z M180.3,122.8
			V99.4c0-5.5-5.3-10.2-11.8-10.2h-8.1l-8.2-12.7c-1.3-1.9-3.7-3.1-6.2-3.1c-1.3,0-2.4,0.3-3.5,0.8l-31.6,15.1H75.3
			c-6.6,0-11.8,4.7-11.8,10.2v70.1c0,5.5,5.3,10.2,11.8,10.2h93c6.6,0,11.8-4.7,11.8-10.2v-20.5h5.9v-26.1
			C186.2,122.8,180.3,122.8,180.3,122.8z M168.5,93.2c3.7,0,6.7,2.4,7.1,5.4h-8.9l-3.5-5.4H168.5z M144.6,77.6
			c1.1-0.5,2.6-0.3,3.1,0.8l13.1,20.3h-60.5L144.6,77.6z M175.6,169.5c0,3.4-3.2,6-7.1,6H75.5c-3.9,0-7.1-2.6-7.1-6V99.4
			c0-3.4,3.1-6,7.1-6h26.8L91,98.8H76.9c-1.3,0-2.4,0.9-2.4,2c0,1.1,1.1,2,2.4,2h5.3h86.9h6.4V123h-17.4c-8.1,0-14.7,5.5-14.7,12.6
			v0.9c0,6.9,6.6,12.6,14.7,12.6h17.4v20.4H175.6z M181.4,144.8h-1.3H158c-5.5,0-10-3.8-10-8.4v-0.9c0-4.7,4.4-8.4,10-8.4h22.2h1.3
			V144.8z"/>
	</g>
</g>
<g display="none">
	<path display="inline" fill="#D81F2A" d="M185.6,102.9V77.4h-47.3c-1.1,0-2.1,0.8-2.1,1.8s0.9,1.8,2.1,1.8h36.2l-8.8,7.8
		c-0.1,0.1-0.1,0.1-0.3,0.3c-0.1,0.1-0.3,0.3-0.3,0.3l-0.1,0.1c0,0.1,0,0.3-0.1,0.3c0,0.1-0.1,0.3-0.1,0.3V90v12.7H86.9V90.1V90
		c0-0.1,0-0.3-0.1-0.3c0-0.1,0-0.3-0.1-0.3v0c-0.1-0.1-0.1-0.3-0.3-0.3c-0.1-0.1-0.1-0.1-0.3-0.3L77.5,81h36.2
		c1.1,0,2.1-0.8,2.1-1.8c0-1-0.9-1.8-2.1-1.8H66.4v25.5h-2.1v67.7c0,4.8,4.4,8.6,9.7,8.6h103.7c5.4,0,9.7-3.9,9.7-8.6v-67.8
		L185.6,102.9L185.6,102.9z M181.4,81v21.8h-1l-10.6-12.6l10.5-9.3L181.4,81L181.4,81z M169.1,95.6l6.2,7.3h-6.2V95.6z M76.7,102.9
		l6.2-7.3v7.3H76.7z M70.6,81h1.3l10.5,9.3l-10.6,12.6h-1L70.6,81L70.6,81z M183.5,170.6c0,2.6-2.5,5-5.5,5H74.1
		c-3.2,0-5.5-2.1-5.5-5v-64.1h115v64.1H183.5z"/>
	<path display="inline" fill="#D81F2A" d="M150.6,117.4c-1.1,0-2.1,0.8-2.1,1.8v11c0,11-10.1,20-22.6,20s-22.6-9.1-22.6-20v-11
		c0-1-0.9-1.8-2.1-1.8c-1.3,0-2.1,0.8-2.1,1.8v11c0,13,12,23.6,26.7,23.6s26.7-10.6,26.7-23.6v-11
		C152.7,118.2,151.8,117.4,150.6,117.4z"/>
	<path display="inline" fill="#D81F2A" d="M105.5,119.2c0,1,0.9,1.8,2.1,1.8c1.1,0,2.1-0.8,2.1-1.8c0-4-3.7-7.3-8.2-7.3
		c-4.5,0-8.3,3.3-8.3,7.3c0,1,0.9,1.8,2.1,1.8s2.1-0.8,2.1-1.8c0-2,1.8-3.7,4.2-3.7C103.6,115.5,105.5,117.2,105.5,119.2z"/>
	<path display="inline" fill="#D81F2A" d="M150.6,111.9c-4.5,0-8.2,3.3-8.2,7.3c0,1,0.9,1.8,2.1,1.8c1.1,0,2.1-0.8,2.1-1.8
		c0-2,1.8-3.7,4.2-3.7c2.3,0,4.2,1.6,4.2,3.7c0,1,0.9,1.8,2.1,1.8c1.1,0,2.1-0.8,2.1-1.8C158.9,115.2,155.2,111.9,150.6,111.9z"/>
	<path display="inline" fill="#D81F2A" d="M113.1,85.2c-0.8-0.8-2.1-0.8-2.9,0c-0.8,0.8-0.8,1.9,0,2.6l14.4,12.7
		c0.3,0.3,0.4,0.3,0.8,0.4c0.3,0.1,0.5,0.1,0.8,0.1c0.3,0,0.5,0,0.8-0.1c0.3-0.1,0.5-0.3,0.8-0.4L142,87.8c0.8-0.8,0.8-1.9,0-2.6
		c-0.8-0.8-2.1-0.8-2.9,0l-11,9.6V71.9c0-1-0.9-1.8-2.1-1.8s-2.1,0.8-2.1,1.8v22.9L113.1,85.2z"/>
</g>
<g display="none">
	<g display="inline">
		<path fill="#CB2027" d="M121.6,62.1l-6.7,2.6c-3.7,1.4-5.3,5.4-3.8,8.9l1.6,4c-3.4,2.4-6.3,5.3-8.8,8.4l-4.2-1.6
			c-1.6-0.8-3.7-0.8-5.4,0c-1.6,0.8-3.2,2-3.8,3.7l-2.8,6.6c-1.5,3.5,0.3,7.6,3.8,8.9l6.2,2.5c1.4,0.6,3-0.1,3.5-1.4
			c0.6-1.4-0.1-2.9-1.5-3.4l-6.2-2.5c-0.8-0.3-1.3-1.3-0.9-2l2.8-6.6c0.3-0.4,0.5-0.8,0.9-0.8c0.4-0.3,0.8-0.3,1.3,0l6.2,2.5
			c1.3,0.5,2.6,0.1,3.3-1c2.8-4,6.3-7.4,10.5-10.1c1.1-0.8,1.5-2,1-3.1l-2.6-6c-0.3-0.8,0.1-1.6,0.9-2l6.7-2.6
			c0.4-0.3,0.8-0.3,1.3,0c0.4,0.3,0.8,0.5,0.9,0.8l2.6,6c0.5,1.3,1.8,1.8,3,1.6c4.9-1,10-0.9,14.7,0c1.3,0.3,2.6-0.4,3-1.6l2.6-6
			c0.3-0.8,1.3-1.3,2.1-0.8l6.7,2.6c0.4,0.3,0.8,0.5,0.9,0.8c0.3,0.4,0.3,0.8,0,1.3l-2.6,6c-0.5,1.3-0.1,2.5,1,3.1
			c4.2,2.6,7.7,6,10.5,10.1c0.8,1,2.1,1.5,3.3,1l6.2-2.5c0.4-0.3,0.8-0.3,1.3,0c0.4,0.3,0.8,0.5,0.9,0.8l2.8,6.6
			c0.3,0.4,0.3,0.8,0,1.3c-0.3,0.4-0.5,0.8-0.9,0.8l-6.2,2.5c-1.3,0.5-1.9,1.6-1.6,2.9c1,4.7,1,9.6,0,14.2c-0.3,1.3,0.4,2.5,1.6,2.9
			l6.2,2.5c0.8,0.3,1.3,1.3,0.9,2l-2.8,6.6c-0.3,0.8-1.3,1.3-2.1,0.8l-6.2-2.5c-1.3-0.5-2.6-0.1-3.3,1c-2.8,4-6.3,7.4-10.5,10.1
			c-1.1,0.8-1.5,2-1,3.2l2.6,6c0.3,0.4,0.3,0.8,0,1.3c-0.3,0.4-0.5,0.8-0.9,0.8l-6.7,2.6c-0.4,0.3-0.8,0.3-1.3,0
			c-0.4-0.3-0.8-0.5-0.9-0.8l-2.6-6c-0.6-1.4-2.1-2-3.5-1.4c-1.4,0.6-2.1,2.1-1.5,3.4l2.6,6c0.8,1.6,2.1,3,3.8,3.7
			c0.9,0.3,1.8,0.5,2.6,0.5c0.9,0,1.8-0.3,2.6-0.5l6.7-2.6c1.6-0.8,3.1-2,3.8-3.7c0.6-1.6,0.8-3.5,0-5.2l-1.6-4
			c3.4-2.4,6.3-5.3,8.8-8.4l4.2,1.6c3.7,1.4,7.7-0.3,9.2-3.7l2.8-6.6c1.5-3.5-0.3-7.6-3.8-8.9l-4.2-1.6c0.6-4,0.6-8.1,0-12.1
			l4.2-1.6c1.6-0.8,3.1-2,3.8-3.7c0.6-1.6,0.8-3.5,0-5.2l-2.8-6.6c-0.8-1.6-2.1-3-3.8-3.7c-1.6-0.8-3.7-0.8-5.4,0l-4.2,1.6
			c-2.5-3.3-5.5-6-8.8-8.4l1.6-4c0.8-1.6,0.8-3.5,0-5.2c-0.8-1.6-2.1-3-3.8-3.7l-6.7-2.6c-3.7-1.4-7.7,0.3-9.2,3.7l-1.6,4
			c-4.2-0.6-8.3-0.6-12.5,0l-1.6-4c-0.8-1.6-2.1-3-3.8-3.7C125.2,61.4,123.4,61.4,121.6,62.1z"/>
		<path fill="#CB2027" d="M160.9,111.3c-0.1-11.7-10-21.2-22.1-21.2c-0.1,0-0.1,0-0.3,0c-5.9,0.1-11.3,2.3-15.6,6.4
			c-4.2,4.2-6.4,9.4-6.4,15.1c0,1.4,1.3,2.6,2.6,2.6l0,0c1.5,0,2.6-1.3,2.6-2.6c0-4.3,1.6-8.4,4.8-11.3c3.2-3.2,7.3-4.8,11.7-4.8
			h0.1c9.1,0,16.6,7.2,16.8,16c0.1,8.9-7.4,16.3-16.6,16.3c-1.5,0-2.6,1.3-2.6,2.6s1.3,2.6,2.6,2.6l0,0
			C151.2,132.7,161,123,160.9,111.3z"/>
		<path fill="#CB2027" d="M92.9,190.4h5.3c3.2,0,5.9-2.5,5.9-5.7v-2.6c2.6-0.8,5.2-1.6,7.6-3l1.9,1.9c1.1,1.1,2.6,1.6,4.2,1.6
			c1.5,0,3-0.6,4.2-1.6l3.7-3.7c1.1-1.1,1.6-2.5,1.6-4s-0.6-2.9-1.6-4l-1.9-1.9c1.4-2.3,2.4-4.7,3.2-7.3h2.6c3.2,0,5.9-2.5,5.9-5.7
			v-5c0-3.1-2.6-5.7-5.9-5.7h-2.6c-0.8-2.5-1.8-5-3.2-7.3l1.9-1.9c1.1-1.1,1.6-2.5,1.6-4s-0.6-2.9-1.6-4l-3.7-3.7
			c-1.1-1.1-2.6-1.6-4.2-1.6c-1.6,0-3,0.6-4.2,1.6l-1.9,2c-2.4-1.3-4.9-2.3-7.6-3v-2.6c0-3.2-2.6-5.7-5.9-5.7h-5.3
			c-3.2,0-5.9,2.5-5.9,5.7v2.6c-2.6,0.8-5.2,1.6-7.6,3l-1.9-1.9c-1.1-1.1-2.6-1.6-4.2-1.6c-1.6,0-3,0.6-4.2,1.6l-3.7,3.7
			c-2.3,2.1-2.3,5.8,0,7.9l1.9,1.9c-1.4,2.3-2.4,4.7-3.2,7.3h-2.5c-3.1,0-5.9,2.5-5.9,5.7v5c0,3.2,2.6,5.7,5.9,5.7h2.6
			c0.8,2.5,1.8,5,3.2,7.3l-1.9,1.9c-2.3,2.1-2.3,5.8,0,7.9l3.7,3.7c1.1,1.1,2.6,1.6,4.2,1.6c1.6,0,3-0.6,4.2-1.6l1.9-1.9
			c2.4,1.3,4.9,2.3,7.6,3v2.6C87.1,187.9,89.7,190.4,92.9,190.4z M80.6,173.6c-0.5-0.3-1-0.5-1.5-0.5c-0.8,0-1.4,0.3-1.9,0.8
			l-3.4,3.3c-0.1,0.1-0.3,0.1-0.3,0.1c-0.1,0-0.3,0-0.3-0.1l-3.7-3.7c-0.3-0.3-0.3-0.4,0-0.6l3.4-3.3c0.9-0.9,1.1-2.3,0.3-3.3
			c-2-2.8-3.3-6-4-9.3c-0.3-1.3-1.4-2.1-2.6-2.1h-4.9c-0.3,0-0.4-0.3-0.4-0.4v-5c0-0.3,0.3-0.4,0.4-0.4h4.9c1.3,0,2.4-0.9,2.6-2.1
			c0.8-3.3,2-6.6,4-9.3c0.8-1,0.6-2.4-0.3-3.3l-3.4-3.3c-0.3-0.3-0.3-0.4,0-0.6l3.7-3.7c0.1-0.1,0.3-0.1,0.3-0.1
			c0.1,0,0.3,0,0.3,0.1l3.4,3.4c0.9,0.9,2.4,1,3.4,0.3c2.9-1.9,6.2-3.1,9.7-3.9c1.3-0.3,2.1-1.3,2.1-2.6v-4.7c0-0.3,0.3-0.4,0.4-0.4
			h5.4c0.3,0,0.4,0.3,0.4,0.4v4.7c0,1.3,0.9,2.3,2.1,2.6c3.5,0.8,6.7,2,9.7,3.9c1.1,0.8,2.5,0.6,3.4-0.3l3.4-3.3
			c0.1-0.1,0.3-0.1,0.3-0.1c0.1,0,0.3,0,0.3,0.1l3.7,3.7c0.1,0.1,0.1,0.3,0.1,0.3c0,0.1,0,0.3-0.1,0.3l-3.4,3.3
			c-0.9,0.9-1.1,2.3-0.3,3.3c2,2.8,3.3,6,4,9.3c0.3,1.3,1.4,2.1,2.6,2.1h4.9c0.3,0,0.4,0.3,0.4,0.4v5c0,0.3-0.3,0.4-0.4,0.4h-4.7
			c-1.3,0-2.4,0.9-2.6,2.1c-0.8,3.3-2,6.6-4,9.3c-0.8,1-0.6,2.4,0.3,3.3l3.4,3.3c0.1,0.1,0.1,0.3,0.1,0.3c0,0.1,0,0.3-0.1,0.3
			l-3.7,3.7c-0.1,0.1-0.3,0.1-0.3,0.1c-0.1,0-0.3,0-0.3-0.1l-3.4-3.3c-0.9-0.9-2.4-1-3.4-0.3c-2.9,1.9-6.2,3.1-9.7,3.9
			c-1.3,0.3-2.1,1.3-2.1,2.6v4.7c0,0.3-0.3,0.4-0.4,0.4h-5.3c-0.3,0-0.4-0.3-0.4-0.4v-4.5c0-1.3-0.9-2.3-2.1-2.6
			C86.9,176.8,83.5,175.5,80.6,173.6z"/>
		<path fill="#CB2027" d="M111.8,152c0-8.6-7.2-15.6-16.1-15.6s-16.1,7.1-16.1,15.6c0,8.6,7.2,15.6,16.1,15.6S111.8,160.6,111.8,152
			z M84.9,152c0-5.7,4.8-10.3,10.7-10.3s10.7,4.7,10.7,10.3s-4.8,10.3-10.7,10.3S84.9,157.8,84.9,152z"/>
	</g>
</g>
<g id="Forma_1">
	<g>
		<path fill="none" stroke="#FF202A" stroke-width="3" stroke-miterlimit="10" d="M70.6,86.3h47.9l1.6,4H78.8c-3.8,0-6.9,3-6.9,6.7
			c0,3.7,3.2,6.7,6.9,6.7h46.7l1.5,3.7H86.7c-3.8,0-6.9,3-6.9,6.7c0,3.7,3.2,6.7,6.9,6.7h45.7l3.3,8.1c1.1,2.6,3.7,4.2,6.4,4.2
			c0.9,0,1.6-0.3,2.6-0.5c3.5-1.4,5.2-5.3,3.8-8.7L129.4,77c-1.1-2.6-3.7-4.2-6.4-4.2H70.6c-3.8,0-6.9,3-6.9,6.7
			C63.6,83.3,66.7,86.3,70.6,86.3z M177.8,156.7c-6.8,0-12.3,5.4-12.3,12.1s5.5,12.1,12.3,12.1c6.8,0,12.3-5.4,12.3-12.1
			C190.1,162.2,184.6,156.7,177.8,156.7z M177.8,174.8c-3.4,0-6.2-2.6-6.2-6s2.8-6,6.2-6c3.4,0,6.2,2.6,6.2,6
			C184,172.1,181.1,174.8,177.8,174.8z M61.2,147.7v12.9c0,3.2,2.6,5.8,6,5.8h7.9c1.1-7.7,7.9-13.7,16.3-13.7s15,5.9,16.3,13.7h54.2
			c1.3-7.7,7.9-13.7,16.3-13.7c8.3,0,15,5.9,16.3,13.7h6.4c3.3,0,6-2.6,6-5.8v-12.9C206.9,147.7,61.2,147.7,61.2,147.7z M91.3,156.7
			c-6.8,0-12.3,5.4-12.3,12.1s5.5,12.1,12.3,12.1c6.9,0,12.3-5.4,12.3-12.1C103.6,162.2,98.2,156.7,91.3,156.7z M91.3,174.8
			c-3.4,0-6.2-2.6-6.2-6s2.8-6,6.2-6c3.4,0,6.2,2.6,6.2,6C97.4,172.1,94.8,174.8,91.3,174.8z M206.3,140.2c0-2.1-0.9-4.2-2.3-5.5
			l-23.4-22.6c-1.5-1.4-3.5-2.3-5.5-2.3h-11.8v-4.3c0-3.1-2.6-5.8-5.9-5.8h-13.5l9.2,22.6c2.3,5.8-0.5,12.3-6.4,14.6
			c-1.4,0.5-2.8,0.8-4.3,0.8c-4.7,0-8.9-2.8-10.7-7.1l-2.1-5.2H86.8c-6.3,0-11.5-5-11.5-11.2c0-2.1,0.6-4.2,1.6-5.9
			c-4.7-0.8-8.3-4.2-9.4-8.4h-0.6c-3.3,0-6,2.6-6,5.8v39.1H206v-4.4h0.3V140.2z M193.7,135.4H171c-0.5,0-0.9-0.4-0.9-0.9v-17
			c0-0.5,0.4-0.9,0.9-0.9h4.3c0.3,0,0.5,0.1,0.8,0.3l18.3,17.1C195,134.4,194.5,135.4,193.7,135.4z"/>
	</g>
</g>
</svg>
