<?xml version="1.0" encoding="utf-8"?>
<!-- Generator: Adobe Illustrator 17.1.0, SVG Export Plug-In . SVG Version: 6.00 Build 0)  -->
<!DOCTYPE svg PUBLIC "-//W3C//DTD SVG 1.1//EN" "http://www.w3.org/Graphics/SVG/1.1/DTD/svg11.dtd">
<svg version="1.1" id="Layer_1" xmlns="http://www.w3.org/2000/svg" xmlns:xlink="http://www.w3.org/1999/xlink" x="0px" y="0px"
	 viewBox="0 0 81.2 50" enable-background="new 0 0 81.2 50" xml:space="preserve">
<g>
	<path fill="#97999C" d="M1.7,45.1c0.4-3.4,0.8-6.9,1.2-10.3c0.4-3.2,0.9-6.5,1.3-9.7c0.5-3.9,1.1-7.8,1.6-11.7
		C6.2,10.3,6.6,7.1,7,4c0.1-0.8,0.2-1.6,0.3-2.5C7.3,1,7.6,0.7,8.1,0.7c4.4,0.1,8.7-0.3,13.1,0.7c3.6,0.8,5.8,3,7.2,6.2
		c2.1,5.1,2,10.4,1.8,15.8c-0.1,2.3-1,4-2.4,5.6c-1.6,2-2.5,4.4-2.8,6.9c-0.2,0.9-0.2,1.8,0,2.8c0.8,2.9-1.5,4-3.1,5.4
		c-2.2,1.8-4.8,2.5-7.7,2.4c-2.2,0.3-4.5,0.1-6.7,0.1c-1.5,0-3,0-4.6,0C1.5,46.6,1.5,46.6,1.7,45.1z"/>
	<path fill="#97999C" d="M55.3,33.4c0,4,0,8,0,12c0,0.9-0.2,1.3-1.1,1.2c-1.2-0.1-2.8,0.5-3.6-0.2c-0.8-0.7-0.2-2.4-0.3-3.6
		c0-0.4,0-0.8,0-1.3c0-0.6-0.2-0.8-0.8-0.8c-1.2,0-2.3,0-3.5,0c-0.7,0-0.8,0.3-1,0.9c-0.4,1.4-1,2.8-1.4,4.2
		c-0.2,0.6-0.5,0.9-1.2,0.8c-1.4-0.1-2.8-0.1-4.1-0.1c0.1-1.4,0.8-2.6,1.3-3.9c2.6-7.1,5.3-14.1,7.9-21.2c0.3-0.8,0.7-1.1,1.6-1.1
		c1.7,0.1,3.3,0.1,5,0c1-0.1,1.3,0.2,1.3,1.3C55.2,25.5,55.3,29.5,55.3,33.4z"/>
	<path fill="#B3B4B4" d="M40.6,37.7c-0.4,2.1-1.3,3.5-2.5,4.8c-1,1.1-1.9,0.9-2.6-0.4c-0.5-1.2-0.7-2.4-0.9-3.7
		c0-0.2,0.1-0.6-0.2-0.7c-0.3-0.1-0.5,0.2-0.6,0.5c-0.7,1-1.3,2-2,3c-0.4,0.5-0.8,0.9-1.3,1.3c-2.1,1.6-3.7,1.2-4.5-1.4
		c-1.3-4.1-0.5-8,1.9-11.5c1-1.5,2.2-2.7,3.8-3.5c1.6-0.8,2.7-0.2,2.6,1.6c0,2.4-1.3,4.3-3,5.8c-0.9,0.8-1.9,1.5-2.8,2.2
		c-1,0.7-1.1,2.3-0.3,3.5c0.6,0.9,1.7,1,2.8,0.3c2.7-1.7,3.8-4.3,4.3-7.4c0.8-5.3,2.8-10.3,5.5-15c0.4-0.7,1-1.3,1.5-2
		c0.2-0.2,0.4-0.6,0.8-0.4c0.2,0.1,0.4,0.5,0.4,0.8c0.2,1.3-0.1,2.7-0.4,4c-1.1,4.9-3.1,9.4-5.7,13.6c-1.1,1.7-1,3.5-0.4,5.3
		c0.4,1.4,1.5,1.6,2.5,0.5C39.9,38.5,40.2,38.2,40.6,37.7z"/>
	<path fill="#B3B4B4" d="M37.8,49.3c-11.6,0-23.1,0-34.7,0c-0.2,0-0.5,0-0.7,0c-0.4,0-1.1,0.2-1.1-0.4c0-0.6,0.7-0.4,1.1-0.4
		c23.6,0,47.1,0,70.7,0c0.4,0,1.1-0.4,1.1,0.4c0,0.8-0.7,0.4-1.1,0.4C61.3,49.3,49.5,49.3,37.8,49.3z"/>
	<path fill="#B3B4B4" d="M55.7,13.1c-7.4,0-14.7,0-22.1,0c-0.4,0-0.7,0-1.1,0c-0.3,0-0.4-0.2-0.4-0.5c0-0.2,0.2-0.3,0.4-0.3
		c0.3,0,0.6,0,1,0c14.7,0,29.5,0,44.2,0c0.2,0,0.5,0,0.7,0c0.3,0,0.6,0,0.6,0.3c0.1,0.5-0.3,0.5-0.7,0.5c-0.3,0-0.6,0-1,0
		C70.2,13.1,63,13.1,55.7,13.1z"/>
	<path fill="#97999C" d="M72.3,3.6c0,0.9-0.1,1.9-1.1,2.6c-0.4,0.3-0.3,0.6-0.2,0.9c0.3,0.8,0.5,1.7,0.7,2.5
		c0.1,0.3,0.5,0.7-0.1,0.9c-0.5,0.1-1.1,0.3-1.2-0.5c-0.2-0.8-0.4-1.5-0.6-2.3c-0.1-0.5-0.2-1.1-0.8-1.1c-0.7,0-0.5,0.7-0.6,1.2
		c-0.1,0.7-0.2,1.4-0.3,2c0,0.7-0.5,0.7-1,0.7c-0.6,0-0.5-0.4-0.4-0.8c0.3-2.7,0.7-5.5,1-8.2C67.7,1,68,0.7,68.5,0.8
		c0.4,0,0.7,0,1.1,0C71.8,0.8,72.3,1.3,72.3,3.6z"/>
	<path fill="#97999C" d="M61.7,10.5c-2.5,0-2.5,0-2.1-2.5c0.3-1.9,0.5-3.8,0.7-5.8c0.1-1.1,0.4-1.7,1.7-1.5c0.7,0.1,1.4,0,2.1,0
		c0.4,0,1-0.2,0.9,0.5c-0.1,0.5,0.1,1.3-0.9,1.3c-0.2,0-0.5,0-0.7,0c-0.7,0.1-1.7-0.5-1.7,1c0,1.5,1.1,0.6,1.7,0.9
		c0.4,0.2,1.2-0.3,1.1,0.6c-0.1,0.6,0,1.5-1.1,1.4c-0.3,0-0.6,0-1,0c-0.8-0.1-1.1,0.2-1.2,1.1c-0.1,2,1.3,0.9,2.1,1.1
		c0.5,0.1,1-0.1,1,0.8c-0.1,0.6-0.1,1.2-1,1.2c-0.1,0-0.3,0-0.4,0C62.4,10.5,62.1,10.5,61.7,10.5z"/>
	<path fill="#97999C" d="M34.5,10.5c-2.5,0-2.4,0-2.1-2.6c0.3-1.9,0.5-3.9,0.6-5.8c0.1-1,0.4-1.6,1.5-1.4c0.8,0.1,1.6,0,2.4,0
		c0.3,0,0.9-0.1,0.8,0.5c-0.1,0.5,0.1,1.2-0.7,1.3c-0.5,0-0.9,0.1-1.4,0c-0.9-0.1-1.2,0.3-1.2,1.2c0,1.1,0.7,0.6,1.2,0.7
		c0.5,0.1,1.2-0.3,1.5,0.3c0.2,0.3,0,0.9-0.2,1.3c-0.4,0.7-1.2,0.3-1.8,0.3c-0.9,0-1.2,0.3-1.3,1.2c-0.1,1.7,1,1.1,1.8,1.1
		c0.9,0,1.6,0.1,1.3,1.2c-0.1,0.5-0.3,0.7-0.9,0.7C35.6,10.5,35.1,10.5,34.5,10.5z"/>
	<path fill="#97999C" d="M71.4,40.6c0.1,1.7-0.3,3.3-1.1,4.8c-0.5,0.8-1.1,1.5-2.2,1.4c-1.1-0.1-1.5-1-1.7-1.8
		c-0.7-2.4-0.4-4.7,0.5-7c0.4-1,1-1.9,2.3-1.8c1.3,0.1,1.5,1.2,1.9,2.1C71.4,39.1,71.4,39.9,71.4,40.6z"/>
	<path fill="#97999C" d="M54.4,6.6c0.5-1.7,1.1-3.3,1.6-5c0.2-0.8,0.7-1,1.3-0.8c0.8,0.3,0.1,0.8,0,1.2c-0.8,2.5-1.6,5-2.4,7.5
		c-0.2,0.5-0.3,1-1.1,1c-0.9,0-0.8-0.7-0.8-1.2c-0.3-2.7-0.6-5.3-0.9-8c-0.1-0.6,0.3-0.6,0.6-0.6c0.6-0.1,0.9,0.2,0.9,0.8
		c0.1,1.6,0.3,3.3,0.4,4.9C54.2,6.6,54.3,6.6,54.4,6.6z"/>
	<path fill="#97999C" d="M61.2,37.8c-0.3,2.2-0.6,4.4-0.9,6.6c-0.1,0.7-0.4,1.2-0.8,1.8c-0.9,1.1-2.3,1-2.9-0.3
		c-0.4-0.8-0.6-1.7-0.5-2.5c0.2-2,0.4-4,0.7-5.9c0.1-0.4,0-1.2,0.8-1.1c0.8,0.1,0.4,0.8,0.4,1.2c-0.2,1.9-0.5,3.9-0.7,5.8
		c-0.1,0.8,0,1.6,0.9,1.8c0.9,0.1,1.1-0.8,1.2-1.5c0.3-1.9,0.5-3.9,0.7-5.8c0-0.3,0-0.6,0-0.8c0.1-0.4,0.2-0.7,0.7-0.7
		c0.6,0,0.5,0.4,0.4,0.8C61.1,37.3,61.1,37.5,61.2,37.8C61.1,37.8,61.2,37.8,61.2,37.8z"/>
	<path fill="#97999C" d="M77.5,4c1.3-1.1,0.6-3.7,3.2-3.1c-0.4,1-0.8,2.1-1.3,3.1c-0.9,1.8-1.6,3.7-1.6,5.8c0,0.7-0.4,0.8-1,0.8
		c-0.7,0-0.5-0.5-0.4-0.9C77,7,76.1,4.5,75.4,2c-0.1-0.4-0.5-0.9,0.2-1.1c0.7-0.2,1.1,0.1,1.3,0.8C77.1,2.4,77.3,3.1,77.5,4z"/>
	<path fill="#97999C" d="M41.7,10.5c-2.2,0-2.2,0-1.9-2.1c0.3-2.2,0.6-4.5,0.8-6.7c0.1-0.7,0.4-1,1.1-0.9c0.8,0.1,0.5,0.6,0.4,1
		c-0.2,1.9-0.4,3.9-0.7,5.8c-0.1,0.9,0.2,1.1,1,1.1c0.5,0,1.5-0.7,1.6,0.5c0.1,1.2-0.6,1.5-1.6,1.3C42.1,10.5,41.9,10.5,41.7,10.5z"
		/>
	<path fill="#97999C" d="M66.3,37.2c-0.1,0.5-0.2,1.1-1,1c-0.8-0.1-0.8,0.5-0.9,1.1c-0.2,2.2-0.5,4.4-0.7,6.6c-0.1,0.5,0,1-0.7,0.9
		c-0.7-0.1-0.4-0.7-0.3-1.1c0.2-2.1,0.5-4.3,0.7-6.4c0.1-0.5,0.1-1-0.7-1c-0.7,0.1-0.7-0.4-0.7-0.9c0-0.5,0.1-0.9,0.7-0.9
		c1,0,2,0,3,0C66.3,36.3,66.4,36.6,66.3,37.2z"/>
	<path fill="#97999C" d="M49.1,1.7c-0.3,2.7-0.6,5.2-0.9,7.7c-0.1,0.5-0.1,1.3-1,1.1c-0.9-0.1-0.5-0.9-0.5-1.3c0.3-2.5,0.7-5,1-7.5
		c0.1-0.5,0.1-1,0.8-0.9C49.5,0.8,49.1,1.4,49.1,1.7z"/>
	<path fill="#979A9D" d="M25,38.7c-0.4-0.9-0.4-1.8,0-2.8C25,36.9,25,37.8,25,38.7z"/>
	<path fill="#F9F9FA" d="M21.8,18.3c-0.1,5-0.6,9.9-2.3,14.6c-1.1,3-2.9,5.5-6.4,6c-2.8,0.4-3,0.1-2.6-2.7
		c0.9-5.9,1.6-11.7,2.4-17.6c0.4-2.9,0.8-5.9,1.1-8.8c0.1-0.9,0.4-1.3,1.3-1.1c1,0.1,1.9,0.2,2.9,0.4c1.9,0.4,2.8,1.8,3.2,3.6
		C21.8,14.5,21.8,16.4,21.8,18.3z"/>
	<path fill="#F9F9FA" d="M50.1,27.7c0,2.2,0,4.4,0,6.5c0,0.3,0.1,0.8-0.4,0.9c-0.7,0-1.4,0.1-2-0.1c-0.4-0.2,0-0.7,0.2-1.1
		C48.5,31.8,49.3,29.8,50.1,27.7z"/>
	<path fill="#F9F9FA" d="M38,29.8c-0.2-1.5,0.3-2.9,0.7-4.3c0.6-2.1,1.3-4.1,2.4-6c0.1-0.2,0.3-0.5,0.6-0.5c0.4,0,0.3,0.4,0.3,0.7
		C41.5,23.4,40,26.7,38,29.8z"/>
	<path fill="#F9F9FA" d="M32.6,29c-0.6,2.1-1.8,4-3.8,5.4c-0.6,0.4-0.8,0-0.6-0.5c0.5-2.3,1.6-4.2,3.4-5.7c0.2-0.2,0.5-0.3,0.8-0.2
		C32.7,28.1,32.5,28.5,32.6,29z"/>
	<path fill="#F9F9FA" d="M68.9,3.8c0-0.7,0.2-1.3,1.1-1.2c0.6,0,0.9,0.3,0.9,0.9c-0.1,0.8-0.4,1.3-1.3,1.3
		C68.7,4.8,68.9,4.3,68.9,3.8z"/>
	<path fill="#F9F9FA" d="M67.2,42.6c0-1.5,0.3-2.6,0.8-3.7c0.2-0.5,0.6-0.9,1.1-0.8c0.5,0.1,0.7,0.5,0.8,1c0.5,1.7,0.1,3.3-0.4,4.9
		c-0.2,0.6-0.5,1.2-1.2,1.1c-0.7-0.1-0.9-0.7-1-1.3C67.2,43.2,67.2,42.8,67.2,42.6z"/>
</g>
</svg>
