<?xml version="1.0" encoding="utf-8"?>
<!-- Generator: Adobe Illustrator 17.1.0, SVG Export Plug-In . SVG Version: 6.00 Build 0)  -->
<!DOCTYPE svg PUBLIC "-//W3C//DTD SVG 1.1//EN" "http://www.w3.org/Graphics/SVG/1.1/DTD/svg11.dtd">
<svg version="1.1" id="Layer_1" xmlns="http://www.w3.org/2000/svg" xmlns:xlink="http://www.w3.org/1999/xlink" x="0px" y="0px"
	 viewBox="0 0 66.2 50" enable-background="new 0 0 66.2 50" xml:space="preserve">
<g>
	<path fill="#B2B3B3" d="M25.3,0c4,0,8.1,0,12.1,0c0.4,0,0.5,0.1,0.5,0.5c0,6.6,0,13.2,0,19.8c0,0.3-0.1,0.5-0.3,0.7
		c-3.9,3.8-7.7,7.7-11.6,11.5c-0.2,0.2-0.4,0.3-0.7,0.3c-7.9,0-15.9,0-23.8,0c-0.4,0-0.5-0.1-0.5-0.5C1,25.7,1,19,1,12.3
		c0-0.5,0.1-0.8,0.5-1.1c3-2.9,5.9-5.8,8.9-8.8c0.7-0.7,1.4-1.4,2.1-2.1C12.7,0.1,12.9,0,13.2,0C17.3,0,21.3,0,25.3,0z M16.4,29.3
		c0-0.2,0-0.4,0-0.5c0-1.4,0-2.8,0-4.2c0-0.3,0.1-0.5,0.5-0.4c1,0,2,0,3.1,0c0.4,0,0.5,0.1,0.5,0.5c0,1.5,0,3,0,4.5
		c0,0.4,0.1,0.5,0.5,0.5c1.4,0,2.8,0,4.2,0c0.4,0,0.4-0.1,0.4-0.5c0-1,0-2,0-3c0-3.7,0-7.4,0-11.1c0-0.4-0.1-0.5-0.5-0.5
		c-1.4,0-2.8,0-4.3,0c-0.4,0-0.5,0.1-0.5,0.5c0,1.5,0,2.9,0,4.4c0,0.3-0.1,0.5-0.5,0.5c-1,0-2,0-3,0c-0.4,0-0.5-0.1-0.5-0.4
		c0-1.4,0-2.9,0-4.3c0-0.4-0.1-0.5-0.5-0.5c-1.3,0-2.6,0-3.9,0c-0.7,0-0.7,0-0.7,0.7c0,4.5,0,9,0.1,13.5c0,0.2,0,0.3,0.1,0.5
		c-0.1,0.3,0.2,0.2,0.3,0.2c1.4,0,2.8,0,4.3,0C16.2,29.5,16.4,29.5,16.4,29.3z M9.6,22.1c0-2.3,0-4.7,0-7c0-0.4-0.1-0.4-0.4-0.4
		c-1.6,0-3.1,0-4.7,0C4.1,14.6,4,14.7,4,15c0,4.7,0,9.4,0,14.1c0,0.3,0.1,0.4,0.4,0.4c1.5,0,3.1,0,4.6,0c0.4,0,0.5-0.1,0.5-0.5
		C9.6,26.7,9.6,24.4,9.6,22.1z"/>
	<path fill="#848585" d="M53.8,43c0,1.9,0,3.8,0,5.7c0,0.5-0.1,0.7-0.7,0.6c-1.3,0-2.6,0-4,0c-0.3,0-0.4-0.1-0.4-0.4
		c0-4.6,0-9.2,0-13.8c0-0.3,0.1-0.4,0.4-0.4c1.5,0,3,0,4.5,0c0.3,0,0.4,0.1,0.6,0.4c1.1,1.9,2.1,3.9,3.2,5.8
		c0.2-0.1,0.3-0.3,0.4-0.4c1.1-1.8,2.1-3.6,3.1-5.4c0.2-0.4,0.5-0.6,0.9-0.5c1.2,0,2.5,0,3.7,0c0.5,0,0.6,0.2,0.6,0.6
		c0,3.4,0,6.8,0,10.2c0,1.1,0,2.2,0,3.3c0,0.3-0.1,0.5-0.5,0.5c-1.4,0-2.7,0-4.1,0c-0.4,0-0.4-0.1-0.4-0.4c0-1.8,0-3.7,0-5.5
		c0-0.2,0.1-0.4-0.1-0.4c-0.2-0.1-0.3,0.2-0.4,0.3c-0.5,1-1.1,1.9-1.6,2.9c-0.2,0.3-0.3,0.4-0.7,0.4c-0.6,0-1.2,0-1.8,0
		c-0.3,0-0.4-0.1-0.6-0.3c-0.7-1.1-1.4-2.1-2.2-3.2C53.8,43,53.8,43,53.8,43z"/>
	<path fill="#848585" d="M37.8,41.7c0.9-1.7,1.9-3.4,2.8-5.1c0.3-0.5,0.5-1,0.8-1.4c0.1-0.2,0.3-0.3,0.5-0.3c1.4,0,2.9,0,4.3,0
		c0.4,0,0.5,0.2,0.5,0.5c0,4.3,0,8.5,0,12.8c0,0.4,0.1,0.9-0.1,1.1c-0.2,0.3-0.7,0.1-1.1,0.1c-1.1,0.1-2.3,0-3.4,0
		c-0.4,0-0.3-0.2-0.3-0.4c0-2,0-4.1,0-6.1c0-0.1,0-0.2,0-0.3c-0.2,0-0.2,0.2-0.3,0.3c-1.2,2.1-2.4,4.1-3.6,6.2
		c-0.2,0.3-0.3,0.4-0.7,0.4c-1.4,0-2.9,0-4.3,0c-0.3,0-0.4-0.1-0.4-0.4c0-4.6,0-9.2,0-13.7c0-0.3,0.1-0.5,0.4-0.5c1.4,0,2.8,0,4.2,0
		c0.4,0,0.4,0.1,0.4,0.4C37.7,37.4,37.7,39.5,37.8,41.7C37.8,41.7,37.8,41.7,37.8,41.7z"/>
	<path fill="#848585" d="M15.2,49.3c0.4-1.1,0.8-2.1,1.2-3.1c1.4-3.7,2.8-7.4,4.2-11.1c0.1-0.3,0.3-0.4,0.6-0.4c1.6,0,3.2,0,4.8,0
		c0.4,0,0.6,0.1,0.7,0.5c1.7,4.4,3.3,8.8,5,13.2c0.4,0.9,0.4,0.9-0.7,0.9c-1.3,0-2.6,0-3.9,0c-0.3,0-0.4-0.1-0.5-0.4
		c-0.2-0.5-0.2-1.1-0.6-1.4c-0.4-0.2-1-0.1-1.5-0.1c-1,0-1.9,0-2.9,0c-0.3,0-0.4,0.1-0.5,0.3c0,0,0,0.1,0,0.1
		c-0.2,0.5-0.3,1.1-0.6,1.3c-0.3,0.2-0.9,0.1-1.4,0.1C17.7,49.3,16.5,49.3,15.2,49.3z M23.6,43.8c0.4,0,0.8,0,1.1,0
		c0.2,0,0.3,0,0.2-0.3c-0.4-1.1-0.7-2.2-1-3.3c0-0.1,0-0.3-0.2-0.3c-0.2,0-0.2,0.2-0.2,0.3c-0.3,0.8-0.5,1.6-0.8,2.4
		c-0.1,0.4-0.5,0.9-0.3,1.2C22.6,43.9,23.2,43.7,23.6,43.8z"/>
	<path fill="#848585" d="M8.1,44.3c0-1.5,0-3.1,0-4.6c0-0.3-0.1-0.4-0.4-0.4c-1.1,0-2.2,0-3.3,0c-0.3,0-0.4-0.1-0.4-0.4
		c0-1.3,0-2.5,0-3.8c0-0.3,0.1-0.4,0.4-0.4c4,0,8,0,12.1,0c0.3,0,0.4,0.1,0.4,0.4c0,1.3,0,2.6,0,3.9c0,0.3-0.1,0.4-0.4,0.4
		c-1,0-2,0-3,0c-0.3,0-0.4,0.1-0.4,0.4c0,3,0,6.1,0,9.1c0,0.4-0.1,0.5-0.5,0.5c-1.4,0-2.7,0-4.1,0c-0.3,0-0.4-0.1-0.4-0.4
		C8.1,47.4,8.1,45.8,8.1,44.3z"/>
	<path fill="#848585" d="M36.7,29.2c0.2,0,0.4,0,0.6,0c0.5,0,0.9-0.1,1,0.7c0.1,0.7,0.9,1.1,1.7,1c0.7-0.1,1.3-0.7,1.3-1.4
		c0-0.2,0-0.3,0.3-0.3c0.8,0,1.6,0,2.4,0c0.3,0,0.3,0.1,0.3,0.3c-0.2,2.3-2.1,4.1-4.4,4.2c-2.2,0.1-4.2-1.6-4.5-3.8
		c0-0.1,0-0.2-0.1-0.3c-0.1-0.3,0-0.4,0.3-0.4C36,29.3,36.3,29.2,36.7,29.2C36.7,29.2,36.7,29.2,36.7,29.2z"/>
	<path fill="#848585" d="M11.5,29.3c-0.1-0.2-0.1-0.3-0.1-0.5c0-4.5,0-9-0.1-13.5c0-0.7,0-0.7,0.7-0.7c1.3,0,2.6,0,3.9,0
		c0.4,0,0.5,0.1,0.5,0.5c0,1.4,0,2.9,0,4.3c0,0.4,0.1,0.5,0.5,0.4c1,0,2,0,3,0c0.4,0,0.5-0.1,0.5-0.5c0-1.5,0-2.9,0-4.4
		c0-0.4,0.1-0.5,0.5-0.5c1.4,0,2.8,0,4.3,0c0.4,0,0.5,0.1,0.5,0.5c0,3.7,0,7.4,0,11.1c0,1,0,2,0,3c0,0.3-0.1,0.5-0.4,0.5
		c-1.4,0-2.8,0-4.2,0c-0.4,0-0.5-0.1-0.5-0.5c0-1.5,0-3,0-4.5c0-0.4-0.1-0.5-0.5-0.5c-1,0-2,0-3.1,0c-0.4,0-0.5,0.1-0.5,0.4
		c0,1.4,0,2.8,0,4.2c0,0.2,0,0.4,0,0.5C14.8,29.3,13.1,29.3,11.5,29.3z"/>
	<path fill="#848585" d="M9.6,22.1c0,2.3,0,4.6,0,6.9c0,0.4-0.1,0.5-0.5,0.5c-1.5,0-3.1,0-4.6,0c-0.3,0-0.4-0.1-0.4-0.4
		c0-4.7,0-9.4,0-14.1c0-0.3,0.1-0.4,0.4-0.4c1.6,0,3.1,0,4.7,0c0.3,0,0.4,0.1,0.4,0.4C9.6,17.4,9.6,19.7,9.6,22.1z"/>
	<path fill="#848585" d="M11.5,28.8c1.7,0,3.3,0,5,0c0,0.8-0.2,0.8-0.4,0.8c-1.4,0-2.9,0-4.3,0C11.6,29.5,11.4,29.8,11.5,28.8z"/>
</g>
</svg>
