<?xml version="1.0" encoding="utf-8"?>
<!-- Generator: Adobe Illustrator 17.1.0, SVG Export Plug-In . SVG Version: 6.00 Build 0)  -->
<!DOCTYPE svg PUBLIC "-//W3C//DTD SVG 1.1//EN" "http://www.w3.org/Graphics/SVG/1.1/DTD/svg11.dtd">
<svg version="1.1" id="Layer_1" xmlns="http://www.w3.org/2000/svg" xmlns:xlink="http://www.w3.org/1999/xlink" x="0px" y="0px"
	 viewBox="0 0 150 150" enable-background="new 0 0 150 150" xml:space="preserve">
<ellipse fill="#EB232C" cx="74.7" cy="75" rx="72.8" ry="72.8"/>
<g>
	<g>
		<defs>
			<path id="SVGID_1_" d="M38,51c-7.2,0-13.1,8.6-13.1,19.3c0,10.6,5.9,19.3,13.1,19.3l2.9-0.1c3,0,7.5-0.7,5.6-2.2
				c-4-3.1-6.7-9.1-6.7-15.9c0-10.1,5.8-18.2,12.9-18.2l-13-2L38,51L38,51z"/>
		</defs>
		<use xlink:href="#SVGID_1_"  overflow="visible" fill="#FFFEFE"/>
		<clipPath id="SVGID_2_">
			<use xlink:href="#SVGID_1_"  overflow="visible"/>
		</clipPath>
		<g display="none" clip-path="url(#SVGID_2_)">
			<defs>
				<rect id="SVGID_3_" x="24.8" y="51" width="27.9" height="38.5"/>
			</defs>
			<clipPath id="SVGID_4_" display="inline">
				<use xlink:href="#SVGID_3_"  overflow="visible"/>
			</clipPath>
			<g display="inline" clip-path="url(#SVGID_4_)">
				
					<image overflow="visible" width="44" height="62" xlink:href="499692A2.png"  transform="matrix(0.7249 0 0 -0.6724 23.2889 91.4238)">
				</image>
			</g>
		</g>
		<use xlink:href="#SVGID_1_"  overflow="visible" fill="none" stroke="#EB2329" stroke-miterlimit="10"/>
	</g>
	<g>
		<defs>
			<path id="SVGID_5_" d="M38,89.5c6.6,0,12.8-6.8,12.3-16.6h16.4c0,10.2-7.5,16.6-14.6,16.6H38L38,89.5z"/>
		</defs>
		<use xlink:href="#SVGID_5_"  overflow="visible" fill="#FDFDFE"/>
		<clipPath id="SVGID_6_">
			<use xlink:href="#SVGID_5_"  overflow="visible"/>
		</clipPath>
		<g display="none" clip-path="url(#SVGID_6_)">
			<defs>
				<rect id="SVGID_7_" x="38" y="72.9" width="28.7" height="16.6"/>
			</defs>
			<clipPath id="SVGID_8_" display="inline">
				<use xlink:href="#SVGID_7_"  overflow="visible"/>
			</clipPath>
			<g transform="matrix(1 0 0 1 0 7.629395e-006)" display="inline" clip-path="url(#SVGID_8_)">
				
					<image overflow="visible" width="48" height="29" xlink:href="499692A6.png"  transform="matrix(0.7249 0 0 -0.6724 36.1233 91.0676)">
				</image>
			</g>
		</g>
		<use xlink:href="#SVGID_5_"  overflow="visible" fill="none" stroke="#EB2329" stroke-miterlimit="10"/>
	</g>
	<g>
		<defs>
			<path id="SVGID_9_" d="M74.1,89.5l8.4-0.6c3.2,0,4.4-0.3,2.5-1.8c-4.4-3.5-7.9-10.2-10.8-16.9C69.8,60.3,65.4,51,56.9,51H38
				c8.1,0,12.3,9.3,16.4,19.3c4,9.5,9.1,19.3,16.2,19.3H74.1L74.1,89.5z"/>
		</defs>
		<clipPath id="SVGID_10_">
			<use xlink:href="#SVGID_9_"  overflow="visible"/>
		</clipPath>
		<g clip-path="url(#SVGID_10_)">
			<defs>
				<rect id="SVGID_11_" x="38" y="51" width="49" height="38.5"/>
			</defs>
			<use xlink:href="#SVGID_11_"  overflow="visible" fill="#FFFFFF"/>
			<clipPath id="SVGID_12_">
				<use xlink:href="#SVGID_11_"  overflow="visible"/>
			</clipPath>
			<g display="none" clip-path="url(#SVGID_12_)">
				
					<image display="inline" overflow="visible" width="72" height="62" xlink:href="499692A1.png"  transform="matrix(0.7249 0 0 -0.6724 36.319 91.4238)">
				</image>
			</g>
		</g>
		<use xlink:href="#SVGID_9_"  overflow="visible" fill="none" stroke="#EB2329" stroke-miterlimit="10"/>
	</g>
	<g>
		<defs>
			<path id="SVGID_13_" d="M88.8,89.5c9.3,0,15.6-16.1,20.1-25.9c6.3-13.7,12.3-25.9,20.1-25.9h-18.6c-7.8,0-13.6,12.2-19.9,25.9
				C86,73.4,79.8,89.5,70.6,89.5H88.8L88.8,89.5z"/>
		</defs>
		<use xlink:href="#SVGID_13_"  overflow="visible" fill="#FDFDFE"/>
		<clipPath id="SVGID_14_">
			<use xlink:href="#SVGID_13_"  overflow="visible"/>
		</clipPath>
		<g display="none" clip-path="url(#SVGID_14_)">
			<defs>
				<rect id="SVGID_15_" x="70.6" y="37.7" width="58.4" height="51.8"/>
			</defs>
			<use xlink:href="#SVGID_15_"  display="inline" overflow="visible" fill="#5C5C5C"/>
			<clipPath id="SVGID_16_" display="inline">
				<use xlink:href="#SVGID_15_"  overflow="visible"/>
			</clipPath>
			<g transform="matrix(1 0 0 1 0 7.629395e-006)" display="inline" clip-path="url(#SVGID_16_)">
				
					<image overflow="visible" width="88" height="81" xlink:href="499692A3.png"  transform="matrix(0.7249 0 0 -0.6724 68.7934 91.3367)">
				</image>
			</g>
		</g>
		<use xlink:href="#SVGID_13_"  overflow="visible" fill="none" stroke="#EB2329" stroke-miterlimit="10"/>
	</g>
	<g>
		<path fill="#FFFFFF" d="M29.9,104.4l-0.6,2.3h-2l2.6-9h2.5l2.7,9H33l-0.7-2.3H29.9z M32.1,102.9l-0.5-1.9
			c-0.2-0.5-0.3-1.2-0.4-1.7h0c-0.1,0.5-0.3,1.2-0.4,1.7l-0.5,1.9H32.1z"/>
		<path fill="#FFFFFF" d="M36.2,97.8c0.5-0.1,1.5-0.2,2.5-0.2c1.2,0,1.9,0.1,2.5,0.5c0.6,0.3,1,1,1,1.8c0,0.8-0.4,1.5-1.4,1.9v0
			c1,0.3,1.7,1.1,1.7,2.2c0,0.8-0.4,1.5-0.9,1.9c-0.6,0.5-1.7,0.8-3.4,0.8c-1,0-1.7-0.1-2.1-0.1V97.8z M38.1,101.2h0.6
			c1,0,1.6-0.4,1.6-1.1c0-0.7-0.5-1-1.4-1c-0.4,0-0.7,0-0.8,0.1V101.2z M38.1,105.3c0.2,0,0.4,0,0.8,0c0.9,0,1.7-0.4,1.7-1.3
			c0-0.9-0.8-1.3-1.7-1.3h-0.7V105.3z"/>
		<path fill="#FFFFFF" d="M52.6,103.7c0-0.9-0.1-2.1-0.1-3.2h0c-0.2,1-0.5,2.1-0.8,3l-0.9,3h-1.3l-0.8-3c-0.2-0.9-0.5-2-0.7-3h0
			c0,1-0.1,2.2-0.1,3.2l-0.1,2.9h-1.5l0.5-7.7h2.2l0.7,2.6c0.2,0.9,0.5,1.9,0.6,2.8h0c0.2-0.9,0.4-1.9,0.7-2.8l0.8-2.6h2.2l0.4,7.7
			h-1.6L52.6,103.7z"/>
		<path fill="#FFFFFF" d="M60,103.4h-2.7v1.8h3v1.4h-4.7V99h4.5v1.4h-2.9v1.6H60V103.4z"/>
		<path fill="#FFFFFF" d="M62.8,100.4h-2V99h5.6v1.5h-2v6.3h-1.7V100.4z"/>
		<path fill="#FFFFFF" d="M68.3,104.7l-0.5,2H66l2.2-7.7h2.2l2.3,7.7h-1.8l-0.6-2H68.3z M70.1,103.4l-0.5-1.6
			c-0.1-0.5-0.3-1-0.4-1.5h0c-0.1,0.5-0.2,1-0.3,1.5l-0.4,1.6H70.1z"/>
		<path fill="#FFFFFF" d="M79.4,99v7.7h-1.7v-6.3h-1.7v1.8c0,2-0.2,3.5-1.4,4.2c-0.4,0.2-0.9,0.4-1.5,0.4l-0.2-1.4
			c0.4,0,0.7-0.2,0.8-0.4c0.4-0.5,0.6-1.5,0.6-2.7V99H79.4z"/>
		<path fill="#FFFFFF" d="M86.5,99v7.7h-1.7v-6.3h-1.7v1.8c0,2-0.2,3.5-1.4,4.2c-0.4,0.2-0.9,0.4-1.5,0.4l-0.2-1.4
			c0.4,0,0.7-0.2,0.8-0.4c0.4-0.5,0.6-1.5,0.6-2.7V99H86.5z"/>
		<path fill="#FFFFFF" d="M94.6,99v1.4h-2.8v6.3h-1.7V99H94.6z"/>
		<path fill="#FFFFFF" d="M95.5,99.1c0.5-0.1,1.2-0.2,2.2-0.2c1,0,1.8,0.2,2.2,0.6c0.5,0.4,0.8,1,0.8,1.8c0,0.8-0.2,1.4-0.7,1.8
			c-0.6,0.5-1.4,0.8-2.4,0.8c-0.2,0-0.4,0-0.6,0v2.8h-1.6V99.1z M97.1,102.6c0.1,0,0.3,0,0.6,0c0.9,0,1.4-0.5,1.4-1.3
			c0-0.7-0.5-1.1-1.3-1.1c-0.3,0-0.6,0-0.7,0.1V102.6z"/>
		<path fill="#FFFFFF" d="M102.9,99l1.1,2.8c0.2,0.5,0.3,1,0.5,1.5h0c0.1-0.3,0.2-0.8,0.4-1.5l0.8-2.8h1.8l-1.4,3.8
			c-0.4,1.2-0.9,2.4-1.4,3.1c-0.5,0.6-1.1,1-2,1c-0.4,0-0.6,0-0.8-0.1l0.1-1.4c0.1,0,0.3,0.1,0.5,0.1c0.5,0,0.9-0.4,1-0.7
			c0.1-0.1,0-0.2,0-0.4L101,99H102.9z"/>
		<path fill="#FFFFFF" d="M114.1,99v7.7h-1.7v-6.3h-2.6v6.3h-1.7V99H114.1z"/>
		<path fill="#FFFFFF" d="M121.4,99v7.7h-1.7v-6.3h-2.6v6.3h-1.7V99H121.4z"/>
	</g>
</g>
</svg>
