<?xml version="1.0" encoding="UTF-8" standalone="no"?>
<!-- Generator: Adobe Illustrator 17.1.0, SVG Export Plug-In . SVG Version: 6.00 Build 0)  -->
<!DOCTYPE svg  PUBLIC '-//W3C//DTD SVG 1.1//EN'  'http://www.w3.org/Graphics/SVG/1.1/DTD/svg11.dtd'>
<svg id="Layer_1" xmlns="http://www.w3.org/2000/svg" xml:space="preserve" viewBox="0 0 196 196" version="1.1" y="0px" x="0px" xmlns:xlink="http://www.w3.org/1999/xlink" enable-background="new 0 0 196 196">
<ellipse rx="96.5" cy="98.1" ry="96.7" stroke="#EFEFEF" cx="97.9" stroke-miterlimit="10" stroke-width="2" fill="#ED1C24"/>
<g display="none">
	<g display="inline" fill="#FFFEFE">
		<path id="XMLID_2038_" d="m99.2 64.1c10.5-0.1 9-12.7 9-12.7-0.4-8.4-8.2-8.3-9-8.3s-8.5-0.1-9 8.3c0-0.1-1.5 12.5 9 12.7-0.1 0-0.1 0 0 0z"/>
		<path id="XMLID_2039_" d="m99.2 79.7l6.7-8.4s4.7 1.7 8.6 4.3c1 0.7 1.5 1.1 2.4 1.9 2.1 1.9 1.2 13.1 0 17.3-1.2 4.1-4.9 10-4.9 10-0.7 1.5-1.2 3.1-1.4 4.7l-4.6 41.1c-0.2 1.3-1.4 2.3-2.8 2.3h-8c-1.4 0-2.7-1-2.8-2.3l-4.6-41.1c-0.2-1.6-0.6-3.2-1.4-4.7 0 0-3.6-5.9-4.9-10-1.2-4.1-2.1-15.3 0-17.3 0.9-0.8 1.4-1.2 2.4-1.9 3.9-2.6 8.6-4.3 8.6-4.3l6.7 8.4z"/>
		<path d="m46.8 98.9c1.2 3.8 4.3 9 4.7 9.8 0.6 1.2 0.9 2.4 1.1 3.7l4.4 38.6c0.3 2.3 2.4 4.1 5 4.1h7.5c2.6 0 4.7-1.7 5-4.1l4.4-38.6c0.2-1.3 0.5-2.6 1.1-3.8 0.5-1.1 0-2.3-1.2-2.8s-2.6 0-3.1 1.1c-0.8 1.6-1.3 3.3-1.5 5.1l-4.4 38.6c0 0.1-0.2 0.3-0.3 0.3h-7.5c-0.2 0-0.3-0.1-0.3-0.3l-4.5-38.6c-0.2-1.7-0.7-3.5-1.5-5.1 0-0.1-0.1-0.1-0.1-0.2 0 0-3.3-5.3-4.4-8.9-1.2-4-1.5-12.7-0.5-14.2 0.8-0.7 1.1-1 1.9-1.5 2-1.4 4.4-2.4 5.9-3.1l5.2 6.5c0.4 0.5 1.1 0.9 1.9 0.9 0.7 0 1.4-0.3 1.9-0.9l6.3-7.9c0.7-0.9 0.5-2.3-0.5-3s-2.5-0.5-3.3 0.5l-4.4 5.5-4.4-5.5c-0.6-0.8-1.8-1.1-2.8-0.7-0.2 0.1-4.8 1.7-8.6 4.3-1.1 0.7-1.6 1.2-2.5 2-3.2 3-1.4 15.4-0.5 18.2z"/>
		<path d="m65.5 71.7h0.2 0.1 0.2c3-0.1 5.5-1 7.3-2.9 3.8-3.9 3.3-10.4 3.2-11.3-0.4-7.2-5.9-9.7-10.6-9.7h-0.2-0.2c-4.6 0-10.1 2.6-10.6 9.7-0.1 0.8-0.6 7.3 3.2 11.3 1.8 1.8 4.4 2.8 7.4 2.9zm-5.9-13.8v-0.1c0.3-5 3.8-5.8 5.9-5.8h0.1 0.2 0.1c2.1 0 5.6 0.7 5.9 5.8v0.1c0.2 1.5 0.1 5.9-2.1 8.1-1 1-2.3 1.5-4 1.5h-0.1c-1.7 0-3-0.5-4-1.5-2.2-2.2-2.2-6.6-2-8.1z"/>
		<path d="m119.7 105.8c-1.2 0.5-1.7 1.7-1.2 2.8 0.6 1.2 1 2.5 1.1 3.8l4.4 38.6c0.3 2.3 2.4 4.1 5 4.1h7.5c2.6 0 4.7-1.7 5-4.1l4.4-38.6c0.2-1.3 0.5-2.5 1.1-3.7 0.5-0.8 3.6-5.9 4.7-9.8 0.9-2.8 2.7-15.2-0.6-18.2-0.9-0.8-1.4-1.3-2.5-2-3.8-2.5-8.4-4.2-8.6-4.3-1-0.4-2.1-0.1-2.8 0.7l-4.4 5.5-4.5-5.5c-0.7-1-2.2-1.1-3.3-0.5-1 0.7-1.3 2-0.5 3l6.3 7.9c0.4 0.5 1.1 0.9 1.9 0.9 0.7 0 1.4-0.3 1.9-0.9l5.2-6.5c1.5 0.7 3.9 1.7 5.9 3.1 0.8 0.5 1.1 0.8 1.9 1.5 1 1.5 0.6 10.2-0.5 14.2-1.1 3.6-4.3 8.9-4.4 8.9 0 0-0.1 0.1-0.1 0.2-0.8 1.6-1.3 3.3-1.5 5.1l-4.4 38.6c0 0.1-0.2 0.3-0.3 0.3h-7.5c-0.2 0-0.3-0.1-0.3-0.3l-4.4-38.6c-0.2-1.7-0.7-3.5-1.5-5.1-0.5-1.1-1.8-1.5-3-1.1z"/>
		<path d="m132.4 71.7h0.2 0.1 0.2c3 0 5.5-1 7.4-2.9 3.8-3.9 3.3-10.4 3.2-11.3-0.4-7.2-5.9-9.7-10.6-9.7h-0.2-0.2c-4.6 0-10.1 2.6-10.6 9.7-0.1 0.8-0.6 7.3 3.2 11.3 1.8 1.8 4.3 2.8 7.3 2.9zm-5.8-13.8v-0.1c0.3-5 3.8-5.8 5.9-5.8h0.1 0.2 0.1c2.1 0 5.6 0.7 5.9 5.8v0.1c0.2 1.5 0.1 5.9-2.1 8.1-1 1-2.3 1.4-4 1.5h-0.1c-1.7 0-3-0.5-4-1.5-2.2-2.2-2.2-6.6-2-8.1z"/>
		<path d="m79.8 76c-3.5 3.1-1.5 16.3-0.6 19.3 1.2 4.1 4.5 9.6 5 10.4 0.6 1.3 1 2.6 1.2 4l4.6 41.1c0.3 2.4 2.5 4.2 5.2 4.2h8c2.7 0 4.9-1.8 5.2-4.2l4.6-41.1c0.2-1.4 0.5-2.7 1.2-4 0.5-0.8 3.8-6.3 5-10.4 0.9-3 2.9-16.2-0.6-19.3-1-0.9-1.5-1.3-2.6-2.1-4.1-2.7-8.9-4.5-9.1-4.6-1-0.4-2.1-0.1-2.8 0.7l-4.9 6-4.9-6c-0.6-0.8-1.8-1.1-2.8-0.7-0.2 0.1-5.1 1.9-9.1 4.6-1.1 0.8-1.7 1.3-2.6 2.1zm3.3 3c0.9-0.8 1.2-1.1 2.1-1.6 2.2-1.5 4.8-2.7 6.5-3.4l5.6 7c0.4 0.5 1.1 0.9 1.9 0.9s1.4-0.3 1.9-0.9l5.6-7c1.6 0.7 4.2 1.9 6.5 3.4 0.9 0.6 1.2 0.9 2.1 1.6 1.1 1.6 0.7 10.9-0.6 15.2-1.2 3.8-4.6 9.5-4.7 9.5 0 0-0.1 0.1-0.1 0.2-0.8 1.7-1.4 3.5-1.6 5.4l-4.6 41.1c0 0.2-0.2 0.4-0.5 0.4h-8c-0.3 0-0.5-0.2-0.5-0.4l-4.7-41.1c-0.2-1.8-0.7-3.7-1.6-5.4 0-0.1-0.1-0.1-0.1-0.2 0 0-3.5-5.7-4.7-9.5-1.2-4.3-1.5-13.7-0.5-15.2z"/>
		<path d="m98.9 66.2h0.2 0.1 0.2c3.2 0 5.8-1.1 7.7-3.1 4.1-4.1 3.5-11.1 3.4-11.9-0.4-7.6-6.2-10.3-11.1-10.3h-0.2-0.2c-4.9 0-10.7 2.7-11.1 10.3-0.1 0.8-0.7 7.8 3.4 11.9 1.9 2 4.5 3 7.6 3.1zm-6.4-14.6v-0.1c0.3-5.7 4.6-6.3 6.4-6.3h0.1 0.2 0.1c1.8 0 6.1 0.6 6.4 6.3v0.1c0.2 1.6 0.2 6.3-2.2 8.7-1.1 1.1-2.5 1.6-4.4 1.6h-0.1c-1.9 0-3.3-0.5-4.4-1.6-2.2-2.4-2.3-7.1-2.1-8.7z"/>
	</g>
</g>
<g display="none">
	<g display="inline" fill="#fff">
		<path id="XMLID_455_" d="m155.5 148h-53.4c-2.4 0-4.3-1.7-4.3-3.9v-47h62v46.9c0 2.2-1.9 4-4.3 4z"/>
		<path d="m51.8 150.1h35.8c1.3 0 2.4-1 2.4-2.1 0-1.2-1.1-2.1-2.4-2.1h-35.8c-6.4 0-11.6-4.7-11.6-10.6v-67.8h16v9c0 1.2 1.1 2.1 2.4 2.1s2.4-1 2.4-2.1v-9h31.4v9c0 1.2 1.1 2.1 2.4 2.1s2.4-1 2.4-2.1v-9h16v4.8c0 1.2 1.1 2.1 2.4 2.1s2.4-1 2.4-2.1v-7c0-1.2-1.1-2.1-2.4-2.1h-18.6c-0.3-10-9.3-18-20.4-18s-20.1 8.1-20.4 18h-18.3c-1.3 0-2.4 1-2.4 2.1v69.9c0 8.2 7.3 14.9 16.3 14.9zm24.8-100.6c8.4 0 15.3 6.1 15.7 13.8h-31.4c0.3-7.7 7.2-13.8 15.7-13.8z"/>
		<path d="m112.2 92.1v2.9h-14.4c-1.3 0-2.4 1-2.4 2.1v42.9c0 5.5 4.9 10 11 10h44.7c6.1 0 11-4.5 11-10v-42.9c0-1.2-1.1-2.1-2.4-2.1h-14.4v-2.9c0-8.4-7.5-15.2-16.6-15.2s-16.5 6.9-16.5 15.2zm45.3 7.2v40.8c0 3.2-2.8 5.7-6.3 5.7h-44.7c-3.5 0-6.3-2.6-6.3-5.7v-40.8h12v6c0 1.2 1.1 2.1 2.4 2.1s2.4-1 2.4-2.1v-6h23.9v6c0 1.2 1.1 2.1 2.4 2.1s2.4-1 2.4-2.1v-6h11.8zm-28.7-18.1c6.6 0 11.9 4.9 11.9 10.9v2.9h-23.9v-2.9c0.1-6 5.4-10.9 12-10.9z"/>
	</g>
</g>
<g display="none" fill="#fff">
	<path d="m149.4 145.4l-16.2-37.7c-0.4-1-1.6-1.4-2.6-1s-1.5 1.5-1.1 2.5l14.6 34-13.4-3.7c-0.9-0.2-1.8 0.1-2.3 0.9l-6.7 11.7-15.7-36.5c18.1-3.4 31.9-18.8 31.9-37.2 0-20.9-17.6-37.9-39.3-37.9s-39.3 17-39.3 37.9c0 8.5 2.9 16.3 7.8 22.6l-19.1 44.4c-0.3 0.7-0.2 1.4 0.3 2 0.5 0.5 1.3 0.8 2 0.6l15.8-4.4 7.9 13.8c0.3 0.6 1 1 1.7 1h0.1c0.7 0 1.4-0.5 1.7-1.2l15.2-35.2c0.4-1-0.1-2.1-1.1-2.5s-2.1 0.1-2.6 1l-13.6 31.6-6.7-11.7c-0.4-0.8-1.4-1.1-2.3-0.9l-13.4 3.7 16.8-39c7.2 7.4 17.4 12 28.7 12 1.2 0 2.3-0.1 3.5-0.1l17.7 41c0.3 0.7 0.9 1.1 1.7 1.2h0.1c0.7 0 1.4-0.4 1.7-1l7.9-13.8 15.8 4.4c0.7 0.2 1.5 0 2-0.6 0.6-0.5 0.7-1.3 0.5-1.9zm-86.1-67c0-18.8 15.9-34.1 35.4-34.1s35.4 15.3 35.4 34.1-15.9 34.1-35.4 34.1-35.4-15.3-35.4-34.1z" display="inline"/>
	<path d="m121.3 71.3c-0.2-0.7-0.8-1.2-1.5-1.3l-13.1-2.1-6.2-11.4c-0.3-0.6-1-1-1.7-1s-1.4 0.4-1.7 1l-6.2 11.4-13.1 2.1c-0.7 0.1-1.3 0.6-1.5 1.3s0 1.4 0.5 1.9l9.3 9.2-2 12.7c-0.1 0.7 0.2 1.4 0.8 1.8s1.4 0.5 2 0.2l11.9-5.7 11.9 5.7c0.3 0.1 0.6 0.2 0.9 0.2 0.4 0 0.8-0.1 1.1-0.4 0.6-0.4 0.9-1.1 0.8-1.8l-2-12.7 9.3-9.2c0.5-0.5 0.7-1.2 0.5-1.9zm-13.3 9.1c-0.4 0.4-0.6 1-0.5 1.6l1.6 10-9.4-4.5c-0.3-0.1-0.6-0.2-0.9-0.2s-0.6 0.1-0.9 0.2l-9.4 4.5 1.6-10c0.1-0.6-0.1-1.2-0.5-1.6l-7.6-7.2 10.4-1.7c0.6-0.1 1.1-0.5 1.4-1l4.9-9 4.9 9c0.3 0.5 0.8 0.9 1.4 1l10.4 1.7-7.4 7.2z" display="inline"/>
	<path d="m128.3 80.3c-1.1-0.1-2.1 0.6-2.2 1.6-1.8 13.2-13.6 23.1-27.4 23.1-15.2 0-27.6-11.9-27.6-26.6s12.4-26.6 27.6-26.6c13.8 0 25.6 9.9 27.4 23.1 0.1 1 1.1 1.8 2.2 1.6 1.1-0.1 1.8-1.1 1.7-2.1-2.1-15-15.5-26.4-31.3-26.4-17.4 0-31.5 13.6-31.5 30.4s14.1 30.4 31.5 30.4c15.7 0 29.2-11.3 31.3-26.4 0.1-1-0.7-2-1.7-2.1z" display="inline"/>
</g>
<g id="icon_2_">
	<g id="icon">
			<path d="m98.8 135.2l-33.7-16.2-20.8 6.5 54.5 26.3 54.5-26.3-19.1-6.9-35.4 16.6zm54.5-62.2l-54.5-26.2-54.5 26.2 54.5 26.3 54.5-26.3zm-54.5 35.9l-33.6-16.2-20.8 6.5 54.5 26.3 54.5-26.3-19.1-6.9-35.5 16.6z" fill="#fff"/>
	</g>
</g>
</svg>
