<?xml version="1.0" encoding="utf-8"?>
<!-- Generator: Adobe Illustrator 17.1.0, SVG Export Plug-In . SVG Version: 6.00 Build 0)  -->
<!DOCTYPE svg PUBLIC "-//W3C//DTD SVG 1.1//EN" "http://www.w3.org/Graphics/SVG/1.1/DTD/svg11.dtd">
<svg version="1.1" id="Layer_1" xmlns="http://www.w3.org/2000/svg" xmlns:xlink="http://www.w3.org/1999/xlink" x="0px" y="0px"
	 viewBox="0 0 301 259" enable-background="new 0 0 301 259" xml:space="preserve">
<ellipse fill="none" stroke="#ED1F24" stroke-width="3" stroke-miterlimit="10" cx="125.9" cy="131.6" rx="123.6" ry="123.7"/>
<g id="Shape_1">
	<g>
		<path fill="#ED1F24" d="M154.6,141.5c0,2.5,2.4,4.5,5.3,4.5c2.9,0,5.3-2,5.3-4.5c0-2.5-2.4-4.5-5.3-4.5
			C156.9,137.1,154.6,139.2,154.6,141.5z M179.9,128.5V105c0-5.5-5.3-10.2-11.8-10.2h-8l-8.2-12.7c-1.3-1.9-3.6-3.1-6.2-3.1
			c-1.3,0-2.4,0.3-3.5,0.8l-31.6,15.1H75.1c-6.5,0-11.8,4.7-11.8,10.2v70c0,5.5,5.3,10.2,11.8,10.2h92.8c6.5,0,11.8-4.7,11.8-10.2
			v-20.5h5.9v-26.1C185.8,128.5,179.9,128.5,179.9,128.5z M168.1,98.9c3.6,0,6.7,2.4,7,5.4h-8.9l-3.5-5.4H168.1z M144.3,83.2
			c1.1-0.5,2.6-0.3,3.1,0.8l13.1,20.3h-60.4L144.3,83.2z M175.2,175c0,3.4-3.1,6-7,6H75.3c-3.9,0-7-2.6-7-6v-70c0-3.4,3.1-6,7-6H102
			l-11.3,5.4H76.6c-1.3,0-2.4,0.9-2.4,2s1.1,2,2.4,2h98.5v20.1h-17.4c-8,0-14.7,5.5-14.7,12.6v0.9c0,6.9,6.5,12.6,14.7,12.6h17.4
			V175H175.2z M181,150.4h-23.4c-5.5,0-9.9-3.8-9.9-8.4V141c0-4.7,4.4-8.4,9.9-8.4H181V150.4z"/>
	</g>
</g>
<path fill="#EE2C34" d="M288.3,182.5c-11.1,19.7-25.6,35-44.3,46.8c-22.7,14.3-47.7,23.1-74.5,27.5c-1.9,0.3-4.3,0.9-5-1.5
	c-0.8-3,2.2-3,4.1-3.4c18.8-3.7,37.1-9.1,54.2-17.5c23.6-11.4,43.4-26.8,56.6-48.9c0.8-1.3,1.5-2.7,2.2-4.1c0.5-0.9,0.9-2-0.1-2.8
	c-1-0.7-2-0.1-2.9,0.6c-2.6,2-5.3,4-7.9,6c-1,0.7-2,2.1-3.2,1.1c-1.5-1.2,0-2.4,0.9-3.4c5.7-6.3,11.5-12.5,16.4-19.3
	c1.6-2.2,3.2-4.5,4.8-6.7c0.7-1,1.1-2.5,2.5-2.4c1.6,0.1,2.2,1.7,2.5,3c0.8,2.9,1.6,5.9,2,8.9c1.5,10.6,1.3,21.2,1.3,31.9
	c0,1.4,0.4,3.7-1.6,3.7c-2.2,0-1.4-2.3-1.7-3.7C293.1,193.2,291.4,188.2,288.3,182.5z"/>
</svg>
