<?xml version="1.0" encoding="utf-8"?>
<!-- Generator: Adobe Illustrator 17.1.0, SVG Export Plug-In . SVG Version: 6.00 Build 0)  -->
<!DOCTYPE svg PUBLIC "-//W3C//DTD SVG 1.1//EN" "http://www.w3.org/Graphics/SVG/1.1/DTD/svg11.dtd">
<svg version="1.1" id="Layer_1" xmlns="http://www.w3.org/2000/svg" xmlns:xlink="http://www.w3.org/1999/xlink" x="0px" y="0px"
	 viewBox="0 0 301 259" enable-background="new 0 0 301 259" xml:space="preserve">
<ellipse fill="none" stroke="#ED1F24" stroke-width="3" stroke-miterlimit="10" cx="125.9" cy="131.6" rx="123.6" ry="123.7"/>
<g id="Shape_1" display="none">
	<g display="inline">
		<path fill="#ED1F24" d="M154.6,141.5c0,2.5,2.4,4.5,5.3,4.5c2.9,0,5.3-2,5.3-4.5c0-2.5-2.4-4.5-5.3-4.5
			C156.9,137.1,154.6,139.2,154.6,141.5z M179.9,128.5V105c0-5.5-5.3-10.2-11.8-10.2h-8l-8.2-12.7c-1.3-1.9-3.6-3.1-6.2-3.1
			c-1.3,0-2.4,0.3-3.5,0.8l-31.6,15.1H75.1c-6.5,0-11.8,4.7-11.8,10.2v70c0,5.5,5.3,10.2,11.8,10.2h92.8c6.5,0,11.8-4.7,11.8-10.2
			v-20.5h5.9v-26.1C185.8,128.5,179.9,128.5,179.9,128.5z M168.1,98.9c3.6,0,6.7,2.4,7,5.4h-8.9l-3.5-5.4H168.1z M144.3,83.2
			c1.1-0.5,2.6-0.3,3.1,0.8l13.1,20.3h-60.4L144.3,83.2z M175.2,175c0,3.4-3.1,6-7,6H75.3c-3.9,0-7-2.6-7-6v-70c0-3.4,3.1-6,7-6H102
			l-11.3,5.4H76.6c-1.3,0-2.4,0.9-2.4,2s1.1,2,2.4,2h98.5v20.1h-17.4c-8,0-14.7,5.5-14.7,12.6v0.9c0,6.9,6.5,12.6,14.7,12.6h17.4
			V175H175.2z M181,150.4h-23.4c-5.5,0-9.9-3.8-9.9-8.4V141c0-4.7,4.4-8.4,9.9-8.4H181V150.4z"/>
	</g>
</g>
<path fill="#EE2C34" d="M288.3,182.5c-11.1,19.7-25.6,35-44.3,46.8c-22.7,14.3-47.7,23.1-74.5,27.5c-1.9,0.3-4.3,0.9-5-1.5
	c-0.8-3,2.2-3,4.1-3.4c18.8-3.7,37.1-9.1,54.2-17.5c23.6-11.4,43.4-26.8,56.6-48.9c0.8-1.3,1.5-2.7,2.2-4.1c0.5-0.9,0.9-2-0.1-2.8
	c-1-0.7-2-0.1-2.9,0.6c-2.6,2-5.3,4-7.9,6c-1,0.7-2,2.1-3.2,1.1c-1.5-1.2,0-2.4,0.9-3.4c5.7-6.3,11.5-12.5,16.4-19.3
	c1.6-2.2,3.2-4.5,4.8-6.7c0.7-1,1.1-2.5,2.5-2.4c1.6,0.1,2.2,1.7,2.5,3c0.8,2.9,1.6,5.9,2,8.9c1.5,10.6,1.3,21.2,1.3,31.9
	c0,1.4,0.4,3.7-1.6,3.7c-2.2,0-1.4-2.3-1.7-3.7C293.1,193.2,291.4,188.2,288.3,182.5z"/>
<ellipse display="none" fill="none" stroke="#EE2E33" stroke-width="3" stroke-miterlimit="10" cx="125.7" cy="130.9" rx="125.7" ry="125"/>
<g display="none">
	<path display="inline" fill="#EE2E33" d="M185.9,107.6V81.8h-47.9c-1.2,0-2.2,0.8-2.2,1.8c0,1,0.9,1.8,2.2,1.8h36.7l-8.9,7.9
		c-0.1,0.1-0.1,0.1-0.3,0.3c-0.1,0.1-0.3,0.3-0.3,0.3l-0.1,0.1c0,0.1,0,0.3-0.1,0.3c0,0.1-0.1,0.3-0.1,0.3v0.1v12.9h-79V94.7v-0.1
		c0-0.1,0-0.3-0.1-0.3c0-0.1,0-0.3-0.1-0.3v0c-0.1-0.1-0.1-0.3-0.3-0.3c-0.1-0.1-0.1-0.1-0.3-0.3l-8.8-8h36.7c1.2,0,2.2-0.8,2.2-1.8
		s-0.9-1.8-2.2-1.8H64.9v25.7h-2.2V176c0,4.8,4.5,8.7,9.8,8.7h105.2c5.5,0,9.8-3.9,9.8-8.7v-68.5L185.9,107.6L185.9,107.6z
		 M181.7,85.5v22h-1l-10.7-12.7l10.6-9.4L181.7,85.5L181.7,85.5z M169.1,100.3l6.3,7.4h-6.3V100.3z M75.4,107.6l6.3-7.4v7.4H75.4z
		 M69.2,85.5h1.3l10.6,9.4l-10.7,12.7h-1L69.2,85.5L69.2,85.5z M183.7,176c0,2.7-2.6,5.1-5.6,5.1H72.7c-3.2,0-5.6-2.2-5.6-5.1v-64.8
		h116.7V176H183.7z"/>
	<path display="inline" fill="#EE2E33" d="M150.3,122.3c-1.2,0-2.2,0.8-2.2,1.8v11.1c0,11.1-10.2,20.2-22.9,20.2
		s-22.9-9.2-22.9-20.2v-11.1c0-1-0.9-1.8-2.2-1.8c-1.3,0-2.2,0.8-2.2,1.8v11.1c0,13.1,12.1,23.8,27.1,23.8s27.1-10.7,27.1-23.8
		v-11.1C152.5,123,151.6,122.3,150.3,122.3z"/>
	<path display="inline" fill="#EE2E33" d="M104.6,124.1c0,1,0.9,1.8,2.2,1.8c1.2,0,2.2-0.8,2.2-1.8c0-4.1-3.7-7.4-8.3-7.4
		s-8.4,3.3-8.4,7.4c0,1,0.9,1.8,2.2,1.8c1.3,0,2.2-0.8,2.2-1.8c0-2,1.8-3.7,4.2-3.7C102.7,120.4,104.6,122,104.6,124.1z"/>
	<path display="inline" fill="#EE2E33" d="M150.3,116.7c-4.6,0-8.3,3.3-8.3,7.4c0,1,0.9,1.8,2.2,1.8c1.2,0,2.2-0.8,2.2-1.8
		c0-2,1.8-3.7,4.2-3.7c2.3,0,4.2,1.7,4.2,3.7c0,1,0.9,1.8,2.2,1.8c1.2,0,2.2-0.8,2.2-1.8C158.8,120,155.1,116.7,150.3,116.7z"/>
	<path display="inline" fill="#EE2E33" d="M112.4,89.7c-0.8-0.8-2.2-0.8-2.9,0c-0.8,0.8-0.8,1.9,0,2.7l14.6,12.9
		c0.3,0.3,0.4,0.3,0.8,0.4c0.3,0.1,0.5,0.1,0.8,0.1s0.5,0,0.8-0.1s0.5-0.3,0.8-0.4l14.6-12.9c0.8-0.8,0.8-1.9,0-2.7
		c-0.8-0.8-2.2-0.8-2.9,0l-11.1,9.7v-23c0-1-0.9-1.8-2.2-1.8c-1.3,0-2.2,0.8-2.2,1.8v23.2L112.4,89.7z"/>
</g>
<ellipse display="none" fill="none" stroke="#EE2E33" stroke-width="3" stroke-miterlimit="10" cx="126.1" cy="131.5" rx="123.4" ry="123.9"/>
<g>
	<g>
		<path fill="#EE2E33" d="M121.5,67.6l-6.7,2.7c-3.6,1.4-5.3,5.4-3.8,9l1.6,4c-3.4,2.4-6.3,5.3-8.8,8.5L99.7,90
			c-1.6-0.8-3.6-0.8-5.4,0c-1.6,0.8-3.1,2-3.8,3.7l-2.8,6.6c-1.5,3.5,0.3,7.6,3.8,9l6.2,2.5c1.4,0.6,3-0.1,3.5-1.4
			c0.6-1.4-0.1-2.9-1.5-3.4l-6.2-2.5c-0.8-0.3-1.3-1.3-0.9-2l2.8-6.6c0.3-0.4,0.5-0.8,0.9-0.8c0.4-0.3,0.8-0.3,1.3,0l6.2,2.5
			c1.3,0.5,2.6,0.1,3.3-1c2.8-4,6.3-7.4,10.4-10.1c1.1-0.8,1.5-2,1-3.2l-2.6-6.1c-0.3-0.8,0.1-1.6,0.9-2l6.7-2.7
			c0.4-0.3,0.8-0.3,1.3,0c0.4,0.3,0.8,0.5,0.9,0.8l2.6,6.1c0.5,1.3,1.8,1.8,3,1.6c4.9-1,9.9-0.9,14.7,0c1.3,0.3,2.6-0.4,3-1.6
			l2.6-6.1c0.3-0.8,1.3-1.3,2.1-0.8l6.7,2.7c0.4,0.3,0.8,0.5,0.9,0.8c0.3,0.4,0.3,0.8,0,1.3l-2.6,6.1c-0.5,1.3-0.1,2.5,1,3.2
			c4.1,2.7,7.7,6.1,10.4,10.1c0.8,1,2.1,1.5,3.3,1l6.2-2.5c0.4-0.3,0.8-0.3,1.3,0c0.4,0.3,0.8,0.5,0.9,0.8l2.8,6.6
			c0.3,0.4,0.3,0.8,0,1.3c-0.3,0.4-0.5,0.8-0.9,0.8l-6.2,2.5c-1.3,0.5-1.9,1.6-1.6,2.9c1,4.7,1,9.6,0,14.3c-0.3,1.3,0.4,2.5,1.6,2.9
			l6.2,2.5c0.8,0.3,1.3,1.3,0.9,2l-2.8,6.6c-0.3,0.8-1.3,1.3-2.1,0.8l-6.2-2.5c-1.3-0.5-2.6-0.1-3.3,1c-2.8,4-6.3,7.4-10.4,10.1
			c-1.1,0.8-1.5,2-1,3.2l2.6,6.1c0.3,0.4,0.3,0.8,0,1.3c-0.3,0.4-0.5,0.8-0.9,0.8l-6.7,2.7c-0.4,0.3-0.8,0.3-1.3,0
			c-0.4-0.3-0.8-0.5-0.9-0.8l-2.6-6.1c-0.6-1.4-2.1-2-3.5-1.4s-2.1,2.1-1.5,3.4l2.6,6.1c0.8,1.6,2.1,3,3.8,3.7
			c0.9,0.3,1.8,0.5,2.6,0.5s1.8-0.3,2.6-0.5l6.7-2.7c1.6-0.8,3.1-2,3.8-3.7c0.6-1.6,0.8-3.5,0-5.2l-1.6-4c3.4-2.4,6.3-5.3,8.8-8.5
			l4.1,1.6c3.6,1.4,7.7-0.3,9.2-3.7l2.8-6.6c1.5-3.5-0.3-7.6-3.8-9l-4.1-1.6c0.6-4,0.6-8.1,0-12.1l4.1-1.6c1.6-0.8,3.1-2,3.8-3.7
			c0.6-1.6,0.8-3.5,0-5.2l-2.8-6.6c-0.8-1.6-2.1-3-3.8-3.7c-1.6-0.8-3.6-0.8-5.4,0l-4.1,1.6c-2.5-3.3-5.5-6.1-8.8-8.5l1.6-4
			c0.8-1.6,0.8-3.5,0-5.2c-0.8-1.6-2.1-3-3.8-3.7l-6.7-2.7c-3.6-1.4-7.7,0.3-9.2,3.7l-1.6,4c-4.1-0.6-8.3-0.6-12.4,0l-1.6-4
			c-0.8-1.6-2.1-3-3.8-3.7C125.1,66.8,123.2,66.8,121.5,67.6z"/>
		<path fill="#EE2E33" d="M160.6,116.8c-0.1-11.7-9.9-21.2-22-21.2c-0.1,0-0.1,0-0.3,0c-5.9,0.1-11.3,2.3-15.6,6.4
			c-4.1,4.2-6.4,9.5-6.4,15.1c0,1.4,1.3,2.7,2.6,2.7l0,0c1.5,0,2.6-1.3,2.6-2.7c0-4.3,1.6-8.5,4.8-11.4c3.1-3.2,7.3-4.8,11.7-4.8
			h0.1c9,0,16.6,7.2,16.7,16c0.1,9-7.4,16.3-16.6,16.3c-1.5,0-2.6,1.3-2.6,2.7c0,1.4,1.3,2.7,2.6,2.7l0,0
			C151,138.2,160.8,128.5,160.6,116.8z"/>
		<path fill="#EE2E33" d="M92.8,196h5.3c3.1,0,5.9-2.5,5.9-5.7v-2.7c2.6-0.8,5.1-1.6,7.5-3l1.9,1.9c1.1,1.1,2.6,1.6,4.1,1.6
			c1.5,0,3-0.6,4.1-1.6l3.6-3.7c1.1-1.1,1.6-2.5,1.6-4c0-1.5-0.6-2.9-1.6-4l-1.9-1.9c1.4-2.3,2.4-4.7,3.1-7.3h2.6
			c3.1,0,5.9-2.5,5.9-5.7v-5c0-3.2-2.6-5.7-5.9-5.7h-2.6c-0.8-2.5-1.8-5-3.1-7.3l1.9-1.9c1.1-1.1,1.6-2.5,1.6-4s-0.6-2.9-1.6-4
			l-3.6-3.7c-1.1-1.1-2.6-1.6-4.1-1.6c-1.6,0-3,0.6-4.1,1.6l-1.9,2c-2.4-1.3-4.9-2.3-7.5-3v-2.7c0-3.2-2.6-5.7-5.9-5.7h-5.3
			c-3.1,0-5.9,2.5-5.9,5.7v2.7c-2.6,0.8-5.1,1.6-7.5,3l-1.9-1.9c-1.1-1.1-2.6-1.6-4.1-1.6c-1.6,0-3,0.6-4.1,1.6l-3.6,3.7
			c-2.3,2.1-2.3,5.8,0,8l1.9,1.9c-1.4,2.3-2.4,4.7-3.1,7.3h-2.5c-3.1,0-5.9,2.5-5.9,5.7v5c0,3.2,2.6,5.7,5.9,5.7h2.6
			c0.8,2.5,1.8,5,3.1,7.3l-1.9,1.9c-2.3,2.1-2.3,5.8,0,8l3.6,3.7c1.1,1.1,2.6,1.6,4.1,1.6c1.6,0,3-0.6,4.1-1.6l1.9-1.9
			c2.4,1.3,4.9,2.3,7.5,3v2.7C87.1,193.5,89.7,196,92.8,196z M80.6,179.2c-0.5-0.3-1-0.5-1.5-0.5c-0.8,0-1.4,0.3-1.9,0.8l-3.4,3.3
			c-0.1,0.1-0.3,0.1-0.3,0.1c-0.1,0-0.3,0-0.3-0.1l-3.6-3.7c-0.3-0.3-0.3-0.4,0-0.6l3.4-3.3c0.9-0.9,1.1-2.3,0.3-3.3
			c-2-2.8-3.3-6.1-4-9.3c-0.3-1.3-1.4-2.1-2.6-2.1h-4.9c-0.3,0-0.4-0.3-0.4-0.4v-5c0-0.3,0.3-0.4,0.4-0.4h4.9c1.3,0,2.4-0.9,2.6-2.1
			c0.8-3.3,2-6.6,4-9.3c0.8-1,0.6-2.4-0.3-3.3l-3.4-3.3c-0.3-0.3-0.3-0.4,0-0.6l3.6-3.7c0.1-0.1,0.3-0.1,0.3-0.1
			c0.1,0,0.3,0,0.3,0.1l3.4,3.4c0.9,0.9,2.4,1,3.4,0.3c2.9-1.9,6.2-3.2,9.7-3.9c1.3-0.3,2.1-1.3,2.1-2.7v-4.7c0-0.3,0.3-0.4,0.4-0.4
			h5.4c0.3,0,0.4,0.3,0.4,0.4v4.7c0,1.3,0.9,2.3,2.1,2.7c3.5,0.8,6.7,2,9.7,3.9c1.1,0.8,2.5,0.6,3.4-0.3l3.4-3.3
			c0.1-0.1,0.3-0.1,0.3-0.1c0.1,0,0.3,0,0.3,0.1l3.6,3.7c0.1,0.1,0.1,0.3,0.1,0.3c0,0.1,0,0.3-0.1,0.3l-3.4,3.3
			c-0.9,0.9-1.1,2.3-0.3,3.3c2,2.8,3.3,6.1,4,9.3c0.3,1.3,1.4,2.1,2.6,2.1h4.9c0.3,0,0.4,0.3,0.4,0.4v5c0,0.3-0.3,0.4-0.4,0.4h-4.6
			c-1.3,0-2.4,0.9-2.6,2.1c-0.8,3.3-2,6.6-4,9.3c-0.8,1-0.6,2.4,0.3,3.3l3.4,3.3c0.1,0.1,0.1,0.3,0.1,0.3c0,0.1,0,0.3-0.1,0.3
			l-3.6,3.7c-0.1,0.1-0.3,0.1-0.3,0.1c-0.1,0-0.3,0-0.3-0.1l-3.4-3.3c-0.9-0.9-2.4-1-3.4-0.3c-2.9,1.9-6.2,3.2-9.7,3.9
			c-1.3,0.3-2.1,1.3-2.1,2.7v4.7c0,0.3-0.3,0.4-0.4,0.4h-5.3c-0.3,0-0.4-0.3-0.4-0.4v-4.5c0-1.3-0.9-2.3-2.1-2.7
			C86.9,182.4,83.5,181.1,80.6,179.2z"/>
		<path fill="#EE2E33" d="M111.7,157.5c0-8.6-7.2-15.6-16.1-15.6s-16.1,7.1-16.1,15.6c0,8.6,7.2,15.6,16.1,15.6
			S111.7,166.2,111.7,157.5z M84.9,157.5c0-5.7,4.8-10.3,10.7-10.3c5.9,0,10.7,4.7,10.7,10.3c0,5.7-4.8,10.3-10.7,10.3
			C89.7,167.9,84.9,163.3,84.9,157.5z"/>
	</g>
</g>
</svg>
