<?xml version="1.0" encoding="utf-8"?>
<!-- Generator: Adobe Illustrator 17.1.0, SVG Export Plug-In . SVG Version: 6.00 Build 0)  -->
<!DOCTYPE svg PUBLIC "-//W3C//DTD SVG 1.1//EN" "http://www.w3.org/Graphics/SVG/1.1/DTD/svg11.dtd">
<svg version="1.1" id="Layer_1" xmlns="http://www.w3.org/2000/svg" xmlns:xlink="http://www.w3.org/1999/xlink" x="0px" y="0px"
	 viewBox="0 0 200 200" enable-background="new 0 0 200 200" xml:space="preserve">
<ellipse fill="none" stroke="#FF202A" stroke-width="3" stroke-miterlimit="10" cx="100.2" cy="100" rx="98.3" ry="98.2"/>
<g id="Shape_1" display="none">
	<g display="inline">
		<path fill="#ED2224" d="M127.1,104.4c-2.3,0-4.2,1.6-4.2,3.6c0,2,1.9,3.6,4.2,3.6c2.3,0,4.2-1.6,4.2-3.6
			C131.3,106,129.4,104.4,127.1,104.4z M143.1,97.5V78.9c0-4.4-4.2-8.1-9.4-8.1h-6.4l-6.5-10.1c-1-1.5-2.9-2.5-4.9-2.5
			c-1,0-1.9,0.2-2.8,0.6l-25.1,12H59.8c-5.2,0-9.4,3.7-9.4,8.1v55.6c0,4.4,4.2,8.1,9.4,8.1h73.8c5.2,0,9.4-3.7,9.4-8.1v-16.3h4.7
			V97.5C147.8,97.5,143.1,97.5,143.1,97.5z M133.7,74c2.9,0,5.3,1.9,5.6,4.3h-7.1l-2.8-4.3H133.7z M114.8,61.6
			c0.9-0.4,2.1-0.2,2.5,0.6l10.4,16.1h-48L114.8,61.6z M139.4,134.5c0,2.7-2.5,4.8-5.6,4.8H59.9c-3.1,0-5.6-2.1-5.6-4.8V78.9
			c0-2.7,2.5-4.8,5.6-4.8h21.3l-9,4.3H61c-1,0-1.9,0.7-1.9,1.6s0.9,1.6,1.9,1.6h4.2h69h5.1v16h-13.8c-6.4,0-11.7,4.4-11.7,10v0.7
			c0,5.5,5.2,10,11.7,10h13.8V134.5z M144,114.9h-1h-17.6c-4.4,0-7.9-3-7.9-6.7v-0.7c0-3.7,3.5-6.7,7.9-6.7h17.6h1V114.9z"/>
	</g>
</g>
<g display="none">
	<path display="inline" fill="#D81F2A" d="M147.3,81.7V61.4h-37.5c-0.9,0-1.7,0.6-1.7,1.4s0.7,1.4,1.7,1.4h28.7l-7,6.2
		c-0.1,0.1-0.1,0.1-0.2,0.2c-0.1,0.1-0.2,0.2-0.2,0.2l-0.1,0.1c0,0.1,0,0.2-0.1,0.2c0,0.1-0.1,0.2-0.1,0.2v0.1v10.1H69v-10v-0.1
		c0-0.1,0-0.2-0.1-0.2c0-0.1,0-0.2-0.1-0.2L68.8,71c-0.1-0.1-0.1-0.2-0.2-0.2c-0.1-0.1-0.1-0.1-0.2-0.2l-6.9-6.3h28.7
		c0.9,0,1.7-0.6,1.7-1.4c0-0.8-0.7-1.4-1.7-1.4H52.7v20.2H51v53.7c0,3.8,3.5,6.8,7.7,6.8H141c4.3,0,7.7-3.1,7.7-6.8V81.6L147.3,81.7
		L147.3,81.7z M144,64.3v17.3h-0.8l-8.4-10l8.3-7.4L144,64.3L144,64.3z M134.2,75.9l4.9,5.8h-4.9V75.9z M60.9,81.7l4.9-5.8v5.8H60.9
		z M56,64.3h1l8.3,7.4l-8.4,10h-0.8L56,64.3L56,64.3z M145.6,135.4c0,2.1-2,4-4.4,4H58.8c-2.5,0-4.4-1.7-4.4-4V84.5h91.3V135.4z"/>
	<path display="inline" fill="#D81F2A" d="M119.5,93.2c-0.9,0-1.7,0.6-1.7,1.4v8.7c0,8.7-8,15.9-17.9,15.9S82,112,82,103.3v-8.7
		c0-0.8-0.7-1.4-1.7-1.4s-1.7,0.6-1.7,1.4v8.7c0,10.3,9.5,18.7,21.2,18.7s21.2-8.4,21.2-18.7v-8.7C121.2,93.8,120.5,93.2,119.5,93.2
		z"/>
	<path display="inline" fill="#D81F2A" d="M83.7,94.6c0,0.8,0.7,1.4,1.7,1.4c0.9,0,1.7-0.6,1.7-1.4c0-3.2-2.9-5.8-6.5-5.8
		S74,91.4,74,94.6c0,0.8,0.7,1.4,1.7,1.4s1.7-0.6,1.7-1.4c0-1.6,1.4-2.9,3.3-2.9C82.2,91.7,83.7,93,83.7,94.6z"/>
	<path display="inline" fill="#D81F2A" d="M119.5,88.8c-3.6,0-6.5,2.6-6.5,5.8c0,0.8,0.7,1.4,1.7,1.4c0.9,0,1.7-0.6,1.7-1.4
		c0-1.6,1.4-2.9,3.3-2.9c1.8,0,3.3,1.3,3.3,2.9c0,0.8,0.7,1.4,1.7,1.4c0.9,0,1.7-0.6,1.7-1.4C126.1,91.4,123.2,88.8,119.5,88.8z"/>
	<path display="inline" fill="#D81F2A" d="M89.8,67.6c-0.6-0.6-1.7-0.6-2.3,0c-0.6,0.6-0.6,1.5,0,2.1l11.4,10.1
		c0.2,0.2,0.3,0.2,0.6,0.3c0.2,0.1,0.4,0.1,0.6,0.1s0.4,0,0.6-0.1s0.4-0.2,0.6-0.3l11.4-10.1c0.6-0.6,0.6-1.5,0-2.1
		c-0.6-0.6-1.7-0.6-2.3,0l-8.7,7.6V57.1c0-0.8-0.7-1.4-1.7-1.4s-1.7,0.6-1.7,1.4v18.2L89.8,67.6z"/>
</g>
<g>
	<g>
		<path fill="#FF202A" d="M96.5,49.3l-5.3,2.1c-2.9,1.1-4.2,4.3-3,7.1l1.3,3.2c-2.7,1.9-5,4.2-7,6.7l-3.3-1.3
			c-1.3-0.6-2.9-0.6-4.3,0c-1.3,0.6-2.5,1.6-3,2.9l-2.2,5.2c-1.2,2.8,0.2,6,3,7.1l4.9,2c1.1,0.5,2.4-0.1,2.8-1.1
			c0.5-1.1-0.1-2.3-1.2-2.7l-4.9-2c-0.6-0.2-1-1-0.7-1.6l2.2-5.2c0.2-0.3,0.4-0.6,0.7-0.6c0.3-0.2,0.6-0.2,1,0l4.9,2
			c1,0.4,2.1,0.1,2.6-0.8c2.2-3.2,5-5.9,8.3-8c0.9-0.6,1.2-1.6,0.8-2.5l-2.1-4.8c-0.2-0.6,0.1-1.3,0.7-1.6l5.3-2.1
			c0.3-0.2,0.6-0.2,1,0c0.3,0.2,0.6,0.4,0.7,0.6l2.1,4.8c0.4,1,1.4,1.4,2.4,1.3c3.9-0.8,7.9-0.7,11.7,0c1,0.2,2.1-0.3,2.4-1.3
			l2.1-4.8c0.2-0.6,1-1,1.7-0.6l5.3,2.1c0.3,0.2,0.6,0.4,0.7,0.6c0.2,0.3,0.2,0.6,0,1l-2.1,4.8c-0.4,1-0.1,2,0.8,2.5
			c3.3,2.1,6.1,4.8,8.3,8c0.6,0.8,1.7,1.2,2.6,0.8l4.9-2c0.3-0.2,0.6-0.2,1,0c0.3,0.2,0.6,0.4,0.7,0.6l2.2,5.2c0.2,0.3,0.2,0.6,0,1
			c-0.2,0.3-0.4,0.6-0.7,0.6l-4.9,2c-1,0.4-1.5,1.3-1.3,2.3c0.8,3.7,0.8,7.6,0,11.3c-0.2,1,0.3,2,1.3,2.3l4.9,2c0.6,0.2,1,1,0.7,1.6
			l-2.2,5.2c-0.2,0.6-1,1-1.7,0.6l-4.9-2c-1-0.4-2.1-0.1-2.6,0.8c-2.2,3.2-5,5.9-8.3,8c-0.9,0.6-1.2,1.6-0.8,2.5l2.1,4.8
			c0.2,0.3,0.2,0.6,0,1c-0.2,0.3-0.4,0.6-0.7,0.6l-5.3,2.1c-0.3,0.2-0.6,0.2-1,0c-0.3-0.2-0.6-0.4-0.7-0.6l-2.1-4.8
			c-0.5-1.1-1.7-1.6-2.8-1.1c-1.1,0.5-1.7,1.7-1.2,2.7l2.1,4.8c0.6,1.3,1.7,2.4,3,2.9c0.7,0.2,1.4,0.4,2.1,0.4
			c0.7,0,1.4-0.2,2.1-0.4l5.3-2.1c1.3-0.6,2.5-1.6,3-2.9s0.6-2.8,0-4.1l-1.3-3.2c2.7-1.9,5-4.2,7-6.7l3.3,1.3
			c2.9,1.1,6.1-0.2,7.3-2.9l2.2-5.2c1.2-2.8-0.2-6-3-7.1l-3.3-1.3c0.5-3.2,0.5-6.4,0-9.6l3.3-1.3c1.3-0.6,2.5-1.6,3-2.9
			s0.6-2.8,0-4.1l-2.2-5.2c-0.6-1.3-1.7-2.4-3-2.9c-1.3-0.6-2.9-0.6-4.3,0l-3.3,1.3c-2-2.6-4.4-4.8-7-6.7l1.3-3.2
			c0.6-1.3,0.6-2.8,0-4.1c-0.6-1.3-1.7-2.4-3-2.9l-5.3-2.1c-2.9-1.1-6.1,0.2-7.3,2.9l-1.3,3.2c-3.3-0.5-6.6-0.5-9.9,0l-1.3-3.2
			c-0.6-1.3-1.7-2.4-3-2.9C99.4,48.7,97.9,48.7,96.5,49.3z"/>
		<path fill="#FF202A" d="M127.7,88.3c-0.1-9.3-7.9-16.8-17.5-16.8c-0.1,0-0.1,0-0.2,0c-4.7,0.1-9,1.8-12.4,5.1
			c-3.3,3.3-5.1,7.5-5.1,12c0,1.1,1,2.1,2.1,2.1l0,0c1.2,0,2.1-1,2.1-2.1c0-3.4,1.3-6.7,3.8-9c2.5-2.5,5.8-3.8,9.3-3.8h0.1
			c7.2,0,13.2,5.7,13.3,12.7c0.1,7.1-5.9,12.9-13.2,12.9c-1.2,0-2.1,1-2.1,2.1c0,1.1,1,2.1,2.1,2.1l0,0
			C120,105.3,127.8,97.6,127.7,88.3z"/>
		<path fill="#FF202A" d="M73.7,151.1h4.2c2.5,0,4.7-2,4.7-4.5v-2.1c2.1-0.6,4.1-1.3,6-2.4l1.5,1.5c0.9,0.9,2.1,1.3,3.3,1.3
			c1.2,0,2.4-0.5,3.3-1.3l2.9-2.9c0.9-0.9,1.3-2,1.3-3.2s-0.5-2.3-1.3-3.2l-1.5-1.5c1.1-1.8,1.9-3.7,2.5-5.8h2.1
			c2.5,0,4.7-2,4.7-4.5v-4c0-2.5-2.1-4.5-4.7-4.5h-2.1c-0.6-2-1.4-4-2.5-5.8l1.5-1.5c0.9-0.9,1.3-2,1.3-3.2s-0.5-2.3-1.3-3.2
			l-2.9-2.9c-0.9-0.9-2.1-1.3-3.3-1.3c-1.3,0-2.4,0.5-3.3,1.3L88.6,99c-1.9-1-3.9-1.8-6-2.4v-2.1c0-2.5-2.1-4.5-4.7-4.5h-4.2
			c-2.5,0-4.7,2-4.7,4.5v2.1c-2.1,0.6-4.1,1.3-6,2.4l-1.5-1.5c-0.9-0.9-2.1-1.3-3.3-1.3c-1.3,0-2.4,0.5-3.3,1.3l-2.9,2.9
			c-1.8,1.7-1.8,4.6,0,6.3l1.5,1.5c-1.1,1.8-1.9,3.7-2.5,5.8H49c-2.5,0-4.7,2-4.7,4.5v4c0,2.5,2.1,4.5,4.7,4.5h2.1
			c0.6,2,1.4,4,2.5,5.8l-1.5,1.5c-1.8,1.7-1.8,4.6,0,6.3l2.9,2.9c0.9,0.9,2.1,1.3,3.3,1.3c1.3,0,2.4-0.5,3.3-1.3l1.5-1.5
			c1.9,1,3.9,1.8,6,2.4v2.1C69.1,149.1,71.2,151.1,73.7,151.1z M64,137.8c-0.4-0.2-0.8-0.4-1.2-0.4c-0.6,0-1.1,0.2-1.5,0.6l-2.7,2.6
			c-0.1,0.1-0.2,0.1-0.2,0.1c-0.1,0-0.2,0-0.2-0.1l-2.9-2.9c-0.2-0.2-0.2-0.3,0-0.5l2.7-2.6c0.7-0.7,0.9-1.8,0.2-2.6
			c-1.6-2.2-2.6-4.8-3.2-7.4c-0.2-1-1.1-1.7-2.1-1.7H49c-0.2,0-0.3-0.2-0.3-0.3v-4c0-0.2,0.2-0.3,0.3-0.3h3.9c1,0,1.9-0.7,2.1-1.7
			c0.6-2.6,1.6-5.2,3.2-7.4c0.6-0.8,0.5-1.9-0.2-2.6l-2.7-2.6c-0.2-0.2-0.2-0.3,0-0.5l2.9-2.9c0.1-0.1,0.2-0.1,0.2-0.1
			c0.1,0,0.2,0,0.2,0.1l2.7,2.7c0.7,0.7,1.9,0.8,2.7,0.2c2.3-1.5,4.9-2.5,7.7-3.1c1-0.2,1.7-1,1.7-2.1v-3.7c0-0.2,0.2-0.3,0.3-0.3
			H78c0.2,0,0.3,0.2,0.3,0.3v3.7c0,1,0.7,1.8,1.7,2.1c2.8,0.6,5.3,1.6,7.7,3.1c0.9,0.6,2,0.5,2.7-0.2l2.7-2.6
			c0.1-0.1,0.2-0.1,0.2-0.1c0.1,0,0.2,0,0.2,0.1l2.9,2.9c0.1,0.1,0.1,0.2,0.1,0.2c0,0.1,0,0.2-0.1,0.2l-2.7,2.6
			c-0.7,0.7-0.9,1.8-0.2,2.6c1.6,2.2,2.6,4.8,3.2,7.4c0.2,1,1.1,1.7,2.1,1.7h3.9c0.2,0,0.3,0.2,0.3,0.3v4c0,0.2-0.2,0.3-0.3,0.3H99
			c-1,0-1.9,0.7-2.1,1.7c-0.6,2.6-1.6,5.2-3.2,7.4c-0.6,0.8-0.5,1.9,0.2,2.6l2.7,2.6c0.1,0.1,0.1,0.2,0.1,0.2c0,0.1,0,0.2-0.1,0.2
			l-2.9,2.9c-0.1,0.1-0.2,0.1-0.2,0.1c-0.1,0-0.2,0-0.2-0.1l-2.7-2.6c-0.7-0.7-1.9-0.8-2.7-0.2c-2.3,1.5-4.9,2.5-7.7,3.1
			c-1,0.2-1.7,1-1.7,2.1v3.7c0,0.2-0.2,0.3-0.3,0.3h-4.2c-0.2,0-0.3-0.2-0.3-0.3V143c0-1-0.7-1.8-1.7-2.1
			C69,140.3,66.3,139.3,64,137.8z"/>
		<path fill="#FF202A" d="M88.7,120.6c0-6.8-5.7-12.4-12.8-12.4s-12.8,5.6-12.8,12.4S68.8,133,75.9,133S88.7,127.5,88.7,120.6z
			 M67.4,120.6c0-4.5,3.8-8.2,8.5-8.2s8.5,3.7,8.5,8.2c0,4.5-3.8,8.2-8.5,8.2S67.4,125.2,67.4,120.6z"/>
	</g>
</g>
</svg>
