<?xml version="1.0" encoding="utf-8"?>
<!-- Generator: Adobe Illustrator 17.1.0, SVG Export Plug-In . SVG Version: 6.00 Build 0)  -->
<!DOCTYPE svg PUBLIC "-//W3C//DTD SVG 1.1//EN" "http://www.w3.org/Graphics/SVG/1.1/DTD/svg11.dtd">
<svg version="1.1" id="Layer_1" xmlns="http://www.w3.org/2000/svg" xmlns:xlink="http://www.w3.org/1999/xlink" x="0px" y="0px"
	 viewBox="0 0 800 453" enable-background="new 0 0 800 453" xml:space="preserve">

<rect fill="none" width="800" height="453"/>
<path fill="#004763" d="M112.2,123.3l79.4,99.9l5.3-3.8c0,0,5.8,1.8,8.9-1.9c4.3,0.9,22.3,2.8,40.2-9.7c3.9,0.4,5.8,0.8,8.7-2.3
	c6.2,1.3,23.5,2.7,36.8-8.9c3,0.8,5.6,0.8,7.4-1.8c5.7,0.8,23.3,2.2,33.8-8.1c3.2,0.5,5.8,0.7,7.2-1.8c5.1,0.5,19.2,3.3,31.3-7.3
	c3.5,0.8,5.1,0.4,6.7-1.6c3.8,0.8,18.6,2.3,29-7.3c2.6,1,4.5,1,5.5-1.3c2.8,0.7,14.8,3.3,23.6-3.8c7.9,5,37.3,25,37.3,25v4.4
	l56.5,36.3v3.4l5.9,3l40.7-15.2l5-1.5l22.1-8.6l6.6-1.9l13.7-6.1l5.9-2.3l4.4-0.8c1.3-0.2,2.6-0.7,3.8-1.3l7.8-4.4
	c0.4-0.2,0.8-0.4,1.2-0.6l2-0.8c1.3-0.5,2.6-0.8,3.9-0.9l5.2-0.1l9.8-5.9c0,0,5.4-3.8,11.9-2.9c2.4-1,12.9-7.1,14.5-8
	c-0.9-0.5-2.6-1.3-2.6-1.3l-0.1-2.9l-54.5-26.1v-2.9L588.1,118l-0.2-2.7l-43-20.7l0-2.5l-40.2-19.2l-0.1-2.6l-8.4-3.9
	c0,0-1.9,1.2-4.8,0.6c-2.9,1.4-6.3,5-17.9,2.3c-1.1,0.7-2.3,1.7-4.7,1c-0.7,0.7-6.8,4.9-16.8,2.5c-1.5,0.9-3.1,1.8-6.2,0.7
	c-1.6,1.1-7.9,5-19.2,2.8c-0.9,0.7-2.1,1.4-4.4,0.8c-2.9,1.6-9.4,5.6-19.9,2.8c-2.2,1-2.7,1.8-7.3,0.8c-1.7,1.5-6.7,5.9-20.3,3.1
	c-1,0.8-2.4,1.9-5.9,0.8c-2.2,1.8-14.5,6.6-24,3.4c-1.3,0.9-2.6,1.8-5.5,0.4c-1.9,1.6-12.7,7.6-25.7,3.4c-1.3,0.8-2.3,1.5-5.6,0.7
	c-2,1.5-9,7.4-26.8,3.8c-0.9,0.9-2.2,1.7-5.7,0.6c-1.6,1-14.8,7.8-28.9,4.6c-2,1.3-3.5,1.9-6.1,0.5c-2.2,1.5-8.6,7-32.2,4.7
	c-1,1.1-3,2.7-6.9,0.8c-3,1.5-14.9,8.3-33.6,4.7c-1.6,1.3-2.8,2.3-7.3,0.7c-3.9,1.8-15.3,8.6-36.1,5.4c-1.9,1.2-3.4,2.3-7.4,0.9
	C113.7,119.3,112,121.8,112.2,123.3z"/>
</svg>
